<?xml version="1.0" encoding="utf-8"?>
<!-- Generator: Adobe Illustrator 24.2.1, SVG Export Plug-In . SVG Version: 6.00 Build 0)  -->
<svg version="1.1" xmlns="http://www.w3.org/2000/svg" xmlns:xlink="http://www.w3.org/1999/xlink" x="0px" y="0px"
	 viewBox="0 0 500 500" style="enable-background:new 0 0 500 500;" xml:space="preserve">
<style type="text/css">
	.st0{fill:#263238;}
	.st1{fill:#37474F;}
	.st2{fill:#455A64;}
	.st3{fill:#057C19;}
	.st4{opacity:0.15;fill:#3BFF0B;}
	.st5{fill:#079328;}
	.st6{opacity:0.5;fill:#0C8420;}
	.st7{opacity:0.35;fill:#0C8420;}
	.st8{opacity:0.25;fill:#0C8420;}
	.st9{opacity:0.5;fill:#158E03;}
	.st10{opacity:0.2;}
	.st11{fill:#FFA8A7;}
	.st12{opacity:0.6;fill:#FAFAFA;}
	.st13{fill:#F28F8F;}
	.st14{fill:#B16668;}
	.st15{fill:#F0F0F0;}
	.st16{fill:#FAFAFA;}
	.st17{fill:#E0E0E0;}
</style>
<g id="Background_2_">
	<g id="Background_1_">
		<path id="Background" class="st0" d="M438.8,111.7C357.6,3.8,208-9.7,95.7,76.5C-0.4,150.2,4.1,302.6,30,359.3
			c24.7,54.1,91.1,113,201.4,121.3c84.6,6.3,157.3-18.8,195.9-52.3c28.3-24.5,46.4-59.9,55-99.2C496.6,263.6,478.3,164,438.8,111.7z
			"/>
		<path class="st1" d="M438.8,111.7c-38.5-51.1-92.3-81-150.3-89.2v236.9l182.8,105.5l0.4-0.9c4.5-11.1,8-22.9,10.6-34.9
			C496.6,263.6,478.3,164,438.8,111.7z"/>
		<g>
			<path class="st2" d="M52.7,395.5l58.8-34.3l58.9-34.1l58.9-34.1c19.6-11.4,39.3-22.7,58.9-34l0.2-0.1l0.2,0.1l91.3,52.9
				l45.6,26.5l45.6,26.6l-45.8-26.2l-45.7-26.3l-91.5-52.6h0.5c-19.6,11.4-39.3,22.7-59,34l-59,34l-59,34L52.7,395.5z"/>
		</g>
		<path class="st0" d="M22,160.3c3.8-0.3,5.7-8,10.7-18.7c16.5-35.6,40.1-61.3,69.8-84.9c7.3-10.6-20.3-7-24.6-4.5
			c-38.1,13.1-67.7,51.5-63,94.8C15.7,155.6,17.6,160.7,22,160.3z"/>
	</g>
</g>
<g id="Door_1_">
	<g id="Light">
		<path class="st3" d="M470.7,366.5l-245.8-63.6l-14.7,8.5l-5.4-3.1V81.2L105,138.8l0,227.1v0l0,6.2l-13.8,8l-11.6,42.7l0,0
			c35.1,29.5,85.5,52.8,151.9,57.8c84.6,6.3,157.3-18.8,195.9-52.3C446.3,411.8,460.7,390.5,470.7,366.5z"/>
		<path class="st4" d="M472.2,365.2l-245.8-63.6l-14.7,8.5l-5.4-3.1V80l-99.8,57.6l0,227.1v0l0,6.2l-13.8,8l-11.6,42.7l0,0
			c35.1,29.5,85.5,52.8,151.9,57.8c84.6,6.3,157.3-18.8,195.9-52.3C447.8,410.6,462.2,389.3,472.2,365.2z"/>
	</g>
	<g id="Door">
		<polygon class="st2" points="91.2,380.1 105,372.1 105,138.8 210.2,78.1 210.2,311.4 224.9,302.9 224.9,51.1 91.2,128.3 		"/>
		<polygon class="st1" points="210.2,311.4 204.8,308.3 204.8,81.2 210.2,78.1 		"/>
		<polygon class="st1" points="91.2,380.1 85.8,377 85.8,125.2 91.2,128.3 		"/>
		<polygon class="st1" points="224.9,51.1 219.6,48 85.8,125.2 91.2,128.3 		"/>
	</g>
</g>
<g id="Exit_Signal">
	<g id="Exit">
		<path class="st1" d="M115.3,88.4l2.3,1.3L178,54.9V16.2l-2.3-1.3c-1.2-0.7-3.1-0.7-4.3,0l-56.1,32.4c-1.2,0.7-2.1,2.3-2.1,3.7
			l0,33.8C113.2,86.1,114.1,87.8,115.3,88.4z"/>
		<path class="st2" d="M119.8,88.5l56.1-32.4c1.2-0.7,2.1-2.3,2.1-3.7V18.6c0-1.4-1-1.9-2.1-1.2l-56.1,32.4
			c-1.2,0.7-2.1,2.3-2.1,3.7v33.8C117.6,88.7,118.6,89.2,119.8,88.5z"/>
		<g>
			<path class="st5" d="M135.9,67.1c0.2-0.1,0.3-0.1,0.4,0c0.1,0.1,0.2,0.3,0.2,0.5V71c0,0.2-0.1,0.5-0.2,0.7
				c-0.1,0.2-0.2,0.4-0.4,0.5l-9.8,5.7c-0.2,0.1-0.3,0.1-0.4,0c-0.1-0.1-0.2-0.3-0.2-0.5V56.7c0-0.2,0.1-0.5,0.2-0.7
				c0.1-0.2,0.2-0.4,0.4-0.5l9.7-5.6c0.2-0.1,0.3-0.1,0.4,0c0.1,0.1,0.2,0.3,0.2,0.5v3.4c0,0.2-0.1,0.5-0.2,0.7
				c-0.1,0.2-0.2,0.4-0.4,0.5l-6.4,3.7v3.5l5.9-3.4c0.2-0.1,0.3-0.1,0.4,0c0.1,0.1,0.2,0.3,0.2,0.5v3.4c0,0.2-0.1,0.5-0.2,0.7
				c-0.1,0.2-0.2,0.4-0.4,0.5l-5.9,3.4v3.6L135.9,67.1z"/>
			<path class="st5" d="M144.8,60.6l-2.7,7.3c-0.1,0.2-0.2,0.5-0.3,0.7c-0.1,0.2-0.3,0.4-0.6,0.6l-3.2,1.8c-0.1,0.1-0.2,0.1-0.3,0
				c-0.1-0.1-0.1-0.2-0.1-0.4c0,0,0-0.1,0-0.2c0-0.1,0-0.1,0.1-0.2l4.8-13.1l-4.6-7.3c0-0.1-0.1-0.2-0.1-0.3c0-0.2,0-0.4,0.1-0.6
				c0.1-0.2,0.2-0.3,0.3-0.4l3.1-1.8c0.3-0.2,0.5-0.2,0.6,0c0.1,0.1,0.2,0.2,0.3,0.3l2.5,4l2.4-6.8c0.1-0.1,0.1-0.3,0.3-0.6
				c0.1-0.3,0.3-0.5,0.6-0.7l3.2-1.8c0.1-0.1,0.2-0.1,0.3,0c0.1,0.1,0.1,0.2,0.1,0.4c0,0.1,0,0.2-0.1,0.4l-4.6,12.7l4.8,7.5
				c0,0.1,0,0.1,0.1,0.2c0,0,0,0.1,0,0.1c0,0.2,0,0.4-0.1,0.6c-0.1,0.2-0.2,0.3-0.3,0.4l-3.2,1.8c-0.3,0.2-0.5,0.2-0.6,0.1
				c-0.1-0.1-0.2-0.2-0.3-0.3L144.8,60.6z"/>
			<path class="st5" d="M154.2,61.7c-0.2,0.1-0.3,0.1-0.4,0c-0.1-0.1-0.2-0.3-0.2-0.5V40.5c0-0.2,0.1-0.5,0.2-0.7
				c0.1-0.2,0.2-0.4,0.4-0.5l2.7-1.6c0.2-0.1,0.3-0.1,0.4,0c0.1,0.1,0.2,0.3,0.2,0.5v20.7c0,0.2-0.1,0.5-0.2,0.7
				c-0.1,0.2-0.2,0.4-0.4,0.5L154.2,61.7z"/>
			<path class="st5" d="M171.1,29.6c0.2-0.1,0.3-0.1,0.4,0c0.1,0.1,0.2,0.3,0.2,0.5v3.4c0,0.2-0.1,0.5-0.2,0.7
				c-0.1,0.2-0.2,0.4-0.4,0.5l-3.7,2.1v16.4c0,0.2-0.1,0.5-0.2,0.7c-0.1,0.2-0.2,0.4-0.4,0.5l-2.7,1.6c-0.2,0.1-0.3,0.1-0.4,0
				c-0.1-0.1-0.2-0.3-0.2-0.5V39l-3.7,2.1c-0.2,0.1-0.3,0.1-0.4,0c-0.1-0.1-0.2-0.3-0.2-0.5v-3.4c0-0.2,0.1-0.5,0.2-0.7
				c0.1-0.2,0.2-0.4,0.4-0.5L171.1,29.6z"/>
		</g>
	</g>
</g>
<g id="Arrows">
	<g id="Arrows_2_">
		<polygon class="st6" points="386.6,92.6 386.6,137.7 365.3,102.9 		"/>
		<polygon class="st7" points="400.7,100.8 400.7,145.9 379.5,111.1 		"/>
		<polygon class="st8" points="414.9,109 414.9,154 393.6,119.3 		"/>
	</g>
	<g id="Arrows_3_">
		<polygon class="st9" points="29.4,295.5 68.4,273 48.9,308.8 		"/>
		<polygon class="st7" points="29.4,279.1 68.4,256.6 48.9,292.4 		"/>
		<polygon class="st8" points="29.4,262.8 68.4,240.3 48.9,276.1 		"/>
	</g>
</g>
<g id="Character">
	<path id="Shadow_8_" class="st10" d="M319.2,395.4c-22.7-5-35.1-15.1-35.1-15.1c-8.9-1.1-15,8.3-7.1,19.4
		c5.5,7.7,39.5,48.7,59.4,72.4c38.2-9.5,69.7-25.4,91-43.8c3-2.6,5.8-5.3,8.5-8C394.9,412.3,319.2,395.4,319.2,395.4z"/>
	<g id="Character_1_">
		<g id="Bottom_12_">
			<g>
				<g>
					<path class="st11" d="M324.9,365.9l-13.4,25.9c0,0-8.6-0.2-12.2-4.5c-6.1-7.5-3.1-12.1-2.3-11.7c2.1,1.2,4.9,1.7,5.5-0.4
						c0.7-2.1,1.5-4.8,2.4-8.1C306.2,362.9,324.9,365.9,324.9,365.9z"/>
					<g>
						<path class="st1" d="M278,371.7c-1.3,1.3-1.4,5.1-0.4,8c1,2.9,3.6,6.3,7.7,8.8c3.8,2.3,7,3.4,8.9,5.5c1.9,2.1,3,6.2,8.6,7.7
							c5.5,1.5,7.3-1.6,8.4-3.4L278,371.7z"/>
						<path class="st2" d="M315.1,384.8l-0.9,1.8c-2.8,2.9-8,2-9.8,0.3c-1.8-1.7-2.4-4-3.9-4.8c-1.5-0.8-5.2-1.6-2.9-1.6
							c2.3,0,2.5,0,2.9-1.2c0.9-2.5,1.8-3.6,1.8-3.6c-1-0.6-2.6,0-4.2-0.6c-1.6-0.6-5.5-3.5-9.5-5.8c0,0-3.5-2.5-4.6-2.9
							c-2.8-1-6.2,1.8-6.7,4c-0.8,3.3-0.8,6.4,2.5,11.4c3.2,5,11.4,7.8,13.8,9.6c2.3,1.8,2.2,3.4,6.3,6.7c4.5,3.7,10.3,1.8,11.8-0.7
							c1.6-2.7,2.1-4.9,3.2-7.5C316.1,387.3,316.1,386.1,315.1,384.8z"/>
						<path class="st1" d="M293.4,381.3c0.4-1.4,1.6-5.6,4.6-6.4l0.4,0.2c0,0,0.1-0.4-0.8-0.8c-0.9-0.4-2.2-0.3-3.7,1.8
							c-1.5,2.1-2,4.2-2,4.7C291.9,381.3,293,381.7,293.4,381.3z"/>
						<path class="st1" d="M288.9,378.9c0.5-1.4,2.5-5.5,5.5-6.1l0.4,0.2c0,0,0-0.4-0.8-0.8c-0.8-0.4-2.3-0.3-3.9,1.7
							c-1.7,2-2.6,3.9-2.7,4.4C287.4,378.8,288.4,379.3,288.9,378.9z"/>
						<path class="st1" d="M284.8,376.4c0.5-1.4,2.7-5.6,5.7-6.1l0.3,0.2c0,0,0.1-0.3-0.7-0.8c-0.8-0.4-2-0.8-3.7,1.1
							c-1.7,1.9-3,4.3-3,4.8C283.2,376.2,284.2,376.7,284.8,376.4z"/>
					</g>
				</g>
				<path class="st1" d="M361.7,240.8c3.7,6.1,8.2,14.9,8.2,24.8c0,8.7-2.9,15.5-9.6,23.1c-1.4,2.2-18.4,34.5-18.4,34.5
					s-0.7,12.1-6.1,23.4c-5.3,11-16.9,31.4-16.9,31.4s-2.9,2.7-10-0.4c-5.3-2.3-4.5-8-4.5-8s8.7-42.2,10.8-52
					c2.1-9.8,4.6-17.8,9.6-32.8c5.7-17,11.2-31.7,11.2-31.7L361.7,240.8z"/>
				<g>
					<path class="st2" d="M310.7,376.7l-1-0.4c1.8-4.7,4.2-10,6.4-15.2c5.3-12.1,10.7-24.6,10.8-30.2c0.2-8.2,15.7-42.5,16.3-44
						l0.9,0.5c-0.2,0.4-16.1,35.6-16.3,43.6c-0.1,5.8-5.6,18.4-10.9,30.6C314.9,366.7,312.5,372,310.7,376.7z"/>
				</g>
				<path class="st2" d="M303.3,371.6c0,0-0.2,4.7,5.5,7.2c6.8,3,10-0.7,10-0.7l3.3-6.1c0,0-4.5,2-9.4,0.6c-5.4-1.5-7.7-7.5-7.7-7.5
					L303.3,371.6z"/>
			</g>
			<path class="st10" d="M341.8,323.3l-17.9-9.1c0,0-4.3,19.7-9.2,38c-4.9,18.2-7,26.7-9.6,31c-2.6,4.3-2.8,6.6-7.7,5.5
				c-4.9-1.1-16.6-5.8-19.8-9c1,2.9,3.6,6.3,7.7,8.8c3.8,2.3,7,3.4,8.9,5.5c1.9,2.1,3,6.2,8.6,7.7c5.5,1.5,7.3-1.6,8.4-3.4l0,0
				c0.2-0.2,0.5-0.5,0.6-0.8c1.6-2.7,2.1-4.9,3.2-7.5c1.2-2.7,1.2-3.9,0.2-5.2l-0.9,1.8c0,0,0,0,0,0l4.1-7.9
				c0.3-0.3,0.5-0.5,0.5-0.5l3.3-6.1c3.8-6.9,10.1-18.2,13.6-25.6C340.8,336,341.7,324.8,341.8,323.3z"/>
			<path class="st12" d="M337.3,252.4l-1.3,0.6c0,0-5.5,14.7-11.2,31.7c-5,15-7.5,23-9.6,32.8c-1.7,7.9-7.8,37.2-10,47.9
				c-0.1-0.2-0.1-0.3-0.1-0.3l-1.7,6.5c0,0,0,0.3,0.1,0.9c-0.3,1-0.6,1.8-0.8,2.6c0,0.1-0.1,0.3-0.2,0.4c-1-0.6-2.4-0.1-3.9-0.5
				c0,0,0-0.4-0.8-0.8c-0.3-0.1-0.7-0.2-1.1-0.1c-0.5-0.3-1.1-0.7-1.8-1.1l0,0c0,0,0-0.4-0.8-0.8c-0.2-0.1-0.4-0.2-0.7-0.2
				c-0.9-0.6-2.5-1.6-2.5-1.6s0.1-0.3-0.7-0.8c-0.3-0.2-0.7-0.3-1.1-0.3c-0.1,0-0.1-0.1-0.2-0.1c0,0-3.5-2.5-4.6-2.9
				c-2.8-1-6.2,1.8-6.7,4c-0.5,2-0.7,3.9,0,6.2l0,0c-1-8,5.1-10.5,7.2-9c2,1.5,10.9,8.1,13.9,8.7c1.1,0.2,2-0.1,3,0.7
				c1.3,0.2,2,0.1,3-3.3c1.6-5.7,7.1-30.6,9.6-43.5c2.5-12.8,5.9-25.2,8.4-32.9C324.3,291.6,333.1,265,337.3,252.4z"/>
			<g>
				<path class="st11" d="M380,349.6c0,0,10.5,13.6,12.2,15.3c1.8,1.6,5.3,3,5.3,3l-9.2,16l-21.8-19.2L380,349.6z"/>
				<path class="st2" d="M313.8,258.1c0.8,6.8,7.2,42.7,9.8,55c2.2,10.4,3.7,20.5,9.5,25.5c7.8,6.8,12.3,10.4,24.2,20
					c12.9,10.4,17.6,14.3,17.6,14.3c0.8-4.3,6-16.3,10.6-16.5c-4.9-7.3-14.5-19.9-19.2-25.8c-5.1-6.4-10.9-9.1-10.9-9.1l-1-34
					c0,0,6.6-9,6.7-19c0.1-10.3-2.9-18.4-7.4-24L313.8,258.1z"/>
				<g>
					<path class="st1" d="M350.7,276.9c-1.9,0-10.6-1.6-11.8-2.8c-0.7-0.8-1.8-4.3-3.4-9.9c-0.8-2.6-1.6-5.4-2.3-7.6L333,256
						l19.6-6.3l0.2,0.5c0.2,0.5,5,13.2,4.3,18.9c-0.3,2.1-4.6,7.6-6.2,7.8C350.8,276.9,350.8,276.9,350.7,276.9z M334.3,256.7
						c0.7,2.2,1.4,4.7,2.1,7.2c1.2,4.1,2.6,8.8,3.2,9.5c0.9,0.9,9.9,2.7,11.2,2.5c0.9-0.1,5-4.9,5.3-6.9c0.6-4.9-3.2-15.6-4.1-18
						L334.3,256.7z"/>
				</g>
				<g>
					<path class="st1" d="M374.3,367.6c-0.2-0.1-17-14.7-26.2-22.9l-2.3-2.1c-7.9-7-11.9-10.6-13.3-16.7c-1.6-6.9-9.7-46.5-13.6-71
						l1-0.2c3.9,24.5,11.9,64,13.5,70.9c1.3,5.8,5.2,9.2,12.9,16.1l2.3,2.1c9.2,8.2,26,22.7,26.2,22.9L374.3,367.6z"/>
				</g>
				<g>
					<path class="st2" d="M403.7,368c-4.3-1.1-7.4-1.8-8.8-2.7c-1.3-0.9-5,0.7-7.4,4.9c-1.7,2.9-1.6,7-1.2,8c0.5,1,1.8,3.8,1.9,4.6
						c-0.6-1.6-2.6-2.5-3.1-2.6c-0.5-0.1-0.6,1.4-0.1,2c0.9,1.2,2.2,2.1,3.5,5.7s1.8,5.6,2.4,11.3c0.5,4.9,0.9,10.7,7.3,12.9
						L403.7,368z"/>
					<path class="st1" d="M400.1,412.8c-2.9-0.6-4.1-1.9-4.7-5.1c-0.6-3.2,0-7.7,0.3-10.4c0.3-2.7,0.1-5-0.7-8.4
						c-0.8-3.4-1.6-8.6,0.7-13.3c2.3-4.8,5.5-8,7.9-7.5c1.8,0.3,2.4,1,2.4,1L400.1,412.8z"/>
					<path d="M404.2,368.8c-3.1,1.7-6.7,5.4-7.5,11.3c-0.8,5.9,1.2,12,0.8,17c-0.4,4.9-1.7,10.5,1,14.5c2.8,4,7.6-2.6,9.8-9.6
						c2.2-7-3.1-11.6-1.6-19.2C408.2,375.2,407.4,367.1,404.2,368.8z"/>
				</g>
				<path class="st1" d="M369.2,368.5l6.3,5.1c0,0,2.4-6.5,6.2-10.1c4.5-4.2,6.6-3.2,6.6-3.2l-4.4-6.2c0,0-5.3-0.3-9.4,4.5
					C370.5,363.4,369.2,368.5,369.2,368.5z"/>
			</g>
		</g>
		<g id="Top_12_">
			<g>
				<path class="st11" d="M334.9,175.8c-2.2-1.2-4-4.6-3.6-7.5c0.4-2.9,2.9-10.2,1.8-18.1c-1.1-7.9-14.1-17.7-23-14.9
					c-8.8,2.8-14.1,9-15.1,16.2c-0.6,4.4,1.1,4.9,1,7.4c-0.2,4.9-0.3,12.8,2.9,17.3c2,2.8,4.5,3.8,7.2,3.9c2.7,0.1,7.3-1.2,7.3-1.2
					s0.7,2.1,0.9,4.2c0.3,2.7-1.7,5.1-1.7,5.1S337.1,177,334.9,175.8z"/>
				<g>
					<g id="XMLID_419_">
						<path id="XMLID_429_" class="st0" d="M307.1,159c-0.1,0.8,0.5,1.6,1.3,1.7c0.8,0.1,1.5-0.5,1.6-1.4c0.1-0.8-0.5-1.6-1.3-1.7
							C307.9,157.5,307.1,158.1,307.1,159z"/>
						<path id="XMLID_424_" class="st0" d="M307.3,153.2l3.6,0.6c0.1-1-0.6-2-1.5-2.1C308.3,151.5,307.4,152.2,307.3,153.2z"/>
						<path id="XMLID_423_" class="st0" d="M295,156l3-2c-0.5-0.9-1.6-1.1-2.5-0.6C294.7,154,294.4,155.1,295,156z"/>
						<path id="XMLID_420_" class="st0" d="M296.7,160.1c0.2,0.8,0.9,1.2,1.6,1.1c0.7-0.2,1.2-0.9,1-1.7c-0.2-0.8-0.9-1.2-1.6-1.1
							C297,158.6,296.5,159.4,296.7,160.1z"/>
						<path class="st13" d="M297.4,166.4l5.5,1.8l0.5-10.5C301.3,157.2,299.3,162.2,297.4,166.4z"/>
					</g>
					<path class="st14" d="M310,170.6c0,0.8-0.6,1.4-1.4,1.4c-0.8,0-1.4-0.6-1.4-1.4c0-0.8,0.6-1.4,1.4-1.4
						C309.4,169.2,310,169.9,310,170.6z"/>
				</g>
				<path class="st13" d="M313.4,179c0,0,3.5-1.1,4.7-2.2c3.3-2.9,3.5-5.3,3.9-7.9c0,2.8,0.4,6.6-2.9,9.2c-2.1,1.6-5.2,2.6-5.2,2.6
					L313.4,179z"/>
				<path class="st0" d="M322.5,164.3c0.2,1.5,1.3,4.2,3,4.9c1.7,0.8,4.3,0.7,5.7,0c0.2-1.4,1-5.1,1.8-8.2
					c0.9-3.3,2.5-13.6-2.4-17.4c0.4-4.7-3.1-7.4-7.5-9.3c-3.7-1.6-10.2-1.2-15.2,0.6c-11.7,4.4-14.5,0.8-16,2
					c-1.5,1.2,0.5,5.1,2.1,6.1c-2,0-3.2,1.3-1.7,3.4c1.5,2.1,4.4,3.2,8.8,3c7.8-0.4,11.4-3.3,13.1-4.5c-0.4,1.7-0.6,3.9-0.6,5.6
					c0,1.7,1.2,3.5,2.3,4.2c1.1,0.7,0.3,3.3,0.7,4.2c0.4,0.9,2,2.6,3-1.5c1-4.1,4.9-5,6.8-3.5c2,1.5,2.3,3.5,1.5,7.1
					C327.4,163.9,324.6,165.6,322.5,164.3z"/>
			</g>
			<g>
				<g>
					<g>
						<path class="st11" d="M387.7,224.3c0,0,10.6,9.8,11.5,10.8c0.6,0.7,3.8,3.5,3,4.9c-0.2,0.4-0.9,0.4-1.4,1.2s-0.6,2.4-0.6,4.5
							c0.1,1.1,1.3,1.5,2,1.5c0,0.6,0.9,1.7,2.3,1.5c0.1,0.6,0.5,1.3,0.9,1.6c0.7,0.5,1.5,0.6,1.9,0.6c0.4,0.9,2.1,1.1,3.6,0.5
							c1.5-0.6,3-2.1,3.9-2.9c0.8-0.8,1-1.8,1-2.4c0-1.2,0-2.7-0.3-5.4c-0.3-2.7-1.6-5.2-3-8.2c-1.9-3.9-13.6-17.7-13.6-17.7
							L387.7,224.3z"/>
					</g>
					<path class="st13" d="M407.3,250.8c-0.4-1.3-1-3.8-0.6-4.6c0.4-0.8,2.5-2.8,2.8-3c0.3-0.2,0.9,0.2,1.2,0.9
						c0.3,0.8-0.3,1.9-0.6,2.6l0.3,1c0,0-0.5,1-0.3,1.7c0.2-1.5,2.2-2.9,3-2.7c-0.9-0.4-1.8-0.1-1.8-0.1l-0.3-0.8
						c0,0,0.7-1.9-0.1-2.7c-0.8-0.8-1.1-1-2,0c-0.9,1-2.4,2.4-2.6,3.1C406.1,247.1,407.3,250.8,407.3,250.8z"/>
					<path class="st13" d="M411.3,239c-1.5,1.9-0.4,4.7-0.4,4.7S408.6,241.2,411.3,239z"/>
					<g>
						<path class="st13" d="M404.5,248.7c-0.3-0.9-0.7-1.9-0.5-3c0.1-0.3,0.2-0.5,0.3-0.7l0.4-0.6c0.3-0.4,0.6-0.8,0.9-1.2l1-1.1
							c0.4-0.3,0.6-0.8,1.2-1c0.2-0.1,0.5-0.2,0.8-0.2c0.3,0,0.6,0.2,0.7,0.5c0.3,0.5,0.3,1,0.3,1.5c-0.1-0.5-0.2-1-0.5-1.4
							c-0.3-0.4-0.7-0.3-1.1-0.1c-0.4,0.2-0.7,0.6-1,1l-1,1.1l-1,1.1c-0.3,0.4-0.7,0.7-0.8,1.2C404.1,246.7,404.3,247.7,404.5,248.7
							z"/>
					</g>
					<g>
						<path class="st13" d="M402.2,247.2c-0.3-1-0.6-1.9-0.5-3c0-0.5,0.3-1.1,0.7-1.4c0.4-0.4,0.7-0.7,1.1-1l1.2-1l0.6-0.5l0.3-0.2
							c0.1-0.1,0.2-0.2,0.4-0.2c0.4-0.1,0.7,0.1,0.8,0.3c0.2,0.2,0.3,0.5,0.3,0.8c0,0.5-0.1,1.1-0.4,1.5c0.1-0.5,0.2-1,0.1-1.4
							c-0.1-0.4-0.5-0.9-0.8-0.8c0,0-0.1,0.1-0.2,0.2l-0.3,0.2l-0.6,0.5l-1.1,1c-0.4,0.3-0.8,0.7-1.1,1c-0.4,0.3-0.6,0.7-0.7,1.2
							C401.9,245.2,402.1,246.2,402.2,247.2z"/>
					</g>
					<path class="st13" d="M405.2,240.7c0.1-0.5,0.2-1,0-1.4c-0.1-0.2-0.2-0.4-0.4-0.5c-0.2-0.1-0.4,0-0.5,0.1
						c-0.8,0.5-1.6,1-2.4,1.6c-0.4,0.3-0.7,0.6-1,1c-0.2,0.3-0.3,0.8-0.4,1.3c-0.1,0.9-0.2,1.9-0.4,2.9c-0.1-1-0.1-2,0-2.9
						c0-0.5,0.1-1,0.4-1.5c0.3-0.5,0.7-0.8,1.1-1.1c0.8-0.6,1.6-1.1,2.5-1.6c0.2-0.1,0.6-0.2,0.9,0c0.3,0.2,0.4,0.4,0.5,0.7
						C405.5,239.7,405.4,240.2,405.2,240.7z"/>
					<path class="st11" d="M400.3,236.2c1.1,1.3,0.2,2.7-0.1,4.2c-0.3,1.5-0.4,2.1,0.3,3.1c0.7,1,2.8,3.1,3.2,3.6
						c0.5,0.5,2.2-0.8,1.2-3.2c-0.4-1-1.8-2-2.1-3.4C402.4,238.8,402,237.6,400.3,236.2z"/>
					<path class="st13" d="M400.2,240.4c-0.1,0.7-0.2,1.4-0.1,2c0.1,0.6,0.6,1.2,1,1.7c0.9,1,1.9,2,2.8,2.9c0,0.1,0.4,0,0.6-0.3
						c0.2-0.2,0.3-0.5,0.4-0.8c0.2-0.6,0.1-1.3-0.2-1.9c-0.2-0.6-0.7-1.1-1.1-1.7c-0.4-0.6-0.8-1.2-0.9-1.9c0.4,1.4,1.7,2.1,2.3,3.4
						c0.3,0.6,0.4,1.4,0.2,2.1c-0.1,0.4-0.3,0.7-0.5,1c-0.1,0.1-0.3,0.3-0.5,0.4c-0.2,0.1-0.5,0.2-0.7,0c-1-1.1-1.9-2-2.8-3.1
						c-0.4-0.5-0.9-1.1-1-1.9C399.8,241.7,400,241.1,400.2,240.4z"/>
				</g>
				<path class="st15" d="M345.1,174.6c7.5-1.3,11,2.3,16.6,6.5c5.6,4.2,21.8,17.7,25.2,20.2c3.4,2.5,4.2,3.4,8.3,8.5
					c4.2,5.1,5,6.3,5,6.3s-3.6,8.3-11.9,9.3l-9.4-8.3l-25.2-11.2L345.1,174.6z"/>
			</g>
			<path class="st16" d="M345.1,174.6c-8.3,0-20.9,4.7-31.4,12.9c-5,3.8-11.5,8-11.9,8.9c-0.7,3.8,1,8.8,1.8,14.5
				c2,14.5,4.7,23.8,6.8,33c3.1,13.7,3.7,15.7,3.7,15.7s27.9,0.3,38.8-7.8c10.9-8.1,9.1-12.3,8.2-16.9c-0.9-4.5-3.3-15.5-3-29
				C358.3,192.5,355.2,174.6,345.1,174.6z"/>
			<path class="st15" d="M311.3,189.3c3.3-4.6,2.1-4.5,4.3-7.2c2.8-3.4,16.4-9.5,17.8-8.6c2.7,1.8,5.2,2,5.2,2s-0.2,2.4-8.6,6.3
				C322.1,185.5,318.7,185.9,311.3,189.3z"/>
			<g>
				<g>
					<path class="st11" d="M276.5,233.5c0,0-14.6-6.7-15.7-7.3c-1.9-1.1-2.1-1.6-2-3.2s0.4-2.9-0.4-4.5c-0.9-1.6-2.1-3.3-3.1-3.5
						c-1-0.2-2.1,0-2.1,0s-1.6-1.8-2.5-2.1c-0.9-0.3-2.9-0.4-4.2,0.3c-1,0.5-0.7,1.4-1.3,2.5c-0.3,0.5-1.1,0.8-1.4,1.4
						c-0.3,0.6-0.1,1.3-0.3,2c-0.4,1.4-0.9,2.7-0.9,3.7c0,2.2,3.6,7.3,6.6,10.3c3,3,19.8,12.7,19.8,12.7L276.5,233.5z"/>
					<path class="st13" d="M253.2,215c0.6,0.9,1.3,1.4,1.4,2.3c0.1,0.9-0.7,1.3-0.7,1.3s-0.8-1.6-2.5-1.8c1.4,0.7,1.9,2,2,2.5
						c0.5-0.2,1.2,0.1,1.6,0.5c0.4-0.2,0.7-0.7,0.8-1c0.2-0.7-0.1-1.7-0.7-2.3C254.5,216,253.2,215,253.2,215z"/>
				</g>
				<path class="st15" d="M302.2,195.9c3.8,0,12.1,9.9,7.8,25c0,0-13.6,19.4-18.5,25.1c-3,3.5-5.9,7.8-12.2,5.3
					c-8.1-3.2-14.9-8-14.9-8s-1.5-8.4,4.6-13.4l7.8,3.1c0,0,5.7-9.1,11.6-18.7C295.3,203.1,295.4,201.1,302.2,195.9z"/>
				<path class="st17" d="M276.8,233c-0.3,3.4,0.3,7.7,2.3,10.5c-2.6-1.4-4.8-5.4-4.1-11.1L276.8,233z"/>
			</g>
		</g>
		<path id="Shadow_4_" class="st10" d="M415.5,240.6c-0.3-2.7-1.6-5.2-3-8.2c-1.5-3.1-9.3-12.6-12.3-16.2c0,0,0-0.1,0-0.1
			s-0.7-1.2-5-6.3c-4.2-5.1-5-5.9-8.3-8.5c-3.4-2.5-19.6-16-25.2-20.2c-5.6-4.2-9.1-7.8-16.6-6.5c-2,0-4.2,0.3-6.6,0.8c0,0,0,0,0,0
			s-2.5-0.2-5.2-2c-0.2-0.1-0.5-0.1-0.9-0.1c-0.8-1.3-1.3-2.8-1.3-4.3c0.2-1.5,1-5,1.8-8.1c0.9-3.3,2.5-13.6-2.4-17.4
			c0.4-4-2.2-6.6-5.6-8.4c-4.2-1.6-11.9,0.4-16.9,3c-5.1,2.6-5.1,11-5.1,11s2.4-0.3,5.1-1.1c1,1,2.5,3.9,0.5,4.4
			c-2,0.4-3.3,2.2-3.6,3.7c-0.2,1.5,2.4,1.2,4.2,1.8c1.7,0.6,4.1,2.4,3.6,4.1c-0.5,1.7-2.1,4.4,0.4,6.1c2.5,1.7,7,5.5,2.9,9.9
			c0,0,1.7-0.4,3.9-3l1.4,3c0,0-2.2,2.3-3,4.9c-0.7,2.6-1.3,4-1.3,4s1.6,3.6-4.6,7.8c-6.2,4.3-8.5,4.3-12.1,11
			c-3.7,6.8-13,25.1-16.2,31.5s-3.4,9.5-9,8.2c-5.6-1.3-16.5-6.1-16.6-6.2c2.1,1.3,4.3,2.6,6.1,3.7c0,0.2,0,0.3,0,0.3
			s6.8,4.9,14.9,8c6.3,2.5,9.1-1.8,12.2-5.3c3.3-3.8,10.3-13.6,14.7-19.7c0,0,0,0,0,0.1l0.1-0.3l3.1-4.4c0,0,3.8,14.5,5.9,21.8
			c2,7.3,12.4,62.5,13,67.6c0.7,5.1,6.9,18.3,8.7,19.4c1.9,1.1,5.5-3.6,13.2-1.1c7.8,2.5,16.7,17.4,21.1,23.9
			c4.5,6.5,15.4,19.2,17.8,21.3c2.4,2,2.6,6.2,3.3,10.6c0.7,4.3,2.3,5.6,2.1,10.3c-0.2,4.6-1.3,14.2,5.3,17.4l0,0
			c2.8,0.7,6.4-4.9,8.3-10.8c2.2-7-3.1-11.6-1.6-19.2c1.1-5.9,0.9-12-0.7-13.7l0,0c0,0-0.5-0.7-2.4-1c-4.3-1.1-7.4-1.8-8.8-2.7
			c-0.5-0.3-1.2-0.3-2.1,0c-0.2-0.1-0.4-0.3-0.5-0.4c-0.6-0.5-2.1-2.4-3.9-4.6l-4.4-6.1c0,0-0.1,0-0.2,0
			c-5.2-7.4-13.4-18.2-17.6-23.5c-5.1-6.4-10.9-9.1-10.9-9.1l-0.7-22.7c2.8-5.2,5.1-9.4,5.5-10.2c6.7-7.6,9.6-14.4,9.6-23.1
			c0-9.9-4.5-18.7-8.2-24.8c0.3-2-0.3-3.9-0.6-5.7c-0.8-4.3-3.1-14.6-3-27.3l0,0l0-6.3c0,0,18.5,9.3,21.9,11.2c3.4,2,7.7,6,11,9.9
			c3.3,3.8,11.5,11.1,11.9,13.2c0.4,2.1-2,4.1-0.7,6.5c1.3,2.4,3.1,2.9,2.7,4.6c0,0,0.4,1.7,1.8,1.5c0,0,1.3,2.8,4.1,1.9
			c2.7-0.9,4.9-2.8,5.1-5.9C415.7,243.3,415.7,242.2,415.5,240.6z"/>
		<g id="Lights">
			<path class="st12" d="M293.5,147.2c-1.3-1.3-2.1-3.4-0.2-4.2c-1.5,0.3-2.2,1.5-0.9,3.3c0.7,1,1.8,1.8,3.2,2.3
				C295.4,148.5,294.6,148.2,293.5,147.2z"/>
			<path class="st12" d="M293.6,142.5c-0.9-0.9-1.5-2.4-1.8-3.7c-0.2-1.3,0.4-2.2,1.8-2.2c-0.8-0.1-1.3-0.2-1.7,0.2
				C290.5,137.9,292.1,141.2,293.6,142.5z"/>
			<path class="st12" d="M301.1,159.1c-1.2,1.7-2.5,4.6-3.7,7.2l5.5,1.8l-4.5-2.1C298.3,166,300.5,160.1,301.1,159.1z"/>
			<path class="st12" d="M312.7,179.2c0,0-4.1,0.8-6.1,0.6c-2-0.2-5-0.3-7.7-4.5c-2.7-4.2-3-11.8-3-14.1c-0.1,4.8,0.2,11.2,3,15.1
				c2,2.8,4.5,3.8,7.2,3.9C308.1,180.3,311.2,179.6,312.7,179.2z"/>
			<path class="st12" d="M244.6,216.8c0.5-0.4,1.4-0.7,1.5-2.2c0.1-1.5,1.2-1.8,2.8-2c-0.8,0-1.6,0.1-2.4,0.5
				c-1,0.5-0.7,1.4-1.3,2.5c-0.3,0.5-1.1,0.8-1.4,1.4c-0.3,0.6-0.1,1.3-0.3,2c-0.4,1.4-0.9,2.7-0.9,3.7c0,1.6,1.9,4.6,4,7.4
				c-2.2-3.2-3.8-7.1-3.6-8.1c0.2-1,1.2-2.2,1.1-3.4C243.9,217.5,244.1,217.3,244.6,216.8z"/>
			<path class="st12" d="M255.4,215.4c0.9,0.2,2.5,2.3,2.6,2.3c-0.8-1.4-1.8-2.6-2.7-2.8c-1-0.2-2.1,0-2.1,0l0.6,0.4
				C253.8,215.4,254.4,215.2,255.4,215.4z"/>
			<path class="st12" d="M390.9,393.8c-0.6-6.1-2.8-8.8-4.4-10.6c-1.6-1.8-1.3-2.2-1.3-3c0,0-1.5-1.8-7.1-6.6
				c-5.8-5-23.6-18.6-36.2-29.5c-5.1-4.4-8-6.2-9.8-9c-2.1-3.3-3.9-8.7-5-13.3c-1.8-7.7-11.3-62.1-11.3-62.1l-1.7,0
				c1.3,9.5,7.2,41.9,9.6,53.4c2.2,10.4,3.7,20.5,9.5,25.5c7.8,6.8,12.3,10.4,24.2,20c5.3,4.3,9.3,7.5,12,9.7c0,0.1,0,0.2,0,0.2
				l6.3,5.1c0,0,0.1-0.3,0.3-0.8l8.9,7.9c-0.1,0.5,0,1.2,0.3,1.6c0.9,1.2,2.2,2.1,3.5,5.7s1.8,5.6,2.4,11.3
				c0.4,3.9,0.8,8.3,4.1,11.1C391.1,406.7,391.6,399.8,390.9,393.8z"/>
			<path class="st12" d="M403.7,247.2c0,0-0.9-1.7-1.9-2.7c-1-1-1.6-2.7-1-4.5c0.6-1.8,0.5-2.9,0.3-3.7
				c-0.2-0.9-11.4-11.1-11.4-11.1l-0.9,0.1c2.7,2.5,9.7,9,10.4,9.8c0.2,0.2,0.6,0.6,1.1,1.1c1.1,1.3,0.2,2.7-0.1,4.2
				c-0.3,1-0.7,1.8-0.1,2.9c-0.1,0.7,0,1.6,0.1,2.3c0.1,1.1,1.3,1.5,2,1.5c0,0.5,0.7,1.4,1.9,1.5c-1.5-0.4-2-2-2-2s-0.4,0-1-0.9
				c-0.6-0.9-0.4-1.9-0.4-1.9L403.7,247.2z"/>
		</g>
	</g>
</g>
<g id="Exclamation_1_">
	<g id="Exclamation">
		<g>
			<path class="st5" d="M274,135.7c-0.1-0.2-0.2-0.4-0.1-0.6c0-0.2,0.2-0.4,0.3-0.5l3.1-2.1c0.2-0.1,0.4-0.2,0.6-0.1
				c0.2,0,0.4,0.2,0.5,0.3l1.7,2.5c0.1,0.2,0.2,0.4,0.1,0.6c0,0.2-0.2,0.4-0.3,0.5l-3.1,2.1c-0.2,0.1-0.4,0.2-0.6,0.1
				c-0.2,0-0.4-0.2-0.5-0.3L274,135.7z M264.7,122.1c-0.1-0.2-0.2-0.4-0.1-0.6c0-0.2,0.2-0.4,0.3-0.5l3.1-2.1
				c0.2-0.1,0.4-0.2,0.6-0.1c0.2,0,0.4,0.2,0.5,0.3l7.3,10.7c0.1,0.2,0.2,0.4,0.1,0.6c0,0.2-0.2,0.4-0.3,0.5l-3.1,2.1
				c-0.2,0.1-0.4,0.2-0.6,0.1c-0.2,0-0.4-0.2-0.5-0.3L264.7,122.1z"/>
		</g>
		<g>
			<path class="st5" d="M273.2,149.6c-0.2-0.1-0.3-0.2-0.4-0.5c-0.1-0.2-0.1-0.4,0-0.6l1.6-3.5c0.1-0.2,0.2-0.3,0.5-0.4
				c0.2-0.1,0.4-0.1,0.6,0l2.8,1.3c0.2,0.1,0.3,0.2,0.4,0.5c0.1,0.2,0.1,0.4,0,0.6l-1.6,3.5c-0.1,0.2-0.2,0.3-0.5,0.4
				c-0.2,0.1-0.4,0.1-0.6,0L273.2,149.6z M258.3,142.8c-0.2-0.1-0.3-0.2-0.4-0.5c-0.1-0.2-0.1-0.4,0-0.6l1.6-3.5
				c0.1-0.2,0.2-0.3,0.5-0.4c0.2-0.1,0.4-0.1,0.6,0l11.8,5.4c0.2,0.1,0.3,0.2,0.4,0.5c0.1,0.2,0.1,0.4,0,0.6l-1.6,3.5
				c-0.1,0.2-0.2,0.3-0.5,0.4c-0.2,0.1-0.4,0.1-0.6,0L258.3,142.8z"/>
		</g>
	</g>
</g>
</svg>
