<svg width="63" height="63" viewBox="0 0 63 63" fill="none" xmlns="http://www.w3.org/2000/svg">
<circle cx="31.1587" cy="31.6255" r="31.1098" fill="#F6F7FF"/>
<circle cx="31.882" cy="32.3488" r="23.1515" fill="#25D366"/>
<path d="M41.5923 25.4163C41.4578 25.2807 41.2978 25.173 41.1215 25.0996C40.9451 25.0261 40.756 24.9883 40.565 24.9883C40.374 24.9883 40.1848 25.0261 40.0085 25.0996C39.8322 25.173 39.6722 25.2807 39.5376 25.4163L28.7577 36.2107L24.2287 31.6672C24.089 31.5323 23.9242 31.4262 23.7435 31.355C23.5628 31.2838 23.3699 31.2489 23.1758 31.2523C22.9816 31.2556 22.79 31.2972 22.6119 31.3746C22.4338 31.452 22.2727 31.5637 22.1378 31.7034C22.0029 31.843 21.8968 32.0079 21.8256 32.1886C21.7544 32.3692 21.7195 32.5621 21.7229 32.7563C21.7262 32.9505 21.7678 33.1421 21.8452 33.3201C21.9226 33.4982 22.0343 33.6593 22.174 33.7942L27.7304 39.3506C27.8649 39.4862 28.0249 39.5939 28.2012 39.6673C28.3776 39.7408 28.5667 39.7786 28.7577 39.7786C28.9487 39.7786 29.1379 39.7408 29.3142 39.6673C29.4905 39.5939 29.6505 39.4862 29.7851 39.3506L41.5923 27.5433C41.7392 27.4078 41.8564 27.2434 41.9366 27.0603C42.0168 26.8773 42.0582 26.6796 42.0582 26.4798C42.0582 26.28 42.0168 26.0823 41.9366 25.8993C41.8564 25.7162 41.7392 25.5518 41.5923 25.4163Z" fill="white"/>
</svg>
