<?xml version="1.0" encoding="utf-8"?>
<!-- Generator: Adobe Illustrator 24.2.1, SVG Export Plug-In . SVG Version: 6.00 Build 0)  -->
<svg version="1.1" xmlns="http://www.w3.org/2000/svg" xmlns:xlink="http://www.w3.org/1999/xlink" x="0px" y="0px"
	 viewBox="0 0 500 500" style="enable-background:new 0 0 500 500;" xml:space="preserve">
<style type="text/css">
	.st0{opacity:0;fill-rule:evenodd;clip-rule:evenodd;fill:#F7E0AE;}
	.st1{fill-rule:evenodd;clip-rule:evenodd;fill:#E0CAB8;}
	.st2{fill-rule:evenodd;clip-rule:evenodd;fill:#D4775E;}
	.st3{fill-rule:evenodd;clip-rule:evenodd;fill:#BC5249;}
	.st4{fill-rule:evenodd;clip-rule:evenodd;fill:#1B143E;}
	.st5{fill-rule:evenodd;clip-rule:evenodd;fill:#9E4D3B;}
	.st6{fill-rule:evenodd;clip-rule:evenodd;fill:#722724;}
	.st7{fill-rule:evenodd;clip-rule:evenodd;fill:#9B5848;}
	.st8{fill-rule:evenodd;clip-rule:evenodd;fill:#EA9E8C;}
	.st9{fill-rule:evenodd;clip-rule:evenodd;fill:#E08D79;}
	.st10{fill-rule:evenodd;clip-rule:evenodd;fill:#01A84D;}
	.st11{fill-rule:evenodd;clip-rule:evenodd;fill:#FFFFFF;}
	.st12{fill-rule:evenodd;clip-rule:evenodd;fill:#5DAE7B;}
	.st13{fill-rule:evenodd;clip-rule:evenodd;fill:#3A5E64;}
	.st14{fill-rule:evenodd;clip-rule:evenodd;fill:#C1861F;}
	.st15{fill-rule:evenodd;clip-rule:evenodd;fill:#34365C;}
	.st16{fill-rule:evenodd;clip-rule:evenodd;fill:#EDF4F4;}
	.st17{fill-rule:evenodd;clip-rule:evenodd;fill:#CBECF4;}
	.st18{fill-rule:evenodd;clip-rule:evenodd;fill:none;}
</style>
<g id="BACKGROUND">
	<rect class="st0" width="500" height="500"/>
</g>
<g id="OBJECTS">
	<path class="st1" d="M71.6,326.1c77.7,149.9,312.4,102.9,362.2-45.8c37-110.3-55-199.7-174-194.8C122.8,91.1,13.1,199.2,71.6,326.1
		z"/>
	<g>
		<g>
			<path class="st2" d="M430,100.5c-11.6-13.8-18.1-9.6-24.7-18.5c-4.7-6.3-3.6-6.7-7.8-13.8c-3.8-3.2-8.8-1-9.6,9
				c-1.1,13.2,5.4,20.3,12.6,31.2c-4.5,1.3-18.9,2.6-19.5,3.2c-2.5,2.4-2.3,55.3,17.4,49.5c15.5-4.5,76-16.5,101.6-21.4V66.5
				l-25.8,13.1l-42.4,22C430.6,101.9,430.8,101.5,430,100.5z"/>
			<path class="st3" d="M397.5,104.1c1,1.4,1.9,2.8,2.9,4.3c-3.7,1-14.2,2.1-18.1,2.8c-0.6,0.3-1.1,0.6-1.7,0.9
				c-2.2,6.1-1.2,54.5,17.7,48.9c15.5-4.5,76-16.5,101.6-21.4v-13.1c-11.7,3.9-25.8,8-37.8,10.1c-25.7,4.5-38.1,9.1-49.8-2.4
				c-9-6.7-9.9-22.6-9.9-22.6l-5-7.6L397.5,104.1z"/>
			<path class="st2" d="M360,120.6c-0.3-2.3,1-6,6.1-9.3c9.4-6,26-11.2,29.1-8.2c4.8,4.7-3.2,12.5-3.2,12.5s5.3-0.7,10.3,3.2
				c5,3.9-8.6,15-8.6,15s8.1-2.1,10.5,3.7c2.3,5.9-7,12.6-7,12.6s11.9-2,10.2,4.6c-1.8,6.5-16,13.7-22.6,9.8c-6.6-4-1.5-9-1.5-9
				c-12.2,4-15.3-9.3-5.5-15.4c0,0-14.2,3-13-5c-0.7-6.6,7-9,7-9S360.9,127.1,360,120.6z"/>
			<path class="st4" d="M385.9,104.8c-0.6,0.2-1.3-0.2-1.4-0.8c-0.2-0.6,0.2-1.3,0.8-1.4c4.2-1.1,7.3-1.1,9.5-0.4
				c1.4,0.5,2.4,1.3,3,2.4c0.6,1.1,0.7,2.4,0.4,3.8c-0.4,1.8-1.5,3.8-3.3,6c3.3,0.1,5.7,0.8,7.4,2.1c1.4,1.1,2.3,2.4,2.6,4
				c0.3,1.5,0.1,3.2-0.6,4.8c-0.9,2.2-2.7,4.5-5.2,6.6c3.1,0,6.6,1,8.2,4.8l0,0c1.7,4.4-2.7,9.2-6,12.1c3.9,0,8.9,1,7.5,6.3
				c-0.2,0.7-0.5,1.5-0.9,2.2c-1.7,2.9-5.3,5.6-9.3,7.5c-4,1.8-8.5,2.7-11.9,1.8c-0.8-0.2-1.5-0.5-2.2-0.9c-0.6-0.3-0.7-1.1-0.4-1.6
				c0.3-0.6,1.1-0.7,1.6-0.4c0.5,0.3,1,0.5,1.6,0.7c2.9,0.8,6.8,0,10.3-1.6c3.6-1.6,6.8-4.1,8.2-6.5c0.3-0.5,0.6-1,0.7-1.6
				c1.2-4.5-7.7-3.3-8.7-3.1c-0.5,0.1-1-0.1-1.3-0.5c-0.4-0.5-0.2-1.3,0.3-1.6c0,0,10.3-6.7,8.3-11.6c-2.3-5.4-10.8-2.6-10.8-2.6
				l0,0c-0.5,0.2-1.1-0.1-1.4-0.6c-0.3-0.6-0.1-1.3,0.5-1.6c4.5-2.3,7.5-5.5,8.8-8.4c0.5-1.3,0.7-2.5,0.5-3.5
				c-0.2-1-0.7-1.9-1.6-2.5c-1.6-1.2-4.5-1.9-8.7-1.5c-0.3,0-0.7-0.1-0.9-0.4c-0.5-0.5-0.4-1.2,0-1.7c2.6-2.6,4.2-5,4.6-6.9
				c0.2-0.9,0.1-1.6-0.2-2.2c-0.3-0.6-0.8-1-1.7-1.3C392.3,103.8,389.6,103.9,385.9,104.8z"/>
			<path class="st4" d="M374.5,125.7c-0.6,0.2-1.3,0-1.5-0.6c-0.2-0.6,0-1.3,0.6-1.5c7.5-3.1,18.7-9.2,18.8-9.2
				c0.6-0.3,1.3-0.1,1.6,0.5c0.3,0.6,0.1,1.3-0.5,1.6C393.5,116.4,382.2,122.6,374.5,125.7z"/>
			<path class="st4" d="M380.2,140.6c-0.6,0.2-1.3-0.1-1.5-0.7c-0.2-0.6,0.1-1.3,0.7-1.5c7.3-2.5,16-7,16-7c0.6-0.3,1.3-0.1,1.6,0.5
				c0.3,0.6,0.1,1.3-0.5,1.6C396.4,133.5,387.6,138.1,380.2,140.6z"/>
			<path class="st4" d="M386.1,155.8c-0.6,0.2-1.3-0.1-1.5-0.7c-0.2-0.6,0.1-1.3,0.7-1.5c2.8-0.9,5.9-2.2,8.5-3.3
				c2.9-1.2,5.2-2.2,6-2.1l0.1,0c0.8,0.1,1.1,0.5,1.1,1.4c-0.1,0.6-0.6,1.1-1.3,1.1c-0.1,0-0.2,0-0.3-0.1c-0.6,0.2-2.5,0.9-4.7,1.9
				C392.1,153.5,388.9,154.8,386.1,155.8z"/>
			<path class="st4" d="M395.7,104.5c-0.4-0.5-0.3-1.2,0.2-1.7c0.5-0.4,1.3-0.3,1.7,0.2c1.4,1.7,3.1,4.3,4.4,6.6
				c1.4,2.3,2.4,4.5,2.5,5.2c0.2,6.3,2.7,12.4,6.7,16.9c3.9,4.4,9.1,7.4,14.9,7.8c0.6,0,1.1,0.6,1.1,1.3c0,0.6-0.6,1.1-1.3,1.1
				c-6.4-0.5-12.2-3.8-16.5-8.6c-4.3-5-7.1-11.5-7.3-18.4c0-0.4-0.9-2.1-2.1-4.1C398.7,108.6,397,106.2,395.7,104.5z"/>
			<path class="st4" d="M377.6,117.4c0.1,0.2-0.1,0.4-0.3,0.5c-0.2,0.1-0.4-0.1-0.5-0.3c-0.6-2.2-2.6-6.6-2.6-6.7
				c-0.1-0.2,0-0.4,0.2-0.5c0.2-0.1,0.4,0,0.5,0.2C375,110.6,377,115.2,377.6,117.4z"/>
			<path class="st4" d="M385.8,132.8c0.1,0.2-0.1,0.4-0.3,0.5c-0.2,0.1-0.4-0.1-0.5-0.3c-0.6-2.2-2.6-6.6-2.6-6.7
				c-0.1-0.2,0-0.4,0.2-0.5c0.2-0.1,0.4,0,0.5,0.2C383.2,126,385.2,130.6,385.8,132.8z"/>
			<path class="st4" d="M391.4,148.5c0.1,0.2-0.1,0.4-0.3,0.5c-0.2,0.1-0.4-0.1-0.5-0.3c-0.6-2.2-2.6-6.6-2.6-6.7
				c-0.1-0.2,0-0.4,0.2-0.5c0.2-0.1,0.4,0,0.5,0.2C388.8,141.7,390.8,146.3,391.4,148.5z"/>
			<path class="st4" d="M396.8,161c0,0.2-0.1,0.4-0.3,0.5c-0.2,0-0.4-0.1-0.5-0.3c-0.4-1.8-2.1-5.4-2.1-5.4c-0.1-0.2,0-0.4,0.2-0.5
				c0.2-0.1,0.4,0,0.5,0.2C394.7,155.5,396.3,159.1,396.8,161z"/>
			<path class="st4" d="M402,95.8c0.2-0.1,0.4,0,0.5,0.2c0.1,0.2,0,0.4-0.2,0.5c-3.7,1.4-5.3,3.5-5.4,3.5c-0.1,0.2-0.4,0.2-0.5,0.1
				c-0.2-0.1-0.2-0.4-0.1-0.5C396.3,99.5,398.1,97.3,402,95.8z"/>
			<path class="st4" d="M435.7,113.6c0.1,0.6-0.3,1.3-0.9,1.4c-0.6,0.1-1.3-0.3-1.4-0.9c-0.6-2.7-1.2-4.9-1.8-6.9
				c-0.6-2-1.4-3.7-2.4-5.4c-0.3-0.6-0.1-1.3,0.4-1.6c0.6-0.3,1.3-0.1,1.6,0.4c1.1,1.9,1.9,3.8,2.6,5.8
				C434.5,108.6,435.1,110.9,435.7,113.6z"/>
		</g>
		<polygon class="st4" points="425.9,154.5 500,133.8 500,143.3 		"/>
	</g>
	<g>
		<g>
			<path class="st5" d="M37.4,278.8c0.6-18,8.2-18.7,8-29.8c-0.2-7.8-1.3-7.5-2.4-15.7c1-4.9,6.3-6.3,13.1,1.1
				c9,9.7,8.3,19.2,9.4,32.3c4.3-1.8,16.4-9.7,17.3-9.6c3.4,0.3,36,42,16.9,49.7c-16.7,6.7-83.1,40.9-99.7,49.5v-68.5l36.7-7
				C37.8,280.3,37.4,280,37.4,278.8z"/>
			<path class="st6" d="M65.1,261.5c0.1,1.7,0.2,3.4,0.4,5.2c3.6-1.5,12.5-7.1,15.9-9c0.6-0.1,1.3-0.2,1.9-0.3
				c5.5,3.4,34.7,42,16.4,49.4c-16.7,6.7-83.1,40.9-99.7,49.5v-14.2c11.3-4.1,24.3-9.4,34.5-14.9c23-12.4,35.6-16.4,37.6-32.7
				c2.9-10.9-6.2-23.9-6.2-23.9l-0.8-9L65.1,261.5z"/>
			<path class="st7" d="M104.8,251.2c-1.2-2-4.5-4.1-10.6-3.5c-11.1,1.1-27.3,7.3-27.9,11.6c-0.9,6.7,10.2,7.8,10.2,7.8
				s-4.6,2.8-6.1,8.9c-1.5,6.2,16.1,6.4,16.1,6.4s-7.7,3.4-5.9,9.4c1.8,6,13.3,5.6,13.3,5.6s-10.6,5.8-5.2,9.9
				c5.4,4,21.1,0.9,23.8-6.3c2.7-7.2-4.4-8-4.4-8c12.1-4.4,6.3-16.8-5.2-15.5c0,0,13-6.4,7.1-12c-3.5-5.6-11.1-2.8-11.1-2.8
				S108.1,256.9,104.8,251.2z"/>
			<path class="st4" d="M73.7,252.8c0.6-0.3,1.3,0,1.5,0.6c0.3,0.6,0,1.3-0.6,1.5c-3.5,1.5-5.7,3.1-6.7,4.7c-0.5,0.7-0.6,1.4-0.5,2
				c0.1,0.6,0.5,1.2,1.2,1.8c1.5,1.2,4.2,2.2,7.9,2.6c0.6,0.1,1.1,0.6,1,1.3c0,0.4-0.2,0.7-0.5,0.9c-3.5,2.3-5.3,4.6-5.9,6.6
				c-0.3,1.1-0.2,2.1,0.3,3c0.5,0.9,1.4,1.8,2.6,2.4c2.8,1.6,7.1,2.1,12.1,1.2c0.6-0.1,1.3,0.3,1.4,0.9c0.1,0.6-0.2,1.2-0.8,1.3
				c-0.6,0.2-8.4,3.2-6.8,8.7c1.5,5.1,13.7,4,13.7,4c0.6-0.1,1.2,0.4,1.3,1.1c0,0.5-0.2,0.9-0.6,1.1c-0.6,0.4-8.8,5.1-5,7.9
				c0.4,0.3,0.9,0.6,1.5,0.8c2.7,1,6.7,1,10.5,0c3.8-0.9,7.3-2.7,9.1-5.1c0.4-0.5,0.6-1,0.8-1.5c0.2-0.6,0.9-0.9,1.5-0.7
				c0.6,0.2,0.9,0.9,0.7,1.5c-0.3,0.7-0.7,1.4-1.2,2.1c-2.1,2.9-6.2,4.9-10.4,6c-4.2,1-8.8,1.1-11.9-0.1c-0.8-0.3-1.5-0.7-2.1-1.1
				c-4.4-3.3-1.1-7.2,1.9-9.6c-4.3-0.2-10.8-1.2-12.2-5.7l0-0.1c-1.1-4,1.1-6.9,3.5-8.8c-3.2-0.1-6.1-0.8-8.2-1.9
				c-1.6-0.9-2.8-2-3.5-3.4c-0.7-1.4-0.9-3-0.5-4.7c0.5-2,2-4.1,4.5-6.2c-2.7-0.6-4.9-1.5-6.3-2.6c-1.1-0.9-1.8-2-2.1-3.2
				c-0.2-1.2,0-2.5,0.9-3.7C67.3,256.4,69.8,254.5,73.7,252.8L73.7,252.8z M77.7,293L77.7,293L77.7,293z"/>
			<path class="st4" d="M95.9,262c0.6-0.2,1.3,0.2,1.5,0.8c0.2,0.6-0.2,1.3-0.8,1.5c-8,2.3-20.7,4.4-20.7,4.4
				c-0.6,0.1-1.2-0.3-1.4-1c-0.1-0.6,0.3-1.2,1-1.4C75.5,266.4,88.1,264.3,95.9,262z"/>
			<path class="st4" d="M100.6,277.3c0.6-0.2,1.3,0.1,1.5,0.7c0.2,0.6-0.1,1.3-0.7,1.5c-7.5,2.6-17.2,4.5-17.2,4.5
				c-0.6,0.1-1.3-0.3-1.4-0.9c-0.1-0.6,0.3-1.3,0.9-1.4C83.7,281.7,93.3,279.8,100.6,277.3z"/>
			<path class="st4" d="M105.3,292.8c0.6-0.2,1.3,0.1,1.5,0.7c0.2,0.6-0.1,1.3-0.7,1.5c-2.8,1-6.1,1.9-8.8,2.7
				c-2.4,0.7-4.3,1.2-4.9,1.5c-0.1,0.1-0.1,0.2-0.2,0.2c-0.5,0.4-1.2,0.4-1.7,0c-0.6-0.6-0.5-1.2,0.1-1.8c0.6-0.6,3-1.2,6-2.1
				C99.3,294.7,102.5,293.8,105.3,292.8z"/>
			<path class="st4" d="M64.4,260.7c0-0.6,0.5-1.2,1.2-1.2c0.6,0,1.2,0.5,1.2,1.2c0,2.1,0.2,5.1,0.6,7.6c0.3,2.4,0.6,4.2,0.9,4.5
				c4.1,5.5,6,12.4,5.7,19c-0.3,6.5-2.8,12.7-7.6,17c-0.5,0.4-1.2,0.4-1.7-0.1c-0.4-0.5-0.4-1.2,0.1-1.7c4.3-3.9,6.5-9.5,6.8-15.4
				c0.3-6.1-1.4-12.4-5.2-17.5c-0.5-0.6-1-2.9-1.3-5.6C64.7,266,64.4,262.9,64.4,260.7z"/>
			<path class="st4" d="M89.7,259.3c0.1,0.2,0,0.4-0.2,0.5c-0.2,0.1-0.4,0-0.5-0.2c-0.9-2.1-2.1-6.9-2.1-7c-0.1-0.2,0.1-0.4,0.3-0.5
				c0.2-0.1,0.4,0.1,0.5,0.3C87.6,252.5,88.8,257.3,89.7,259.3z"/>
			<path class="st4" d="M92.8,276.5c0.1,0.2,0,0.4-0.2,0.5c-0.2,0.1-0.4,0-0.5-0.2c-0.9-2.1-2.1-6.9-2.1-7c-0.1-0.2,0.1-0.4,0.3-0.5
				c0.2-0.1,0.4,0.1,0.5,0.3C90.7,269.7,91.9,274.5,92.8,276.5z"/>
			<path class="st4" d="M98.2,292.3c0.1,0.2,0,0.4-0.2,0.5c-0.2,0.1-0.4,0-0.5-0.2c-0.9-2.1-2.1-6.9-2.1-7c-0.1-0.2,0.1-0.4,0.3-0.5
				c0.2-0.1,0.4,0.1,0.5,0.3C96.1,285.5,97.3,290.2,98.2,292.3z"/>
			<path class="st4" d="M101.6,305.4c0.1,0.2,0,0.4-0.2,0.5c-0.2,0.1-0.4,0-0.5-0.2c-0.8-1.7-1.7-5.6-1.7-5.6
				c-0.1-0.2,0.1-0.4,0.3-0.5c0.2-0.1,0.4,0.1,0.5,0.3C99.9,299.9,100.9,303.8,101.6,305.4z"/>
			<path class="st4" d="M56.7,258.5c-0.2,0.1-0.4,0-0.5-0.3c-0.1-0.2,0-0.4,0.3-0.5c3.9-1.3,6.7-0.6,6.7-0.6c0.2,0,0.4,0.2,0.3,0.5
				c0,0.2-0.2,0.4-0.5,0.3C63.1,257.9,60.5,257.3,56.7,258.5z"/>
			<path class="st4" d="M43.1,291.6c0.3,0.6,0,1.3-0.6,1.6c-0.6,0.3-1.3,0-1.6-0.6c-1.2-2.6-2.2-4.7-2.9-6.7c-0.8-2.1-1.3-4-1.6-6.2
				c-0.1-0.6,0.4-1.2,1-1.3c0.6-0.1,1.2,0.4,1.3,1c0.3,2,0.8,3.8,1.5,5.7C41,287.1,41.9,289.1,43.1,291.6z"/>
		</g>
		<polygon class="st4" points="80.3,315.6 0,345.6 0,357.1 		"/>
	</g>
	<g>
		<g>
			<path class="st8" d="M49.9,104.9c5.7-17.1,13.3-20.1,16.2-30.8c2.1-7.5,0.9-7.5,2.2-15.7c2.4-4.4,7.8-4.2,12.3,4.8
				c4.1,8.4,3.6,19.9,2,27.7c8.3-0.8,19-0.6,27,0.6c8,1.2,9.6,4.1,10.4,6.4c2.1,6.4-6.6,9.3-6.6,9.3s6.1-0.1,8.4,6.3
				c0.2,8.7-9,9-9,9c12.5,2.1,9.8,13.7,1.1,15.9c3.3,2.8,2.6,8.3-3.1,11C91,158.6,27.6,164.8,0,167.7v-66.1l48.6,5
				C49.8,106.4,49.5,106,49.9,104.9z"/>
			<path class="st4" d="M109.9,102c0,0.2-0.1,0.4-0.3,0.4c-0.2,0-0.4-0.1-0.4-0.3c-0.3-2.3,0-7.3,0-7.3c0-0.2,0.2-0.4,0.4-0.4
				c0.2,0,0.4,0.2,0.4,0.4C109.8,94.9,109.6,99.8,109.9,102z"/>
			<path class="st4" d="M109.9,118.4c0,0.2-0.1,0.4-0.3,0.4c-0.2,0-0.4-0.1-0.4-0.3c-0.3-2.3,0-7.3,0-7.3c0-0.2,0.2-0.4,0.4-0.4
				c0.2,0,0.4,0.2,0.4,0.4C109.8,111.3,109.6,116.2,109.9,118.4z"/>
			<path class="st4" d="M109.9,135.1c0,0.2-0.1,0.4-0.3,0.4c-0.2,0-0.4-0.1-0.4-0.3c-0.3-2.3,0-7.3,0-7.3c0-0.2,0.2-0.4,0.4-0.4
				c0.2,0,0.4,0.2,0.4,0.4C109.8,128,109.6,132.9,109.9,135.1z"/>
			<path class="st4" d="M109.9,147.4c0,0.2-0.1,0.4-0.3,0.4c-0.2,0-0.4-0.1-0.4-0.3c-0.3-1.9,0-5.9,0-5.9c0-0.2,0.2-0.4,0.4-0.4
				c0.2,0,0.4,0.2,0.4,0.4C109.8,141.7,109.6,145.6,109.9,147.4z"/>
			<path class="st4" d="M113.8,106.1c0.6-0.1,1.2,0.3,1.4,1c0.1,0.6-0.3,1.2-1,1.4c-3.6,0.6-12,0.4-12.1,0.4c-0.6,0-1.2-0.6-1.1-1.2
				c0-0.6,0.6-1.2,1.2-1.1C102.2,106.5,110.3,106.7,113.8,106.1z"/>
			<path class="st4" d="M114.4,121.9c0.6-0.1,1.2,0.3,1.4,1c0.1,0.6-0.3,1.3-1,1.4c-3.6,0.6-12,0.4-12.1,0.4c-0.6,0-1.2-0.6-1.1-1.2
				c0-0.6,0.6-1.2,1.2-1.1C102.8,122.3,111,122.5,114.4,121.9z"/>
			<path class="st4" d="M114.4,136.9c0.6-0.1,1.2,0.3,1.4,1c0.1,0.6-0.3,1.3-1,1.4c-3.6,0.6-12,0.4-12.1,0.4c-0.6,0-1.2-0.6-1.1-1.2
				c0-0.6,0.6-1.2,1.2-1.1C102.8,137.3,111,137.5,114.4,136.9z"/>
			<path class="st4" d="M85.1,89.5c0.6-0.1,1.2,0.3,1.4,1c0.1,0.6-0.3,1.2-1,1.4c-3.6,0.6-12,0.4-12.1,0.4c-0.6,0-1.2-0.6-1.1-1.2
				c0-0.6,0.6-1.2,1.2-1.1C73.5,89.9,81.7,90.1,85.1,89.5z"/>
			<path class="st4" d="M49.1,113.6c0,0.6-0.6,1.1-1.2,1.1c-0.6,0-1.1-0.6-1.1-1.2c0.2-3.8,1.9-8.2,1.9-8.2c0.2-0.6,0.9-0.9,1.5-0.7
				c0.6,0.2,0.9,0.9,0.7,1.5C50.9,106.1,49.3,110.2,49.1,113.6z"/>
		</g>
		<polygon class="st4" points="81.3,157.5 0,165 0,174.9 		"/>
	</g>
	<g>
		<g>
			<path class="st9" d="M454.7,278c-4.5-17.4-11.8-21.1-13.9-31.9c-1.5-7.7-0.4-7.6-1.1-15.8c-2.1-4.6-7.5-4.8-12.6,3.9
				c-4.7,8.1-5.1,19.6-4,27.5c-8.3-1.4-18.9-2-27-1.4c-8,0.6-9.9,3.4-10.8,5.6c-2.5,6.2,5.9,9.8,5.9,9.8s-6-0.6-8.8,5.6
				c-0.8,8.7,8.4,9.7,8.4,9.7c-12.6,1.2-10.8,13-2.3,15.8c-3.5,2.6-3.2,8.1,2.3,11.2c19.1,10.6,81.9,21.4,109.2,26.3v-65.8
				l-44.2,1.4C454.7,279.6,455,279.2,454.7,278z"/>
			<path class="st4" d="M395.8,271c0,0.2-0.2,0.4-0.5,0.3c-0.2,0-0.4-0.2-0.3-0.5c0.4-2.2,0.6-7.1,0.6-7.1c0-0.2,0.2-0.4,0.4-0.4
				c0.2,0,0.4,0.2,0.4,0.4C396.4,263.7,396.2,268.7,395.8,271z"/>
			<path class="st4" d="M394.6,287.3c0,0.2-0.2,0.4-0.5,0.3c-0.2,0-0.4-0.2-0.3-0.5c0.4-2.2,0.6-7.1,0.6-7.1c0-0.2,0.2-0.4,0.4-0.4
				c0.2,0,0.4,0.2,0.4,0.4C395.2,280.1,395,285.1,394.6,287.3z"/>
			<path class="st4" d="M393.4,303.9c0,0.2-0.2,0.4-0.5,0.3c-0.2,0-0.4-0.2-0.3-0.5c0.4-2.2,0.6-7.1,0.6-7.1c0-0.2,0.2-0.4,0.4-0.4
				c0.2,0,0.4,0.2,0.4,0.4C394,296.7,393.8,301.7,393.4,303.9z"/>
			<path class="st4" d="M392.5,316.3c0,0.2-0.3,0.3-0.5,0.3c-0.2,0-0.3-0.3-0.3-0.5c0.4-1.8,0.5-5.7,0.5-5.7c0-0.2,0.2-0.4,0.4-0.4
				c0.2,0,0.4,0.2,0.4,0.4C393,310.4,392.9,314.4,392.5,316.3z"/>
			<path class="st4" d="M390.3,276.9c-0.6-0.2-1-0.8-0.9-1.4c0.2-0.6,0.8-1,1.4-0.9c3.4,0.9,11.5,1.2,11.5,1.2
				c0.6,0,1.1,0.6,1.1,1.2c0,0.6-0.6,1.1-1.2,1.1C402.3,278.2,393.9,277.8,390.3,276.9z"/>
			<path class="st4" d="M388.5,292.6c-0.6-0.2-1-0.8-0.9-1.4c0.2-0.6,0.8-1,1.4-0.9c3.4,0.9,11.5,1.2,11.5,1.2
				c0.6,0,1.1,0.6,1.1,1.2c0,0.6-0.6,1.1-1.2,1.1C400.5,293.9,392.1,293.5,388.5,292.6z"/>
			<path class="st4" d="M387.4,307.5c-0.6-0.2-1-0.8-0.9-1.4c0.2-0.6,0.8-1,1.4-0.9c3.4,0.9,11.5,1.2,11.5,1.2
				c0.6,0,1.1,0.6,1.1,1.2c0,0.6-0.6,1.1-1.2,1.1C399.4,308.8,391,308.4,387.4,307.5z"/>
			<path class="st4" d="M420.1,262.4c-0.6-0.2-1-0.8-0.9-1.4c0.2-0.6,0.8-1,1.4-0.9c3.4,0.9,11.5,1.2,11.5,1.2
				c0.6,0,1.1,0.6,1.1,1.2c0,0.6-0.6,1.1-1.2,1.1C432,263.7,423.6,263.3,420.1,262.4z"/>
			<path class="st4" d="M457.1,286.8c0,0.6-0.5,1.2-1.2,1.2c-0.6,0-1.2-0.5-1.2-1.2c0.1-3.4-1.2-7.6-1.3-7.6
				c-0.2-0.6,0.2-1.3,0.8-1.5c0.6-0.2,1.3,0.2,1.5,0.8C455.8,278.5,457.2,283,457.1,286.8z"/>
		</g>
		<polygon class="st4" points="416.2,327.6 500,341.5 500,351.9 		"/>
	</g>
	<g>
		<g>
			<path class="st10" d="M206.6,271.5c-11.8-0.6-68.9,21.6-92.4,44.1c-23.4,22.6-38.8,58.3-33,108.5c5.8,50.3,30,66.5,30,66.5
				L127,500h218.7l8.2-3.7l34-1.1c0,0,29.7-53.6,26.3-119.8c-3.6-70.1-103.8-98.2-103.8-98.2S218.4,272,206.6,271.5z"/>
			<path class="st10" d="M92,464.4c8.8,19.1,19.3,26.1,19.3,26.1L127,500h218.7l8.2-3.7l7-0.2c-2.4-23-6.4-54.8-6.4-54.8
				s3.6-41.7,0.4-47c-3.2-5.3,0-60,0-60s-0.4,0-4.5,8.1c-4.1,8.1-10.9,59.6-10.9,59.6s-32.4,42.9-35.7,44.6
				c-3.2,1.6-90.7,2.4-93.2,2c-2.4-0.4-47-57.9-47-57.9s-7.7-26.3-15-46.2c0,0,1.2,38.5-2,40.1c-3.2,1.6-32.8,8.5-32.8,8.5
				l-19.4,22.7l26.7-5.3c0,0-0.4,0.8-10.9,13C103.3,431.4,96,450.8,92,464.4z"/>
			<path class="st4" d="M363.7,322.3c0.4-0.5,1.1-0.7,1.6-0.3c0.5,0.4,0.7,1.1,0.3,1.6c-1.5,2.2-3.2,4.3-5,6.5
				c-4,4.9-8.2,10.1-9.6,16.3c-1.7,7.6-2.8,18.7-3.2,29.9c-0.5,13-0.3,26.1,0.6,33.7c0.1,0.6-0.4,1.2-1,1.3c-0.6,0.1-1.2-0.4-1.3-1
				c-0.9-7.7-1.1-20.9-0.6-34c0.5-11.3,1.5-22.5,3.3-30.3c1.5-6.7,5.9-12.1,10-17.2C360.6,326.5,362.3,324.4,363.7,322.3z"/>
			<path class="st4" d="M134,322.5c-0.4-0.5-0.3-1.2,0.2-1.6c0.5-0.4,1.2-0.3,1.6,0.2c14.9,18,15.4,21.8,16.8,33.8
				c0.4,3.1,0.8,6.8,1.6,11.5c3.8,22.5,2,49.4,2,49.5c0,0.6-0.6,1.1-1.2,1.1c-0.6,0-1.1-0.6-1.1-1.2c0-0.1,1.8-26.7-2-48.9
				c-0.8-4.8-1.3-8.5-1.6-11.6C148.9,343.6,148.5,340.1,134,322.5z"/>
			<path class="st2" d="M217.8,227.3c0.1,7.6-0.4,14.8-0.4,21.7c0,3.2,0.9,7.8,0.6,9.7c-1.6,9.8-28.1,15.5-28.2,17.1
				c-0.9,12.9,43.9,41,61,37.8c27.9-0.8,62.3-32.8,60-36.7c-3-0.6-29.4-1.1-27.5-18.9c1.3-12.7,1.9-34,1.9-34
				S217.4,196.4,217.8,227.3z"/>
			<path class="st11" d="M199.4,271.9c-5,2-9.5,3.6-9.6,3.9c-0.9,12.9,43.9,41,61,37.8c27.9-0.8,62.3-32.8,60-36.7
				c-1.5-0.3-8.5-0.9-15.1-3.4c-7.8,11-25.5,26.1-43.1,27.5C233.8,302.6,213.8,293.6,199.4,271.9z"/>
			<path class="st12" d="M335.5,391.1c30.9-1.6,85.4,19.3,81.3,54c-0.9,7.8-20.9,28-20.9,28s-14.6-15.6-33.3-30.1
				c-18.7-14.5-43.4-17.2-43.4-17.2C318.5,427.5,294.7,415.6,335.5,391.1z"/>
			<path class="st13" d="M341,391.1c4.2,0.1,8.7,0.6,13.3,1.4c0.2,0.8,0.4,1.5,0.6,1.8c1.3,2.1,46.4,45.5,46.9,72.5
				c-3.1,3.4-5.6,5.9-5.9,6.3l-0.1,0c-1.2-1.3-15.4-16.1-33.3-30c-15.7-12.1-35.5-16-41.5-16.9c9.2-11.7,18.5-24.1,18.5-24.1
				S340.1,397.6,341,391.1z"/>
			<path class="st4" d="M187.4,277.5c-0.2-0.6,0.1-1.3,0.6-1.5c0.6-0.2,1.3,0.1,1.5,0.7c2.8,7.1,13.9,17.5,27.4,25.2
				c11,6.3,23.6,10.8,34.3,10.1c9.9-0.7,21-5.3,30.8-11.2c13.7-8.2,24.9-18.4,27-23c0.3-0.6,0.9-0.8,1.5-0.6
				c0.6,0.3,0.8,0.9,0.6,1.5c-2.2,4.9-13.8,15.7-27.9,24c-10.1,6-21.5,10.8-31.8,11.5c-11.2,0.7-24.2-3.9-35.6-10.4
				C201.9,295.9,190.4,285.1,187.4,277.5z"/>
			<path class="st4" d="M212.9,302.4c-0.5-0.4-0.5-1.1-0.1-1.6c0.4-0.5,1.1-0.5,1.6-0.1c29.2,26.1,46.2,46.5,46.2,46.6
				c0.4,0.5,0.3,1.2-0.1,1.6c-0.5,0.4-1.2,0.3-1.6-0.1C258.8,348.7,241.9,328.3,212.9,302.4z"/>
			<path class="st4" d="M250.9,336.9c-0.4,0.5-1.1,0.6-1.6,0.3c-0.5-0.4-0.6-1.1-0.3-1.6c5.3-7.4,32-34.2,32.1-34.3
				c0.4-0.4,1.2-0.4,1.6,0c0.4,0.4,0.5,1.2,0,1.6C282.8,303,256.2,329.7,250.9,336.9z"/>
			<path class="st4" d="M351.4,394.1c-0.6-0.1-1.1-0.6-1-1.2c0.1-0.6,0.6-1.1,1.2-1c11.3,1.1,24.6,3.9,36.9,10.6
				c12.3,6.7,23.5,17.4,30.3,34.2c0.2,0.6,0,1.3-0.6,1.5c-0.6,0.2-1.3,0-1.5-0.6c-6.6-16.2-17.4-26.5-29.3-33
				C375.4,397.9,362.4,395.1,351.4,394.1z"/>
			<path class="st14" d="M251.3,314.3c-9.5,0.6-20.2-2.6-30.2-7.5c12.1,11.2,21.7,21,28.4,28.1c4.4-5.8,18.3-20.1,26.2-28.1
				C267.7,310.8,259.2,313.8,251.3,314.3z"/>
			<path class="st12" d="M76.9,434.2c16.7-26.9,40.1-39.3,62.2-37.3c22.1,2,35.5,2.4,35.5,2.4l-1.1,30c-30.1,12.7-68.3,15-71.7,52.8
				C101.9,482.1,71,461.4,76.9,434.2z"/>
			<path class="st13" d="M101.4,407.6c12-8.3,25-11.9,37.7-10.7c14.6,1.3,25.4,1.9,31.1,2.2c1.3,1.7,2.7,3.5,4.3,5.5l-0.9,24.7
				c-30.1,12.7-68.3,15-71.7,52.8c0,0-5.8-3.9-11.9-10.5c3.2-12.8,12-38.6,20.2-48.1c10.5-12.2,10.9-13,10.9-13l-26.7,5.3
				L101.4,407.6z"/>
			<path class="st4" d="M90.6,414.6c0.5-0.4,1.2-0.3,1.6,0.1c0.4,0.5,0.3,1.2-0.1,1.6c-5.3,4.4-8.7,8.5-11,12.1
				c-2.2,3.5-3.3,6.5-4,8.7c-0.2,0.6-0.8,1-1.4,0.8c-0.6-0.2-1-0.8-0.8-1.4c0.7-2.3,1.9-5.5,4.2-9.3
				C81.5,423.5,85.1,419.2,90.6,414.6z"/>
			<g>
				<path class="st3" d="M222.7,463c15.9,9,49.6,26.5,83.4,37h78.7c5.1-3.8,9.2-8.9,11.9-15.8c3.2-8,4.8-16.4,2.7-21.8
					c-9.9-26.6-55.2-45.2-58.9-45.7c-5.3-0.7-135.8-12.2-135.8-12.2S178.6,437.9,222.7,463z"/>
				<path class="st4" d="M224.7,464.1c9.3,5.2,23.4,12.6,39.8,19.9c25.9-14.2,48.2-28.6,48.2-28.6s20.3,1.2,29.5-1.6
					c9.2-2.8,10-3,10-3l28.6,14.2c0,0-26.7-32.8-28.6-33.9c-1.9-1.1-112.7-5.3-117.2-4.9C232.4,426.4,220.9,446.7,224.7,464.1z"/>
				<path class="st3" d="M213.3,402.7C197.5,391,171,379.2,171,379.2l-57.4,4.5l-25.9,27.1c0,0,0.5,5.6,11,2.3s15.7-12.2,15.7-12.2
					l26.1,0.2l-22.3,6.3l-26.5,20.2c0,0,1,8.8,12.2,4.5c11.3-4.3,21.2-10.7,21.2-10.7l35.5,5.9C160.7,427.4,229.1,414.4,213.3,402.7
					z"/>
				<path class="st2" d="M121.8,425c-33.7,27.7-41.9,62-11.4,75h68.9c59.3-14.5,129-53.5,129-53.5c11.3-2.7,24.7,4.5,45.1-2
					c2.3,2.6,32.9,31.5,29.7,14.2c-0.4-2.3-2.9-4.5-2.9-5.8c0-2.6,9.2,9.2,13,0.8c0.7-1.6-2.3-5.2-5.4-11.7
					c-0.6-1.3,0.6-2.2,0.7-3.8c0.7-10.2-13.8-26.6-25-36.7c-15.7-14.2-22-11.6-44.6-9C261.2,399.2,166,388.8,121.8,425z"/>
				<path class="st4" d="M354.6,428c-0.5-0.4-0.6-1.1-0.2-1.6c0.4-0.5,1.1-0.6,1.6-0.2c4.6,3.7,27.5,29.2,27.6,29.3
					c0.4,0.5,0.4,1.2-0.1,1.6c-0.5,0.4-1.2,0.4-1.6-0.1C381.8,457,359.1,431.6,354.6,428z"/>
				<path class="st4" d="M362,416.7c-0.5-0.4-0.6-1.1-0.2-1.6c0.4-0.5,1.1-0.6,1.6-0.2c1.9,1.5,6.7,6.6,11.8,12
					c5.1,5.5,10.5,11.4,13.4,14.7c0.4,0.5,0.4,1.2-0.1,1.6c-0.5,0.4-1.2,0.4-1.6-0.1c-3-3.3-8.4-9.2-13.4-14.6
					C368.5,423.1,363.8,418.2,362,416.7z"/>
				<path class="st4" d="M121.8,425.8c-0.5,0.4-1.2,0.4-1.6,0c-0.4-0.5-0.4-1.2,0-1.6c0.3-0.3,0.6-0.6,1-1
					c6.5-6.5,24-23.9,93.8-27.1c0.6,0,1.2,0.5,1.2,1.1c0,0.6-0.5,1.2-1.1,1.2c-69,3.1-85.9,20.1-92.3,26.4
					C122.4,425.2,122.1,425.5,121.8,425.8z"/>
				<path class="st4" d="M181.7,499.4c-0.6,0.1-1.2-0.2-1.4-0.9c-0.1-0.6,0.2-1.2,0.9-1.4c8.8-2.1,20.8-5.9,32.8-10
					c21.6-7.4,43.1-15.9,46.3-17.2c26.2-11,50.2-25.2,50.3-25.2c0.2-0.1,0.5-0.2,0.7-0.1l0,0c0,0,11,1.4,20.4,1.2
					c9.4-0.2,21.1-3.1,21.1-3.1c0.4-0.1,0.8,0,1.1,0.3c0.1,0.1,23,22.9,27.5,21.3c4-1.4,0.2-8.8,0.2-8.8c-0.3-0.6-0.1-1.3,0.5-1.5
					c0.3-0.2,0.7-0.2,1,0c0,0,4.2,1.8,7.1,0.1c2.1-1.2,2.2-2.6,2.1-3.1l-6.5-9c-0.4-0.5-0.3-1.2,0.3-1.6c0.5-0.4,1.2-0.3,1.6,0.3
					l6.7,9.3c0.1,0.1,0.1,0.3,0.2,0.4c0,0,0.9,3.4-3.2,5.8c-2.2,1.3-4.8,1.1-6.7,0.7c1.1,3,2.1,8.1-2.4,9.7
					c-5.4,1.9-26.1-18.1-29.4-21.4c-2.6,0.6-12.6,2.8-21,3c-8.6,0.2-18.3-0.9-20.3-1.1c-3,1.7-25.7,14.8-50.2,25.2
					c-3.2,1.3-24.8,9.8-46.4,17.3C202.7,493.5,190.6,497.3,181.7,499.4z"/>
				<path class="st4" d="M92.7,414.8c-0.6-0.1-1.1-0.6-1-1.3c0.1-0.6,0.6-1.1,1.3-1c2.6,0.3,5.2-0.3,7.7-1.3
					c2.8-1.2,5.5-3.1,7.6-5.2c4.4-4.4,6.1-6.3,6.1-6.3c0.2-0.3,0.6-0.4,0.9-0.4l25.5,0.4c0.6,0,1.1,0.5,1.1,1.2
					c0,0.6-0.5,1.1-1.2,1.1l-25-0.4c-0.7,0.8-2.6,2.8-5.8,5.9c-2.3,2.3-5.2,4.4-8.4,5.7C98.7,414.6,95.7,415.2,92.7,414.8z"/>
				<path class="st4" d="M363.3,405c0-0.4,0.3-0.8,0.8-0.8c0.4,0,0.8,0.3,0.8,0.8c0,1.5-0.4,3-0.8,4.3c-0.6,1.7-1.5,3.1-2.2,3.4
					c-0.4,0.2-0.8,0.1-1-0.3c-0.2-0.4-0.1-0.8,0.3-1c0.4-0.2,1-1.2,1.5-2.6C363,407.7,363.3,406.3,363.3,405z"/>
				<path class="st4" d="M358.6,416.2c0.2-0.4,0.6-0.6,1-0.4c0.4,0.2,0.6,0.6,0.4,1c-0.6,1.3-1.5,2.7-2.4,3.9c-1,1.3-2,2.3-2.6,2.5
					c-0.4,0.2-0.8,0-1-0.4c-0.2-0.4,0-0.8,0.4-1c0.4-0.2,1.1-1,2-2C357.3,418.6,358.1,417.3,358.6,416.2z"/>
				<path class="st4" d="M352,431.1c0.2-0.4,0.7-0.4,1.1-0.2c0.4,0.2,0.4,0.7,0.2,1.1c-2.5,3.8-5.8,6-5.8,6
					c-0.4,0.2-0.8,0.1-1.1-0.2c-0.2-0.4-0.1-0.8,0.2-1.1C346.7,436.6,349.7,434.6,352,431.1z"/>
				<path class="st4" d="M141.2,384.6c0.1-0.4,0.4-0.7,0.9-0.7c0.4,0.1,0.7,0.4,0.7,0.9c-0.8,6,2.9,10.6,2.9,10.6
					c0.3,0.3,0.2,0.8-0.1,1.1c-0.3,0.3-0.8,0.2-1.1-0.1C144.4,396.3,140.4,391.2,141.2,384.6z"/>
			</g>
		</g>
		<g>
			<g>
				<g>
					<path class="st2" d="M182.7,178.8c-8.8,4.9-6.6,15.6-3,26.6c3.7,10.9,10.9,17.4,18.9,14c7.9-3.4,11.4-15,7.7-25.9
						C202.6,182.5,190.3,174.6,182.7,178.8z"/>
					<path class="st2" d="M317.8,180.3c8.3,5.8,5.2,16.3,0.6,26.8c-4.6,10.5-12.4,16.1-20,11.9c-7.6-4.2-10-16.2-5.4-26.6
						C297.7,181.8,310.7,175.2,317.8,180.3z"/>
					<path class="st4" d="M217.8,259.8c20.9,16.9,45.9,15.2,65.6,3c1.3-12.7,2-33.1,2-33.1s-69.3-27.7-68.8,3.3
						C216.8,244.5,217.8,253.1,217.8,259.8z"/>
					<path class="st2" d="M197.4,148.6c1.2,32.4,2.2,76.3,4,83.6c1.8,7.2,23.4,28.5,46.9,28.3c10.8-0.1,28-5.3,36.6-11.1
						c17.4-11.8,13.8-25.4,13.8-25.4l6.1-76c0,0-22.3-27.1-48.7-29.8C229.8,115.5,196.2,116.2,197.4,148.6z"/>
					<path class="st3" d="M200.2,174.1c0,1.2-0.2,2.6-0.3,4.1c-0.8,8.2-2,21.1,11.5,23.2c2.8,0.4,5.4,0.7,7.8,0.9
						c6.5,0.4,11.6-0.1,15.2-1.6c3.1-1.3,5-3.4,5.5-6.3c0-0.2,0.1-0.5,0.1-0.9c0.5-7.3,0.3-15.8,0.2-19.6c-7.9-1-37.3-4.6-39.8-1.6
						c0,0.1,0.1,0.2,0.1,0.3C200.6,173.1,200.5,173.6,200.2,174.1L200.2,174.1z M198.1,169.7c9.6-4.9,44.4-0.1,44.7-0.1
						c1.1,0.1,1.9,1,2,2.2c0,0,0.1,2.4,0.2,5.9c0.4-0.2,0.7-0.4,1.1-0.5c2.3-1,4.7-1.1,6.9-0.7c1.5,0.3,2.9,0.8,4.1,1.5
						c0.1-3.6,0.2-6.1,0.2-6.1c0-1.1,0.9-2,2-2.2c0.3,0,33.6-4.6,44-0.2l-1,11.9c-0.1-1.1-0.2-2.1-0.3-3.1c-0.1-1.5-0.3-2.8-0.3-4
						c-0.3-0.5-0.4-1-0.3-1.6c0-0.1,0-0.2,0.1-0.4c-2.8-2.9-31.9,0.7-39.7,1.7c-0.1,3.7-0.3,12.2,0.2,19.6c0,0.3,0.1,0.6,0.1,0.9
						c0.5,2.9,2.3,5,5.5,6.3c3.6,1.5,8.7,2,15.2,1.6c2.5-0.2,5.1-0.5,7.8-0.9c6.3-1,9.4-4.3,10.8-8.5l-0.8,9.3
						c-2.3,1.7-5.3,3-9.4,3.7c-3,0.5-5.7,0.8-8.2,1c-7.2,0.5-13-0.1-17.2-1.9c-4.7-2-7.5-5.2-8.2-9.9c-0.1-0.4-0.1-0.9-0.1-1.3
						c-0.2-3.1-0.3-6.4-0.3-9.5c0-0.1-0.1-0.1-0.1-0.2c-0.2-0.5-0.6-1.1-1.2-1.6c-0.9-0.8-2.2-1.4-3.6-1.6c-1.4-0.3-2.9-0.2-4.4,0.4
						c-1,0.4-1.9,1-2.8,2c0,3.4-0.1,7.1-0.3,10.5c0,0.4-0.1,0.8-0.1,1.3c-0.7,4.6-3.6,7.9-8.2,9.9c-4.2,1.8-10,2.4-17.2,1.9
						c-2.5-0.2-5.3-0.5-8.2-1c-5.5-0.9-9.2-3-11.6-5.8C198.8,190.7,198.4,180.1,198.1,169.7z"/>
					<path class="st3" d="M205.1,162.5c9.1-8.7,11.7-16,11.7-16s21.5,7.1,30.6,8.1c9.1,1,9.1,1,9.1,1l-2.4-8.5l18.4,9.9l-1.4-7.1
						c0,0,15.4,2.2,21.3,8.9c5.9,6.7-0.4-21.1-7.3-24.3c-6.9-3.2-43.1-21.5-61-13c-17.8,8.5-21.1,9.1-22.3,15.8
						C200.6,144.1,205.1,162.5,205.1,162.5z"/>
					<path class="st3" d="M302.7,213c4.1-0.6,12.1-9.1,12.7-17c0.6-7.9-2.7-7.7-5.3-7c-2.5,0.7-7.1,7.2-8.8,10.5
						c-1.7,3.3-1.6,3.6-0.3,4.3c1.3,0.6,3.3,1.5,3.4,3.2C304.5,208.7,302.7,213,302.7,213z"/>
					<path class="st4" d="M315.2,199.9c-0.2,0.6-0.8,1-1.4,0.8c-0.6-0.2-1-0.8-0.8-1.4c0.7-2.8,1-5.3,0.7-7.1
						c-0.1-0.8-0.4-1.5-0.8-1.9c-0.3-0.3-0.7-0.5-1.3-0.4c-0.8,0-1.7,0.4-2.9,1.1c-3.2,2-6,9.1-7,11.9c0.6,0.2,1.4,0.6,2.4,1.1
						c4.8,2.7-0.6,8.9-0.6,8.9c-0.4,0.5-1.1,0.5-1.6,0.1c-0.5-0.4-0.5-1.1-0.1-1.6c0,0,3.6-4.1,1.3-5.4c-2.2-1.2-2.2-1.4-2.2-1.4
						c-0.3,0.1-0.6,0.2-0.9,0.1c-0.6-0.2-0.9-0.8-0.7-1.4c0,0,3.6-11.3,8.3-14.2c1.5-0.9,2.8-1.4,3.9-1.4h0c1.3-0.1,2.3,0.3,3.1,1.1
						c0.7,0.7,1.2,1.8,1.4,3.1C316.3,193.9,316.1,196.7,315.2,199.9z"/>
					<path class="st4" d="M199.4,123.1c-13.9,3-16,19.9-16,19.9l8.9,0.3c0,0-9-1.2-5.2,16.8c3.8,18,10.3,44.5,10.3,44.5
						s-0.2-22.8,6-33.4c6.2-10.6,12-14.4,10.6-23.6c-1.4-9.2,0.7-10.7,0.7-10.7s10.9,9.7,26.1,12.5c15.2,2.8,12.1,3,12.1,3l-6.8-15
						l22.7,15.4l-3.4-10.3c0,0,14.6,4.7,20.5,9.7c6,5,3.2,9.6,9.8,18.8c6.5,9.2,4.1,30.7,4.1,30.7s13.9-18.7,13.4-37.9
						c-0.5-19.3-5.3-33-5.3-33l7.9-4.3c0,0-5.9-17.1-30.9-23.6c-4.6-1.2-10.9-1.8-12.9-2c-0.4-0.5,10.9-10.6,11.9-11.6
						c0,0-36.6-5.5-53.3,5.2c-16.7,10.7-19.8,22.5-19.8,22.5l3.2-17.5c-5.8,5.7-9.5,12-10.4,19.3c-3.4-3.2-10.2-3.6-15.6-0.5
						C193.8,118.6,200.3,122.9,199.4,123.1z"/>
					<path class="st3" d="M194.8,212.7c-4-1-11.2-10.1-11.1-18c0.1-7.9,3.4-7.4,5.9-6.5c2.5,0.9,6.4,7.8,7.9,11.3s1.3,3.8-0.1,4.3
						c-1.4,0.5-3.5,1.2-3.7,2.9C193.3,208.3,194.8,212.7,194.8,212.7z"/>
					<path class="st4" d="M185.7,198.2c0.1,0.6-0.3,1.2-0.9,1.3c-0.6,0.1-1.2-0.3-1.3-0.9c-0.6-3.2-0.6-6,0-8.1
						c0.3-1.3,0.9-2.3,1.7-2.9c0.8-0.7,1.9-1.1,3.2-0.9l0,0c1.1,0.2,2.4,0.7,3.8,1.8c4.4,3.3,7.1,14.8,7.1,14.8
						c0.1,0.6-0.2,1.2-0.9,1.4c-0.3,0.1-0.5,0-0.8-0.1c0,0-0.2,0.1-2.4,1.2c-2.4,1.1,0.8,5.5,0.8,5.5c0.4,0.5,0.2,1.2-0.3,1.6
						c-0.5,0.4-1.2,0.2-1.6-0.3c0,0-4.9-6.7,0.1-9c1-0.5,1.8-0.8,2.5-0.9c-0.7-2.8-2.9-10.2-5.9-12.4c-1.1-0.8-2-1.2-2.7-1.3l0,0
						c-0.6-0.1-1,0-1.3,0.3c-0.4,0.4-0.7,1-0.9,1.8C185.1,192.9,185.2,195.3,185.7,198.2z"/>
					<path class="st15" d="M218.4,104.4c-2.6,2.9-4.4,5.5-5.5,7.6l-0.6,1.8c0,0,4,2.2,10.8,4.8c1.5,0.6,3.1,1.1,4.9,1.7
						c9.6,3.2,23,6.3,38,5.9c0.8,0,1.5,0,2.3-0.1c3.2-0.1,6.4-0.4,9.4-0.6c14.9-1.4,26.7-4.2,33.9-6.3c-2.7-3.5-7-7.8-13.6-11.4
						c-9.1,3.6-24.9,8.4-42.2,7C235.4,113.1,223.3,107.3,218.4,104.4z"/>
				</g>
				<path class="st3" d="M268.1,198.3c-0.4-4.3,5.2-8.3,12.5-8.9c7.3-0.7,13.5,2.3,13.9,6.5c0.4,4.3-5.2,8.3-12.5,8.9
					C274.7,205.5,268.5,202.5,268.1,198.3z"/>
				<path class="st3" d="M205.6,194.7c0.4-4.3,6.7-7.1,14-6.4c7.3,0.7,12.8,4.8,12.4,9c-0.4,4.3-6.7,7.1-13.9,6.4
					C210.7,203,205.1,198.9,205.6,194.7z"/>
			</g>
			<g>
				<path class="st4" d="M265.8,157.4c-2.2,3.6-2,6.6,4.1,6.9c6.1,0.3,8.2-1.9,7.3-3.4C274.5,155.8,267.4,155,265.8,157.4z"/>
				<path class="st4" d="M232.3,158.7c2.3,3.5,2.1,6.6-4,7c-6.1,0.4-8.2-1.7-7.4-3.3C223.6,157.2,230.7,156.3,232.3,158.7z"/>
				<g>
					<path class="st15" d="M200.2,169.7c0.1,1.5-0.1,3.3-0.3,5.4c-0.8,8.2-2,21.1,11.5,23.2c2.8,0.4,5.4,0.7,7.8,0.9
						c6.5,0.4,11.6-0.1,15.2-1.6c3.1-1.3,5-3.4,5.5-6.3c0-0.2,0.1-0.5,0.1-0.9c0.5-7.3,0.3-15.8,0.2-19.6
						C232,169.8,200.1,165.9,200.2,169.7L200.2,169.7z M195.4,174.7c0.2-1.9,0.3-3.6,0.3-4.8c-0.4-9.9,46.7-3.4,47.1-3.3
						c1.1,0.1,1.9,1,2,2.2c0,0,0.5,12.1-0.2,22c0,0.4-0.1,0.8-0.1,1.3c-0.7,4.6-3.6,7.9-8.2,9.9c-4.2,1.8-10,2.4-17.2,1.9
						c-2.5-0.2-5.3-0.5-8.2-1C193,200.1,194.4,184.6,195.4,174.7z"/>
					<path class="st15" d="M306.2,169.9c0,1.2,0.1,2.8,0.3,4.8c0.9,9.8,2.4,25.3-15.4,28.1c-3,0.5-5.7,0.8-8.2,1
						c-7.2,0.5-13-0.1-17.2-1.9c-4.7-2-7.5-5.2-8.2-9.9c-0.1-0.4-0.1-0.9-0.1-1.3c-0.7-9.9-0.2-22-0.2-22c0-1.1,0.9-2,2-2.2
						C259.4,166.5,306.6,160.1,306.2,169.9L306.2,169.9z M301.9,175.1c-0.2-2.1-0.4-4-0.3-5.4c0.2-3.8-31.7,0.1-40,1.1
						c-0.1,3.7-0.3,12.2,0.2,19.6c0,0.3,0.1,0.6,0.1,0.9c0.5,2.9,2.3,5,5.5,6.3c3.6,1.5,8.7,2,15.2,1.6c2.5-0.2,5.1-0.5,7.8-0.9
						C303.9,196.2,302.7,183.3,301.9,175.1z"/>
					<path class="st15" d="M244.5,180.8c-0.8,1-2.3,1.1-3.2,0.3c-1-0.8-1.1-2.3-0.3-3.2c1.5-1.8,3.2-3,5-3.7c2.3-1,4.7-1.1,6.9-0.7
						c2.2,0.4,4.2,1.4,5.7,2.7c1.1,1,2,2.1,2.5,3.3c0.5,1.2-0.1,2.5-1.2,3c-1.2,0.5-2.5-0.1-3-1.2c-0.2-0.5-0.6-1.1-1.2-1.6
						c-0.9-0.8-2.2-1.4-3.6-1.6c-1.4-0.3-2.9-0.2-4.4,0.4C246.6,178.8,245.5,179.6,244.5,180.8z"/>
					<path class="st15" d="M303.2,172.2c-1.2-0.2-2.1-1.4-1.9-2.6c0.2-1.2,1.4-2.1,2.6-1.9c1.8,0.3,3.5,1.4,5,2.9
						c2,1.9,3.7,4.5,4.7,6c0.7,1.1,0.4,2.5-0.7,3.2c-1.1,0.7-2.5,0.4-3.2-0.7c-0.8-1.3-2.3-3.5-4-5.1
						C304.8,173,303.9,172.3,303.2,172.2z"/>
					<path class="st15" d="M197.8,167.7c1.2-0.2,2.4,0.6,2.6,1.9c0.2,1.2-0.6,2.4-1.9,2.6c-0.7,0.1-1.6,0.8-2.5,1.7
						c-1.7,1.6-3.1,3.8-4,5.1c-0.7,1.1-2.1,1.4-3.2,0.7c-1.1-0.7-1.4-2.1-0.7-3.2c1-1.5,2.7-4.1,4.7-6
						C194.4,169.1,196.1,168,197.8,167.7z"/>
				</g>
				<path class="st3" d="M243.8,225.5c5-0.2,14.2-0.4,14.2-0.4s0.6,5.6-7.7,5.3c-3.2-0.1-5-0.3-6.5-1.5
					C242.3,227.7,241.3,225.6,243.8,225.5z"/>
				<path class="st4" d="M267.4,180.2c0,0.6-0.5,1.1-1.1,1.2c-0.6,0-1.1-0.5-1.2-1.1c0-2.3,0.6-4.5,1.5-6c1.1-1.7,2.6-2.8,4.4-2.8h0
					c0,0,0.1,0,0.1,0c1.7,0,3.2,1.1,4.3,2.7c1,1.5,1.6,3.7,1.6,6v0c0,0.6-0.5,1.2-1.1,1.2c-0.6,0-1.1-0.5-1.2-1.1v0
					c0-1.9-0.5-3.6-1.3-4.8c-0.7-1-1.5-1.6-2.4-1.7l-0.1,0v0c-0.9,0-1.8,0.7-2.4,1.7C267.8,176.6,267.4,178.3,267.4,180.2z"/>
				<path class="st4" d="M260,208.1c-0.1-0.6,0.4-1.2,1-1.2c0.6-0.1,1.2,0.4,1.2,1c0.3,2.8-1,5.5-3.2,7.5c-2.1,2-5.2,3.3-8.7,3.7
					l-0.1,0c-3.4,0.3-6.7-0.5-9.1-2c-2.5-1.6-4.2-4-4.5-6.8l0,0c-0.1-0.6,0.4-1.2,1-1.2c0.6-0.1,1.2,0.4,1.2,1l0,0
					c0.2,2.1,1.5,3.9,3.4,5.1c2,1.3,4.7,1.9,7.7,1.7l0.1,0c2.9-0.3,5.5-1.4,7.3-3.1C259.2,212.2,260.2,210.2,260,208.1z"/>
				<path class="st4" d="M222.9,182.1c0,0.6-0.5,1.1-1.1,1.2c-0.6,0-1.1-0.5-1.2-1.1c0-2.3,0.6-4.5,1.5-6c1.1-1.7,2.6-2.8,4.4-2.8h0
					v0l0.1,0c1.7,0,3.2,1.1,4.3,2.7c1,1.5,1.6,3.6,1.6,6v0c0,0.6-0.5,1.1-1.1,1.1c-0.6,0-1.1-0.5-1.1-1.1l0,0c0-1.9-0.5-3.6-1.3-4.8
					c-0.7-1-1.5-1.6-2.4-1.7l-0.1,0v0c-0.9,0-1.8,0.7-2.4,1.7C223.4,178.5,222.9,180.2,222.9,182.1z"/>
				<path class="st4" d="M243.5,195.7c5-0.2,14.2-0.4,14.2-0.4s0.6,5.6-7.7,5.3c-3.2-0.1-5-0.3-6.5-1.5
					C242.1,197.9,241,195.8,243.5,195.7z"/>
				<path class="st11" d="M248.2,185.6c1,0,1.4,1.5,0.8,3.4c-0.5,1.9-1.8,3.4-2.8,3.4c-1,0-1.4-1.5-0.8-3.4
					C246,187.2,247.2,185.6,248.2,185.6z"/>
			</g>
		</g>
	</g>
	<g>
		<path class="st11" d="M121.5,177.2c3.7,14.8,0.9,11.9,15.6,15.6c-14.8,3.7-11.9,0.9-15.6,15.6c-3.7-14.8-0.9-11.9-15.6-15.6
			C120.6,189.1,117.8,191.9,121.5,177.2z"/>
		<path class="st11" d="M384.8,183c3.7,14.8,0.9,11.9,15.6,15.6c-14.8,3.7-11.9,0.9-15.6,15.6c-3.7-14.8-0.9-11.9-15.6-15.6
			C383.9,194.9,381.1,197.7,384.8,183z"/>
		<path class="st11" d="M337.1,109.1c2.6,10.5,0.6,8.5,11.2,11.2c-10.5,2.6-8.5,0.6-11.2,11.2c-2.6-10.5-0.6-8.5-11.2-11.2
			C336.5,117.6,334.5,119.6,337.1,109.1z"/>
		<path class="st11" d="M360.8,178.4c2.6,10.5,0.6,8.5,11.2,11.2c-10.5,2.6-8.5,0.6-11.2,11.2c-2.6-10.5-0.6-8.5-11.2-11.2
			C360.1,186.9,358.1,189,360.8,178.4z"/>
		<path class="st11" d="M349.1,230.3c2.6,10.5,0.6,8.5,11.2,11.2c-10.5,2.6-8.5,0.6-11.2,11.2c-2.6-10.5-0.6-8.5-11.2-11.2
			C348.5,238.8,346.5,240.9,349.1,230.3z"/>
		<path class="st11" d="M150.6,135.6c2.6,10.5,0.6,8.5,11.2,11.2c-10.5,2.6-8.5,0.6-11.2,11.2c-2.6-10.5-0.6-8.5-11.2-11.2
			C150,144.2,148,146.2,150.6,135.6z"/>
		<path class="st11" d="M152.3,230.3c2.6,10.5,0.6,8.5,11.2,11.2c-10.5,2.6-8.5,0.6-11.2,11.2c-2.6-10.5-0.6-8.5-11.2-11.2
			C151.7,238.8,149.7,240.9,152.3,230.3z"/>
	</g>
	<g>
		<path class="st16" d="M325.1,43.7c-2.1,20.2-55.5,21.7-97.4,31.7c-15.5,3.7-29.5,8.2-42,12c-4.9,11.8,13,19.9,6,19.1
			c-6.8-0.8-24.1-5-31.8-12.6c-16.5,2.7-29.3,0.2-38.4-14.1C96.8,41.1,222.1,5.3,292.1,13.4C331,17.9,326.3,32.5,325.1,43.7z"/>
		<g>
		</g>
		<path class="st17" d="M236.6,28.5c-32.9-0.6-46.9,2.9-78.5,11.4c24.9-16.7,49.2-20.4,78.5-21.8c2.9,0,5.2,2.3,5.2,5.2
			C241.8,26.2,239.5,28.5,236.6,28.5z"/>
	</g>
</g>
<g id="TEXTS">
	<path id="SVGID_x5F_1_x5F_" class="st18" d="M122.4,87.7c1.4-2.1,50.1-26.1,103.6-30"/>
	<text>	<textPath  xlink:href="#SVGID_x5F_1_x5F_" startOffset="24.805%">
<tspan  style="fill:#1B143E; font-family:'MouseMemoirs-Regular'; font-size:27.1821px;">Thanks</tspan>	</textPath>
</text>
	<path id="SVGID_x5F_2_x5F_" class="st18" d="M205.8,64.7c2-1.9,56.8-14.5,110.8-4.5"/>
	<text>	<textPath  xlink:href="#SVGID_x5F_2_x5F_" startOffset="24.805%">
<tspan  style="fill:#1B143E; font-family:'MouseMemoirs-Regular'; font-size:29.7732px;">Careers</tspan>	</textPath>
</text>
</g>
</svg>
