<svg width="55" height="56" viewBox="0 0 55 56" fill="none" xmlns="http://www.w3.org/2000/svg">
<path d="M36.0016 29.8884C38.2484 28.1207 39.8883 25.6967 40.6932 22.9537C41.4982 20.2106 41.4281 17.2848 40.4928 14.5834C39.5575 11.882 37.8035 9.53927 35.4747 7.88117C33.146 6.22307 30.3583 5.33203 27.4996 5.33203C24.6408 5.33203 21.8532 6.22307 19.5244 7.88117C17.1956 9.53927 15.4416 11.882 14.5063 14.5834C13.571 17.2848 13.5009 20.2106 14.3059 22.9537C15.1108 25.6967 16.7508 28.1207 18.9975 29.8884C15.1477 31.4308 11.7886 33.989 9.27828 37.2903C6.768 40.5916 5.20065 44.5122 4.74332 48.6342C4.71021 48.9352 4.73671 49.2397 4.82129 49.5304C4.90587 49.8211 5.04689 50.0923 5.23628 50.3285C5.61878 50.8055 6.17511 51.1111 6.7829 51.178C7.39069 51.2448 8.00014 51.0675 8.47719 50.685C8.95423 50.3025 9.25979 49.7462 9.32665 49.1384C9.82986 44.6586 11.9659 40.5213 15.3267 37.5169C18.6875 34.5124 23.0375 32.8516 27.5454 32.8516C32.0533 32.8516 36.4033 34.5124 39.7641 37.5169C43.1249 40.5213 45.2609 44.6586 45.7641 49.1384C45.8265 49.7015 46.0951 50.2215 46.5184 50.5982C46.9416 50.9749 47.4893 51.1814 48.0558 51.178H48.3079C48.9086 51.1088 49.4577 50.8051 49.8354 50.3329C50.2132 49.8607 50.389 49.2584 50.3246 48.6571C49.8651 44.5234 48.2893 40.5927 45.7661 37.2863C43.2429 33.98 39.8675 31.4226 36.0016 29.8884ZM27.4996 28.2613C25.6866 28.2613 23.9143 27.7237 22.4068 26.7164C20.8994 25.7092 19.7245 24.2775 19.0307 22.6026C18.3369 20.9276 18.1553 19.0845 18.509 17.3063C18.8627 15.5281 19.7358 13.8948 21.0178 12.6128C22.2997 11.3308 23.9331 10.4578 25.7112 10.1041C27.4894 9.7504 29.3325 9.93193 31.0075 10.6257C32.6825 11.3195 34.1141 12.4944 35.1214 14.0019C36.1286 15.5093 36.6662 17.2816 36.6662 19.0946C36.6662 21.5258 35.7005 23.8574 33.9814 25.5764C32.2623 27.2955 29.9307 28.2613 27.4996 28.2613Z" fill="white"/>
</svg>
