<svg width="20" height="19" viewBox="0 0 20 19" fill="none" xmlns="http://www.w3.org/2000/svg">
<path d="M11.5107 6.10632H12.2661C12.4664 6.10632 12.6585 6.02675 12.8001 5.8851C12.9418 5.74345 13.0214 5.55133 13.0214 5.35101C13.0214 5.15069 12.9418 4.95858 12.8001 4.81693C12.6585 4.67528 12.4664 4.5957 12.2661 4.5957H11.5107C11.3104 4.5957 11.1183 4.67528 10.9767 4.81693C10.835 4.95858 10.7554 5.15069 10.7554 5.35101C10.7554 5.55133 10.835 5.74345 10.9767 5.8851C11.1183 6.02675 11.3104 6.10632 11.5107 6.10632V6.10632ZM11.5107 9.12756H12.2661C12.4664 9.12756 12.6585 9.04799 12.8001 8.90634C12.9418 8.76469 13.0214 8.57257 13.0214 8.37225C13.0214 8.17193 12.9418 7.97982 12.8001 7.83817C12.6585 7.69652 12.4664 7.61694 12.2661 7.61694H11.5107C11.3104 7.61694 11.1183 7.69652 10.9767 7.83817C10.835 7.97982 10.7554 8.17193 10.7554 8.37225C10.7554 8.57257 10.835 8.76469 10.9767 8.90634C11.1183 9.04799 11.3104 9.12756 11.5107 9.12756V9.12756ZM7.73419 6.10632H8.4895C8.68982 6.10632 8.88194 6.02675 9.02359 5.8851C9.16523 5.74345 9.24481 5.55133 9.24481 5.35101C9.24481 5.15069 9.16523 4.95858 9.02359 4.81693C8.88194 4.67528 8.68982 4.5957 8.4895 4.5957H7.73419C7.53387 4.5957 7.34175 4.67528 7.20011 4.81693C7.05846 4.95858 6.97888 5.15069 6.97888 5.35101C6.97888 5.55133 7.05846 5.74345 7.20011 5.8851C7.34175 6.02675 7.53387 6.10632 7.73419 6.10632V6.10632ZM7.73419 9.12756H8.4895C8.68982 9.12756 8.88194 9.04799 9.02359 8.90634C9.16523 8.76469 9.24481 8.57257 9.24481 8.37225C9.24481 8.17193 9.16523 7.97982 9.02359 7.83817C8.88194 7.69652 8.68982 7.61694 8.4895 7.61694H7.73419C7.53387 7.61694 7.34175 7.69652 7.20011 7.83817C7.05846 7.97982 6.97888 8.17193 6.97888 8.37225C6.97888 8.57257 7.05846 8.76469 7.20011 8.90634C7.34175 9.04799 7.53387 9.12756 7.73419 9.12756V9.12756ZM16.7979 15.17H16.0426V2.32977C16.0426 2.12945 15.963 1.93734 15.8214 1.79569C15.6797 1.65404 15.4876 1.57446 15.2873 1.57446H4.71295C4.51263 1.57446 4.32051 1.65404 4.17887 1.79569C4.03722 1.93734 3.95764 2.12945 3.95764 2.32977V15.17H3.20233C3.00201 15.17 2.80989 15.2496 2.66825 15.3913C2.5266 15.5329 2.44702 15.725 2.44702 15.9254C2.44702 16.1257 2.5266 16.3178 2.66825 16.4594C2.80989 16.6011 3.00201 16.6807 3.20233 16.6807H16.7979C16.9982 16.6807 17.1903 16.6011 17.332 16.4594C17.4736 16.3178 17.5532 16.1257 17.5532 15.9254C17.5532 15.725 17.4736 15.5329 17.332 15.3913C17.1903 15.2496 16.9982 15.17 16.7979 15.17ZM10.7554 15.17H9.24481V12.1488H10.7554V15.17ZM14.532 15.17H12.2661V11.3935C12.2661 11.1932 12.1865 11.0011 12.0448 10.8594C11.9032 10.7178 11.7111 10.6382 11.5107 10.6382H8.4895C8.28918 10.6382 8.09706 10.7178 7.95542 10.8594C7.81377 11.0011 7.73419 11.1932 7.73419 11.3935V15.17H5.46826V3.08508H14.532V15.17Z" fill="#989DA6"/>
</svg>
