<?xml version="1.0" encoding="utf-8"?>
<!-- Generator: Adobe Illustrator 24.2.1, SVG Export Plug-In . SVG Version: 6.00 Build 0)  -->
<svg version="1.1" xmlns="http://www.w3.org/2000/svg" xmlns:xlink="http://www.w3.org/1999/xlink" x="0px" y="0px"
	 viewBox="0 0 500 500" style="enable-background:new 0 0 500 500;" xml:space="preserve">
<style type="text/css">
	.st0{fill:#01A84D;stroke:#01A84D;stroke-miterlimit:10;}
	.st1{fill:url(#SVGID_1_);stroke:url(#SVGID_2_);stroke-miterlimit:10;}
	.st2{fill:url(#SVGID_3_);stroke:url(#SVGID_4_);stroke-miterlimit:10;}
	.st3{opacity:0.3;}
	.st4{fill:#232121;}
	.st5{fill:#01A84D;}
	.st6{font-family:'SimplifiedArabic-Bold';}
	.st7{font-size:82.732px;}
</style>
<g id="BACKGROUND">
</g>
<g id="OBJECTS">
	<g>
		<g>
			<g>
				<g>
					<path class="st0" d="M153.44,303.84c-14.17-0.92-27.63-6.99-37.74-16.95c-4.97-4.89-8.96-10.47-11.9-16.52h-17.2l-29.38-24.68
						l29.23-27.27h17.43c9.44-19.3,29.04-32.85,51.63-33.57c16.67-0.53,32.31,5.65,44.07,17.42l4.43,4.43l-24.25,31.05l-67.39-6.8
						c-1.08,3.58-1.73,7.34-1.91,11.22c-0.25,5.4,0.4,10.68,1.88,15.68l67.42-3.74L204,282.09l-4.43,4.43
						C187.38,298.71,170.83,304.97,153.44,303.84z M120.38,272.21c1.69,2.54,3.64,4.93,5.84,7.15c8.09,8.18,19.01,13.15,30.49,13.84
						c11.52,0.69,22.56-2.72,31.47-9.56l-11.04-16.14L120.38,272.21z M88.62,232.79c-4.39,4.26-5.16,5.49-12.28,12.9
						c6.43,7.49,8.41,9.72,12.67,14c3.01,0.6,12.55,0,12.55,0c-1.2-5.25-1.7-10.7-1.44-16.26c0.17-3.64,0.67-7.2,1.47-10.65H88.62z
						 M120.45,220.27l56.3,6.63l11.44-18.06c-8.58-6.59-19.05-9.97-30.1-9.62C142.46,199.71,128.64,207.98,120.45,220.27z"/>
					<linearGradient id="SVGID_1_" gradientUnits="userSpaceOnUse" x1="75.1902" y1="246.9187" x2="75.1902" y2="246.9187">
						<stop  offset="0" style="stop-color:#D91AC0"/>
						<stop  offset="1" style="stop-color:#3103FF"/>
					</linearGradient>
					<linearGradient id="SVGID_2_" gradientUnits="userSpaceOnUse" x1="75.1902" y1="246.9187" x2="75.1902" y2="246.9187">
						<stop  offset="0" style="stop-color:#D91AC0"/>
						<stop  offset="1" style="stop-color:#3103FF"/>
					</linearGradient>
					<path class="st1" d="M75.19,246.92"/>
					<linearGradient id="SVGID_3_" gradientUnits="userSpaceOnUse" x1="75.1902" y1="245.5776" x2="75.1902" y2="245.5776">
						<stop  offset="0" style="stop-color:#D91AC0"/>
						<stop  offset="1" style="stop-color:#3103FF"/>
					</linearGradient>
					<linearGradient id="SVGID_4_" gradientUnits="userSpaceOnUse" x1="75.1902" y1="245.5776" x2="75.1902" y2="245.5776">
						<stop  offset="0" style="stop-color:#D91AC0"/>
						<stop  offset="1" style="stop-color:#3103FF"/>
					</linearGradient>
					<path class="st2" d="M75.19,245.58"/>
				</g>
			</g>
			<g class="st3">
				<path d="M143.92,201.91c-0.8,0.28-1.59,0.59-2.37,0.92C142.33,202.5,143.12,202.19,143.92,201.91z"/>
				<path d="M158.08,199.22c0.01,0,0.02,0,0.03,0c-0.02,0-0.03,0-0.05,0c-0.9,0.03-1.79,0.09-2.68,0.17
					C156.28,199.31,157.17,199.24,158.08,199.22z"/>
				<path d="M160.43,199.2c0.01,0,0.02,0,0.03,0C160.46,199.2,160.45,199.2,160.43,199.2z"/>
				<path class="st4" d="M126.4,278.79c-1.95-2.04-3.69-4.22-5.22-6.52h6.32c-2.58-3.88-4.55-8.09-5.87-12.52h-6.32
					c-1.48-5-2.13-10.28-1.88-15.68c0.18-3.88,0.84-7.64,1.91-11.22h6.31c1.35-4.49,3.36-8.7,5.91-12.52h-6.32
					c2.89-6.69,17.76-15.88,20.98-17.39c-16.25,6.87-27.97,22.66-28.82,41.13c-0.6,13.01,4.01,25.34,12.97,34.72
					c8.97,9.39,21.05,14.56,34.03,14.56c0,0,0.01,0,0.01,0C147.45,293.35,135.37,288.18,126.4,278.79z"/>
				<path d="M160.18,293.28c0.35-0.01,0.7-0.01,1.05-0.02C160.88,293.27,160.53,293.28,160.18,293.28z"/>
				<path d="M154.76,199.45c-0.7,0.07-1.4,0.16-2.09,0.26C153.35,199.61,154.05,199.52,154.76,199.45z"/>
				<path d="M152.03,199.81c-0.8,0.13-1.59,0.28-2.37,0.45C150.45,200.09,151.24,199.94,152.03,199.81z"/>
				<path d="M149.46,200.3c-1.79,0.4-3.54,0.9-5.26,1.5C145.92,201.21,147.67,200.7,149.46,200.3z"/>
			</g>
		</g>
	</g>
</g>
</svg>
