<svg width="15" height="15" viewBox="0 0 15 15" fill="none" xmlns="http://www.w3.org/2000/svg">
<path d="M6.97594 1.55981C5.8536 1.55981 4.75646 1.89263 3.82326 2.51617C2.89007 3.13971 2.16273 4.02597 1.73323 5.06288C1.30373 6.09979 1.19135 7.24077 1.41031 8.34155C1.62927 9.44233 2.16973 10.4535 2.96334 11.2471C3.75696 12.0407 4.76809 12.5812 5.86887 12.8001C6.96964 13.0191 8.11063 12.9067 9.14754 12.4772C10.1844 12.0477 11.0707 11.3203 11.6942 10.3872C12.3178 9.45396 12.6506 8.35682 12.6506 7.23448C12.6506 6.48927 12.5038 5.75136 12.2186 5.06288C11.9335 4.3744 11.5155 3.74883 10.9885 3.22189C10.4616 2.69494 9.83602 2.27695 9.14754 1.99177C8.45906 1.70659 7.72115 1.55981 6.97594 1.55981V1.55981ZM6.97594 11.7742C6.07806 11.7742 5.20035 11.508 4.4538 11.0091C3.70724 10.5103 3.12537 9.80129 2.78177 8.97176C2.43817 8.14223 2.34827 7.22944 2.52343 6.34882C2.6986 5.4682 3.13097 4.6593 3.76586 4.0244C4.40075 3.38951 5.20966 2.95714 6.09028 2.78198C6.9709 2.60681 7.88369 2.69671 8.71322 3.04031C9.54275 3.38392 10.2518 3.96578 10.7506 4.71234C11.2494 5.45889 11.5157 6.33661 11.5157 7.23448C11.5157 8.43849 11.0374 9.59319 10.186 10.4446C9.33465 11.2959 8.17995 11.7742 6.97594 11.7742V11.7742ZM6.97594 3.82968C6.82544 3.82968 6.6811 3.88947 6.57468 3.99589C6.46826 4.10231 6.40847 4.24665 6.40847 4.39715V6.90535L5.21679 7.59198C5.10747 7.65393 5.02181 7.75041 4.97322 7.86629C4.92464 7.98216 4.91589 8.11089 4.94835 8.23227C4.9808 8.35366 5.05263 8.46084 5.15256 8.53701C5.25249 8.61318 5.37488 8.65402 5.50052 8.65315C5.59993 8.65383 5.69777 8.62839 5.78426 8.57938L7.25967 7.72818L7.31074 7.6771L7.40154 7.60333C7.42373 7.57524 7.44276 7.54479 7.45828 7.51254C7.47678 7.48207 7.492 7.44974 7.50368 7.41607C7.51912 7.37999 7.52869 7.34168 7.53205 7.30258C7.53205 7.30258 7.5434 7.23448 7.5434 7.23448V4.39715C7.5434 4.24665 7.48362 4.10231 7.3772 3.99589C7.27078 3.88947 7.12644 3.82968 6.97594 3.82968Z" fill="#989DA6"/>
</svg>
