<svg width="16" height="17" viewBox="0 0 16 17" fill="none" xmlns="http://www.w3.org/2000/svg">
<g clip-path="url(#clip0_118_1534)">
<path d="M7.336 6.13535H9.99218C10.1683 6.13535 10.3372 6.06539 10.4617 5.94086C10.5863 5.81633 10.6562 5.64743 10.6562 5.47131C10.6562 5.29519 10.5863 5.12629 10.4617 5.00176C10.3372 4.87723 10.1683 4.80727 9.99218 4.80727H8.66409V4.14322C8.66409 3.9671 8.59413 3.7982 8.4696 3.67367C8.34507 3.54914 8.17616 3.47918 8.00005 3.47918C7.82393 3.47918 7.65503 3.54914 7.5305 3.67367C7.40597 3.7982 7.336 3.9671 7.336 4.14322V4.80727C6.80766 4.80727 6.30095 5.01715 5.92735 5.39075C5.55376 5.76435 5.34387 6.27105 5.34387 6.7994C5.34387 7.32775 5.55376 7.83445 5.92735 8.20805C6.30095 8.58165 6.80766 8.79153 7.336 8.79153H8.66409C8.84021 8.79153 9.00911 8.86149 9.13364 8.98603C9.25818 9.11056 9.32814 9.27946 9.32814 9.45558C9.32814 9.63169 9.25818 9.80059 9.13364 9.92513C9.00911 10.0497 8.84021 10.1196 8.66409 10.1196H6.00792C5.8318 10.1196 5.6629 10.1896 5.53837 10.3141C5.41383 10.4386 5.34387 10.6075 5.34387 10.7837C5.34387 10.9598 5.41383 11.1287 5.53837 11.2532C5.6629 11.3777 5.8318 11.4477 6.00792 11.4477H7.336V12.1118C7.336 12.2879 7.40597 12.4568 7.5305 12.5813C7.65503 12.7058 7.82393 12.7758 8.00005 12.7758C8.17616 12.7758 8.34507 12.7058 8.4696 12.5813C8.59413 12.4568 8.66409 12.2879 8.66409 12.1118V11.4477C9.19244 11.4477 9.69915 11.2378 10.0727 10.8642C10.4463 10.4906 10.6562 9.98392 10.6562 9.45558C10.6562 8.92723 10.4463 8.42052 10.0727 8.04693C9.69915 7.67333 9.19244 7.46344 8.66409 7.46344H7.336C7.15989 7.46344 6.99099 7.39348 6.86645 7.26895C6.74192 7.14442 6.67196 6.97551 6.67196 6.7994C6.67196 6.62328 6.74192 6.45438 6.86645 6.32985C6.99099 6.20532 7.15989 6.13535 7.336 6.13535V6.13535ZM8.00005 0.822998C6.55536 0.822998 5.14311 1.2514 3.94189 2.05403C2.74068 2.85665 1.80444 3.99746 1.25158 5.33218C0.698722 6.6669 0.554068 8.13559 0.835914 9.55252C1.11776 10.9695 1.81344 12.271 2.835 13.2925C3.85655 14.3141 5.15808 15.0098 6.57501 15.2916C7.99195 15.5735 9.46064 15.4288 10.7954 14.876C12.1301 14.3231 13.2709 13.3869 14.0735 12.1856C14.8761 10.9844 15.3045 9.57218 15.3045 8.12749C15.3045 6.19022 14.535 4.33229 13.1651 2.96243C11.7952 1.59258 9.93732 0.822998 8.00005 0.822998V0.822998ZM8.00005 14.1039C6.81803 14.1039 5.66255 13.7534 4.67974 13.0967C3.69693 12.44 2.93091 11.5066 2.47858 10.4146C2.02624 9.32251 1.90788 8.12086 2.13848 6.96155C2.36908 5.80224 2.93828 4.73735 3.7741 3.90153C4.60991 3.06572 5.6748 2.49652 6.83411 2.26592C7.99342 2.03532 9.19507 2.15367 10.2871 2.60601C11.3792 3.05835 12.3126 3.82436 12.9692 4.80718C13.6259 5.78999 13.9765 6.94547 13.9765 8.12749C13.9765 9.71253 13.3468 11.2326 12.226 12.3534C11.1052 13.4742 9.58509 14.1039 8.00005 14.1039V14.1039Z" fill="#989DA6"/>
</g>
<defs>
<clipPath id="clip0_118_1534">
<rect width="15.9371" height="15.9371" fill="white" transform="translate(0.0314941 0.158936)"/>
</clipPath>
</defs>
</svg>
