<svg width="53" height="54" viewBox="0 0 53 54" fill="none" xmlns="http://www.w3.org/2000/svg">
<path d="M45.7346 37.6623L40.3904 32.3181C40.1851 32.1112 39.9409 31.9469 39.6718 31.8348C39.4027 31.7227 39.114 31.6649 38.8225 31.6649C38.531 31.6649 38.2423 31.7227 37.9732 31.8348C37.7041 31.9469 37.4599 32.1112 37.2546 32.3181L29.3488 40.224C29.1441 40.4303 28.9822 40.675 28.8723 40.9441C28.7624 41.2132 28.7067 41.5013 28.7083 41.7919V47.1361C28.7083 47.7218 28.941 48.2835 29.3551 48.6976C29.7693 49.1117 30.331 49.3444 30.9167 49.3444H36.2608C36.5515 49.3461 36.8396 49.2904 37.1086 49.1805C37.3777 49.0706 37.6224 48.9087 37.8288 48.704L45.7346 40.7981C45.9416 40.5929 46.1059 40.3486 46.218 40.0795C46.3301 39.8104 46.3878 39.5218 46.3878 39.2302C46.3878 38.9387 46.3301 38.6501 46.218 38.381C46.1059 38.1119 45.9416 37.8676 45.7346 37.6623ZM35.3333 44.9277H33.125V42.7194L38.8225 37.0219L41.0308 39.2302L35.3333 44.9277ZM22.0833 44.9277H13.25C12.6643 44.9277 12.1026 44.6951 11.6885 44.2809C11.2743 43.8668 11.0417 43.3051 11.0417 42.7194V11.8027C11.0417 11.217 11.2743 10.6553 11.6885 10.2412C12.1026 9.82706 12.6643 9.5944 13.25 9.5944H24.2917V16.2194C24.2917 17.9765 24.9897 19.6616 26.2321 20.904C27.4745 22.1464 29.1596 22.8444 30.9167 22.8444H37.5417V25.0527C37.5417 25.6384 37.7743 26.2001 38.1885 26.6143C38.6026 27.0284 39.1643 27.2611 39.75 27.2611C40.3357 27.2611 40.8974 27.0284 41.3115 26.6143C41.7257 26.2001 41.9583 25.6384 41.9583 25.0527V20.6361C41.9583 20.6361 41.9583 20.6361 41.9583 20.5036C41.9353 20.3007 41.8909 20.1008 41.8258 19.9073V19.7086C41.7197 19.4815 41.578 19.2728 41.4063 19.0902L28.1563 5.84023C27.9737 5.66846 27.765 5.52683 27.5379 5.42065C27.472 5.41129 27.4051 5.41129 27.3392 5.42065L26.6325 5.17773H13.25C11.4929 5.17773 9.80785 5.87572 8.56542 7.11815C7.32299 8.36058 6.625 10.0457 6.625 11.8027V42.7194C6.625 44.4765 7.32299 46.1616 8.56542 47.404C9.80785 48.6464 11.4929 49.3444 13.25 49.3444H22.0833C22.669 49.3444 23.2307 49.1117 23.6449 48.6976C24.059 48.2835 24.2917 47.7218 24.2917 47.1361C24.2917 46.5504 24.059 45.9887 23.6449 45.5745C23.2307 45.1604 22.669 44.9277 22.0833 44.9277ZM28.7083 12.7082L34.4279 18.4277H30.9167C30.331 18.4277 29.7693 18.1951 29.3551 17.7809C28.941 17.3668 28.7083 16.8051 28.7083 16.2194V12.7082ZM17.6667 31.6777H30.9167C31.5024 31.6777 32.0641 31.4451 32.4782 31.0309C32.8923 30.6168 33.125 30.0551 33.125 29.4694C33.125 28.8837 32.8923 28.322 32.4782 27.9079C32.0641 27.4937 31.5024 27.2611 30.9167 27.2611H17.6667C17.081 27.2611 16.5193 27.4937 16.1051 27.9079C15.691 28.322 15.4583 28.8837 15.4583 29.4694C15.4583 30.0551 15.691 30.6168 16.1051 31.0309C16.5193 31.4451 17.081 31.6777 17.6667 31.6777ZM17.6667 22.8444H19.875C20.4607 22.8444 21.0224 22.6117 21.4365 22.1976C21.8507 21.7835 22.0833 21.2218 22.0833 20.6361C22.0833 20.0504 21.8507 19.4887 21.4365 19.0745C21.0224 18.6604 20.4607 18.4277 19.875 18.4277H17.6667C17.081 18.4277 16.5193 18.6604 16.1051 19.0745C15.691 19.4887 15.4583 20.0504 15.4583 20.6361C15.4583 21.2218 15.691 21.7835 16.1051 22.1976C16.5193 22.6117 17.081 22.8444 17.6667 22.8444ZM22.0833 36.0944H17.6667C17.081 36.0944 16.5193 36.3271 16.1051 36.7412C15.691 37.1553 15.4583 37.717 15.4583 38.3027C15.4583 38.8884 15.691 39.4501 16.1051 39.8643C16.5193 40.2784 17.081 40.5111 17.6667 40.5111H22.0833C22.669 40.5111 23.2307 40.2784 23.6449 39.8643C24.059 39.4501 24.2917 38.8884 24.2917 38.3027C24.2917 37.717 24.059 37.1553 23.6449 36.7412C23.2307 36.3271 22.669 36.0944 22.0833 36.0944Z" fill="white"/>
</svg>
