<svg width="45" height="45" viewBox="0 0 45 45" fill="none" xmlns="http://www.w3.org/2000/svg">
<path d="M9.66699 33.7619H17.4403C17.6816 33.7633 17.9208 33.7171 18.1442 33.6258C18.3675 33.5346 18.5707 33.4002 18.742 33.2303L31.4287 20.5253L36.6353 15.4286C36.8072 15.2582 36.9436 15.0554 37.0366 14.832C37.1297 14.6086 37.1776 14.369 37.1776 14.1269C37.1776 13.8849 37.1297 13.6453 37.0366 13.4219C36.9436 13.1985 36.8072 12.9957 36.6353 12.8253L28.862 4.96027C28.6916 4.78843 28.4888 4.65204 28.2654 4.55896C28.042 4.46589 27.8023 4.41797 27.5603 4.41797C27.3183 4.41797 27.0787 4.46589 26.8553 4.55896C26.6319 4.65204 26.4291 4.78843 26.2587 4.96027L21.0887 10.1486L8.36533 22.8536C8.19541 23.0249 8.06098 23.2281 7.96974 23.4514C7.87851 23.6748 7.83226 23.914 7.83366 24.1553V31.9286C7.83366 32.4148 8.02681 32.8811 8.37063 33.225C8.71445 33.5688 9.18076 33.7619 9.66699 33.7619ZM27.5603 8.84693L32.7487 14.0353L30.1453 16.6386L24.957 11.4503L27.5603 8.84693ZM11.5003 24.9069L22.372 14.0353L27.5603 19.2236L16.6887 30.0953H11.5003V24.9069ZM39.0003 37.4286H6.00033C5.5141 37.4286 5.04778 37.6218 4.70396 37.9656C4.36015 38.3094 4.16699 38.7757 4.16699 39.2619C4.16699 39.7482 4.36015 40.2145 4.70396 40.5583C5.04778 40.9021 5.5141 41.0953 6.00033 41.0953H39.0003C39.4866 41.0953 39.9529 40.9021 40.2967 40.5583C40.6405 40.2145 40.8337 39.7482 40.8337 39.2619C40.8337 38.7757 40.6405 38.3094 40.2967 37.9656C39.9529 37.6218 39.4866 37.4286 39.0003 37.4286Z" fill="white"/>
</svg>
