<svg width="541" height="480" viewBox="0 0 541 480" fill="none" xmlns="http://www.w3.org/2000/svg">
<g filter="url(#filter0_d_185_9909)">
<path d="M270.185 54.8965H170.354V174.7H270.185V54.8965Z" fill="#F5F5F5"/>
<path d="M271.265 175.791H169.273V54.8965H171.434V173.631H269.105V54.8965H271.265V175.791Z" fill="#D1D1D1"/>
<path d="M275.758 51.6543H164.477V58.1354H275.758V51.6543Z" fill="#E3E3E3"/>
<path d="M185.615 94.5938H179.285V100.924H185.615V94.5938Z" fill="#D1D1D1"/>
<path d="M198.308 94.5938H191.979V100.924H198.308V94.5938Z" fill="#D1D1D1"/>
<path d="M211 94.5938H204.67V100.924H211V94.5938Z" fill="#D1D1D1"/>
<path d="M223.693 94.5938H217.363V100.924H223.693V94.5938Z" fill="#D1D1D1"/>
<path d="M236.375 94.5938H230.045V100.924H236.375V94.5938Z" fill="#D1D1D1"/>
<path d="M249.066 94.5938H242.736V100.924H249.066V94.5938Z" fill="#D1D1D1"/>
<path d="M261.758 94.5938H255.428V100.924H261.758V94.5938Z" fill="#D1D1D1"/>
<path d="M185.615 110.225H179.285V116.555H185.615V110.225Z" fill="#D1D1D1"/>
<path d="M198.308 110.225H191.979V116.555H198.308V110.225Z" fill="#D1D1D1"/>
<path d="M211 110.225H204.67V116.555H211V110.225Z" fill="#D1D1D1"/>
<path d="M223.693 110.225H217.363V116.555H223.693V110.225Z" fill="#D1D1D1"/>
<path d="M236.375 110.225H230.045V116.555H236.375V110.225Z" fill="#D1D1D1"/>
<path d="M249.066 110.225H242.736V116.555H249.066V110.225Z" fill="#D1D1D1"/>
<path d="M261.758 110.225H255.428V116.555H261.758V110.225Z" fill="#D1D1D1"/>
<path d="M185.615 125.842H179.285V132.172H185.615V125.842Z" fill="#D1D1D1"/>
<path d="M198.308 125.842H191.979V132.172H198.308V125.842Z" fill="#D1D1D1"/>
<path d="M211 125.842H204.67V132.172H211V125.842Z" fill="#D1D1D1"/>
<path d="M223.693 125.842H217.363V132.172H223.693V125.842Z" fill="#D1D1D1"/>
<path d="M236.375 125.842H230.045V132.172H236.375V125.842Z" fill="#D1D1D1"/>
<path d="M249.066 125.842H242.736V132.172H249.066V125.842Z" fill="#D1D1D1"/>
<path d="M261.758 125.842H255.428V132.172H261.758V125.842Z" fill="#D1D1D1"/>
<path d="M185.615 141.473H179.285V147.803H185.615V141.473Z" fill="#D1D1D1"/>
<path d="M198.308 141.473H191.979V147.803H198.308V141.473Z" fill="#D1D1D1"/>
<path d="M211 141.473H204.67V147.803H211V141.473Z" fill="#D1D1D1"/>
<path d="M223.693 141.473H217.363V147.803H223.693V141.473Z" fill="#D1D1D1"/>
<path d="M236.375 141.473H230.045V147.803H236.375V141.473Z" fill="#D1D1D1"/>
<path d="M249.066 141.473H242.736V147.803H249.066V141.473Z" fill="#D1D1D1"/>
<path d="M261.758 141.473H255.428V147.803H261.758V141.473Z" fill="#D1D1D1"/>
<path d="M185.615 157.092H179.285V163.422H185.615V157.092Z" fill="#D1D1D1"/>
<path d="M198.308 157.092H191.979V163.422H198.308V157.092Z" fill="#D1D1D1"/>
<path d="M211 157.092H204.67V163.422H211V157.092Z" fill="#D1D1D1"/>
<path d="M223.693 157.092H217.363V163.422H223.693V157.092Z" fill="#D1D1D1"/>
<path d="M245.837 65.1465H195.068V67.3069H245.837V65.1465Z" fill="#D1D1D1"/>
<path d="M211.001 73.6699H195.068V75.8303H211.001V73.6699Z" fill="#D1D1D1"/>
<path d="M509.089 47.9707H376.539V234.789H509.089V47.9707Z" fill="#F5F5F5"/>
<path d="M33.0284 148.85L15 92.7988H56.9546L66.3954 125.172L60.3031 148.85H33.0284Z" fill="#D1D1D1"/>
<path d="M48.474 98.7852H31.0938L33.2865 105.882H50.548L48.474 98.7852Z" fill="white"/>
<path d="M51.5306 108.613H34.1504L34.7121 110.331H51.9735L51.5306 108.613Z" fill="white"/>
<path d="M15 92.7988L33.0284 148.85H36.4958L18.1001 92.7988H15Z" fill="#17212B"/>
<path d="M510.169 235.871H375.459V46.8379H510.169V235.871ZM377.619 233.711H508.009V48.9983H377.619V233.711Z" fill="#D1D1D1"/>
<path d="M228.121 426.793V454.673H249.131V417.871L228.121 426.793Z" fill="#D1D1D1"/>
<path d="M466.973 299.959H185.875V426.795V454.674H210.125V426.795H466.973V299.959Z" fill="#F5F5F5"/>
<path d="M453.817 435.176L459.164 444.898L446.039 454.619H398.209C398.209 454.619 396.729 437.812 414.293 437.812H431.846L428.67 429.375L448.643 426.848L453.817 435.176Z" fill="#96E3B9"/>
<path d="M456.526 412.114H196.979V312.262H456.526V412.114ZM199.139 409.954H454.366V314.422H199.139V409.954Z" fill="#D1D1D1"/>
<path d="M359.105 203.51C359.105 203.51 353.985 231.109 362.26 259.54C370.534 287.97 388.886 357.102 388.886 357.102L422.372 437.522H461.95C461.95 437.522 447.13 377.172 440.055 348.158C432.979 319.145 414.292 245.54 414.292 245.54L383.907 200.939L359.105 203.51Z" fill="#17212B"/>
<path d="M444.105 199.846C444.105 199.846 453.827 193.549 436.544 178.869L433.195 185.113L444.105 199.846Z" fill="#FFBC9D"/>
<path d="M337.631 187.057L335.006 188.764C333.062 190.03 330.765 190.643 328.449 190.514C318.53 190.004 308.654 188.85 298.884 187.057C283.265 183.99 285.922 182.045 277.345 181.484C268.769 180.922 266.057 178.913 263.519 175.597C260.981 172.28 258.604 163.844 263.519 166.437C268.434 169.029 274.072 171.838 274.072 171.838L277.313 172.561C292.51 174.402 307.795 175.43 323.102 175.64L330.35 174.16L337.631 187.057Z" fill="#FFBC9D"/>
<path d="M369.368 131.514H364.464C364.464 131.514 357.702 131.87 351.566 141.063C345.431 150.255 327.035 171.794 327.035 171.794L337.632 191.799L356.341 174.116L372.619 144.13L369.368 131.514Z" fill="#96E3B9"/>
<path d="M437.624 194.015C437.624 194.015 407.595 171.45 405.089 179.206C402.583 186.961 401.46 200.81 401.46 200.81C401.46 200.81 399.785 203.186 382.783 206.005C365.781 208.825 359.106 203.499 359.106 203.499C358.378 196.177 357.07 188.924 355.195 181.809C351.847 168.425 347.385 162.852 353.164 152.082C358.944 141.313 369.367 131.559 369.367 131.559H392.051L398.802 133.579C405.554 135.609 426.801 162.355 437.624 174.161L446.039 182.425L437.624 194.015Z" fill="#96E3B9"/>
<path d="M368.362 435.178L363.048 454.621H308.271C308.271 454.621 308.736 437.479 328.385 437.479H356.815L368.362 435.178Z" fill="#96E3B9"/>
<path d="M399.612 198.139C406.288 207.632 411.327 218.176 414.519 229.335C419.542 247.309 403.933 298.748 399.612 315.89C395.291 333.033 392.051 343.489 392.051 343.489V355.295C392.049 362.167 391.167 369.01 389.426 375.657L372.359 437.563H338.873L371.009 204.155L399.612 198.139Z" fill="#17212B"/>
<path d="M348.844 366.596C350.388 353.633 351.944 340.671 353.597 327.709C355.249 314.747 356.924 301.784 358.587 288.876C360.251 275.968 362.054 262.952 363.783 250.065C365.511 237.178 367.401 224.205 369.367 211.297C367.909 224.259 366.289 237.221 364.69 250.184C363.091 263.146 361.385 276.108 359.624 289.006C357.863 301.903 356.178 314.93 354.353 327.806C352.527 340.682 350.723 353.677 348.844 366.596Z" fill="#636363"/>
<path d="M367.143 429.321C369.123 413.089 371.139 396.861 373.192 380.637C375.212 364.434 377.383 348.231 379.478 332.028C381.574 315.826 383.799 299.623 385.959 283.42L389.34 259.126L392.829 234.844L389.967 259.148L386.921 283.485C384.76 299.688 382.762 315.89 380.559 332.093C378.355 348.296 376.238 364.499 374.002 380.702C371.766 396.905 369.443 413.129 367.143 429.321Z" fill="#636363"/>
<path d="M280.133 175.791C280.133 175.791 279.118 170.671 274.332 168.867C271.67 167.925 269.194 166.521 267.02 164.719C267.02 164.719 265.054 165.745 267.624 168.532C270.195 171.319 272.453 173.566 272.453 173.566L275.24 178.869L280.133 175.791Z" fill="#FFBC9D"/>
<path d="M116.064 51.4079L121 80.843C121 80.843 123.29 92.8763 116.042 94.9611C108.794 97.0459 106.569 97.0567 106.569 97.0567C105.218 101.956 105.218 107.129 106.569 112.028C104.711 114.276 102.278 115.977 99.5284 116.949C96.7793 117.921 93.8176 118.128 90.9599 117.548C80.8818 115.593 82.5993 110.581 82.5993 110.581C83.7122 103.146 84.3616 95.6495 84.5436 88.1343C84.8245 75.8741 81.8323 56.2147 94.3409 51.4079C106.85 46.601 116.064 51.4079 116.064 51.4079Z" fill="#FFBC9D"/>
<path d="M101.554 75.5933C102.368 75.2959 103.05 74.7185 103.478 73.9645C103.905 73.2105 104.05 72.329 103.888 71.4777C103.315 68.518 102.872 64.1 104.611 61.6588C107.398 57.7485 112.421 57.1976 117.163 55.5233C121.905 53.849 121.624 49.3879 119.669 44.9267C117.714 40.4655 118.589 39.0721 114.095 38.2403C109.602 37.4086 105.454 34.7945 100.431 33.5955C95.4081 32.3965 89.2834 32.1048 83.9905 36.566L78.6867 41.0272C78.6867 41.0272 71.1254 41.8589 68.6518 48.5885C66.1781 55.3181 69.2135 58.9043 69.7319 64.1973C70.2504 69.4902 68.0577 70.0519 71.3954 73.1196C74.7332 76.1874 75.3057 81.7611 76.4183 83.7055C77.5309 85.6498 82.2729 95.1339 87.015 97.089C87.015 97.089 93.7014 97.1862 97.8817 93.5136C102.062 89.841 105.962 84.4616 103.736 80.8754C101.511 77.2892 102.148 83.2734 98.0221 78.9743C93.8958 74.6751 93.1397 69.4902 97.32 68.6584C97.32 68.6584 101.922 67.4054 101.5 75.6257L101.554 75.5933Z" fill="#17212B"/>
<path d="M407.692 236.271C405.378 236.87 402.996 237.164 400.606 237.146C398.202 237.162 395.805 236.89 393.466 236.336C391.095 235.793 388.822 234.889 386.726 233.657C384.664 232.401 382.87 230.753 381.443 228.807C382.349 229.559 383.298 230.259 384.284 230.902C384.781 231.215 385.246 231.561 385.753 231.831L387.276 232.652C389.35 233.658 391.522 234.447 393.758 235.007C396.011 235.536 398.3 235.897 400.606 236.087C402.962 236.296 405.328 236.358 407.692 236.271Z" fill="#636363"/>
<path d="M352.43 171.794C350.883 169.041 350.051 165.944 350.01 162.786C349.966 161.199 350.1 159.612 350.41 158.054C350.615 157.298 350.777 156.51 351.026 155.764C351.268 155.009 351.549 154.266 351.868 153.539C352.225 152.826 352.516 152.092 352.948 151.379C353.38 150.666 353.759 150.018 354.18 149.359C355.055 148.073 355.919 146.788 356.826 145.524C358.598 142.975 360.391 140.437 362.281 137.963C360.747 140.674 359.138 143.364 357.496 145.967C355.776 148.513 354.231 151.172 352.873 153.928C351.633 156.709 350.957 159.709 350.885 162.753C350.793 165.831 351.326 168.896 352.452 171.762L352.43 171.794Z" fill="#636363"/>
<path d="M519 20.1875H367V48.1875H519V20.1875Z" fill="#F5F5F5"/>
<path d="M520 50.1875H366V20.1875H368.158V48.7941H517.842V20.1875H520V50.1875Z" fill="#D1D1D1"/>
<path d="M444.321 48.6641H442.16V79.1794H444.321V48.6641Z" fill="#D1D1D1"/>
<path d="M443.241 93.8803C441.678 93.8824 440.15 93.4208 438.85 92.554C437.55 91.6872 436.536 90.4541 435.937 89.0108C435.338 87.5675 435.181 85.979 435.485 84.4463C435.79 82.9135 436.542 81.5056 437.647 80.4006C438.752 79.2957 440.16 78.5434 441.692 78.2391C443.225 77.9348 444.814 78.092 446.257 78.691C447.7 79.29 448.933 80.3037 449.8 81.6039C450.667 82.9041 451.128 84.4322 451.126 85.9949C451.123 88.0853 450.292 90.0893 448.814 91.5675C447.335 93.0457 445.331 93.8774 443.241 93.8803ZM443.241 80.2591C442.106 80.2569 440.996 80.5915 440.051 81.2205C439.107 81.8494 438.37 82.7445 437.934 83.7924C437.498 84.8403 437.383 85.9939 437.603 87.1072C437.823 88.2206 438.369 89.2436 439.171 90.0469C439.972 90.8501 440.994 91.3975 442.107 91.6197C443.22 91.8419 444.374 91.7289 445.423 91.2951C446.471 90.8613 447.368 90.1261 447.999 89.1826C448.629 88.2392 448.966 87.1298 448.966 85.9949C448.963 84.4774 448.359 83.0229 447.286 81.9498C446.213 80.8768 444.758 80.2727 443.241 80.2699V80.2591Z" fill="#D1D1D1"/>
<path d="M525.13 20H361.352V26.4811H525.13V20Z" fill="#E3E3E3"/>
<path d="M60.3031 437.759L62.2907 453.464H24.3652L32.4775 437.759L43.7006 429.322L60.3031 437.759Z" fill="#17212B"/>
<path d="M107.01 437.521L101.934 453.465H161.204C161.204 453.465 164.984 439.617 141.198 437.521C117.413 435.425 120.567 422.053 120.567 422.053L107.01 437.521Z" fill="#17212B"/>
<path d="M136.639 221.343L148.77 332.386L141.208 437.521H101.933L94.3713 268.46L69.7429 437.521H24.375C24.375 437.521 47.059 256.892 60.3129 221.343C73.5668 185.794 136.639 221.343 136.639 221.343Z" fill="#96E3B9"/>
<path d="M246.3 174.721C235.671 176.525 234.105 176.298 221.553 181.731C209.93 186.765 183.746 192.533 172.253 194.856C170.586 195.2 168.857 195.107 167.237 194.584C165.616 194.062 164.159 193.128 163.007 191.874L155.445 183.719L170.503 165.151L173.744 168.532C174.711 169.556 175.886 170.362 177.19 170.895C178.494 171.428 179.897 171.675 181.305 171.621C212.414 170.443 230.108 170.13 230.108 170.13C230.864 166.36 237.442 164.978 237.442 164.978L243.589 163.357C243.924 167.095 238.069 168.456 238.069 168.456L237.442 170.13C237.442 170.13 249.227 165.529 251.485 165.529C253.743 165.529 251.442 173.846 246.3 174.721Z" fill="#FFBC9D"/>
<path d="M394.589 132.119C392.276 134.317 390.211 136.762 388.432 139.41C387.47 140.674 386.671 142.057 385.785 143.364C384.9 144.671 384.165 146.108 383.398 147.501C380.355 153.087 377.779 158.914 375.696 164.924C373.547 170.92 371.726 177.029 370.241 183.223C369.529 186.334 368.88 189.456 368.2 192.567C367.519 195.677 367.12 198.853 366.482 201.997C366.86 198.821 367.293 195.656 367.703 192.48C368.114 189.304 368.837 186.183 369.464 183.05C370.821 176.787 372.567 170.614 374.692 164.568C376.812 158.51 379.477 152.657 382.653 147.08C383.474 145.697 384.349 144.347 385.191 142.997C386.034 141.646 386.984 140.329 388 139.086C389.908 136.507 392.12 134.168 394.589 132.119Z" fill="#636363"/>
<path d="M41.3031 169.775C41.3031 169.775 31.5814 146.367 28.7621 136.289C25.9428 126.211 30.5984 116.77 35.1136 111.758C35.1136 111.758 30.2744 109.403 24.3117 117.829L20.0666 105.342C20.0666 105.342 23.5016 100.492 21.6437 98.9254C19.7857 97.3591 15.8971 105.947 15.1409 112.676C14.3848 119.406 19.6237 166.826 26.8718 188.808C34.1198 210.79 49.9986 190.169 49.9986 190.169L41.3031 169.775Z" fill="#FFBC9D"/>
<path d="M66.6979 110.516C69.8711 109.374 73.2008 108.726 76.5708 108.594H120.124C120.124 108.594 137.764 108.594 151.698 130.684C169.791 159.384 176.78 167.767 176.78 167.767L155.327 188.798L130.883 158.045L136.64 221.387H60.3032L67.7025 188.809L56.5117 119.676C56.5117 119.676 59.9899 112.915 66.6979 110.516Z" fill="#17212B"/>
<path d="M56.5116 119.609L30.3926 174.159L53.5951 193.138L70.7052 160.16L69.2902 120.236L56.5116 119.609Z" fill="#17212B"/>
<path d="M394.59 132.118C394.59 132.118 381.39 141.839 372.478 175.606C363.567 209.373 358.436 240.914 377.177 248.681C395.918 256.447 458.018 261.168 453.59 236.658C450.926 221.973 446.986 207.548 441.815 193.548L427.654 195.06C427.654 195.06 426.574 206.856 406.472 204.62C386.369 202.384 377.177 183.967 377.177 183.967C377.177 183.967 379.726 152.468 401.19 134.354C401.19 134.375 401.654 131.588 394.59 132.118Z" fill="#D1D1D1"/>
<path d="M395.887 158.043L405.101 167.235C408.158 170.303 411.269 173.295 414.293 176.449C410.737 173.925 407.405 171.099 404.334 168.002C401.226 164.942 398.399 161.609 395.887 158.043Z" fill="#636363"/>
<path d="M377.177 183.969C376.505 187.59 376.728 191.32 377.827 194.836C378.927 198.351 380.869 201.543 383.485 204.136C388.692 209.267 395.519 212.561 402.572 214.441C409.644 216.448 417.08 216.817 424.316 215.521C427.945 214.925 431.343 213.353 434.146 210.973C435.495 209.752 436.494 208.194 437.041 206.458C437.52 204.676 437.557 202.803 437.149 201.003C437.685 202.8 437.748 204.705 437.333 206.534C436.861 208.373 435.893 210.047 434.535 211.373C431.715 213.915 428.258 215.644 424.532 216.374C420.868 217.154 417.115 217.441 413.374 217.228C409.637 217.058 405.931 216.471 402.324 215.478C398.708 214.509 395.215 213.132 391.911 211.373C388.572 209.656 385.539 207.401 382.934 204.698C380.328 201.979 378.419 198.669 377.371 195.052C376.855 193.255 376.571 191.4 376.529 189.532C376.464 187.655 376.682 185.78 377.177 183.969Z" fill="#636363"/>
<path d="M377.177 150.256C382.978 144.315 386.963 145.806 390.312 149.176C393.661 152.546 395.367 163.359 395.367 163.359C395.367 163.359 408.664 170.056 417.868 174.798C427.071 179.54 437.549 180.199 441.783 188.765C446.017 197.331 447.692 204.341 431.532 201.273C415.372 198.206 396.123 177.725 390.55 171.795C386.881 167.673 383.828 163.041 381.487 158.044L377.166 160.486C377.166 160.486 371.041 156.521 377.177 150.256Z" fill="#FFBC9D"/>
<path d="M347.601 101.268C347.601 101.268 344.36 100.188 342.2 91.5464C340.04 82.9049 337.879 72.103 346.521 68.8625C355.162 65.6219 360.563 79.6644 360.563 79.6644L350.841 100.188L347.601 101.268Z" fill="#17212B"/>
<path d="M346.682 75.3438V100.188C346.682 100.188 346.682 113.15 355.323 116.391C363.965 119.632 370.446 116.391 370.446 116.391C371.098 119.599 371.098 122.905 370.446 126.113L369.366 131.514C369.366 131.514 370.975 138.103 380.168 137.995C387.804 137.908 392.05 131.514 392.05 131.514C392.05 131.514 384.488 122.872 384.488 113.15C384.488 103.429 385.568 81.8249 385.568 81.8249L369.366 76.4239L346.682 75.3438Z" fill="#FFBC9D"/>
<path d="M373.686 98.0282C373.686 98.0282 361.804 96.948 351.002 86.1461C340.2 75.3442 344.521 66.7027 352.083 63.4622C359.644 60.2216 363.965 61.3018 373.686 63.4622C373.686 63.4622 371.526 51.5801 385.568 51.5801C399.611 51.5801 401.771 71.0235 388.809 72.1037C388.809 72.1037 397.45 77.5046 397.45 92.6273C397.45 107.75 384.488 115.311 384.488 115.311C384.488 115.311 376.387 115.851 379.627 108.29C379.627 108.29 375.307 108.29 376.387 105.049C377.467 101.809 379.627 106.13 381.788 98.5683C383.948 91.007 377.467 87.7664 375.307 93.1674C373.146 98.5683 373.686 98.0282 373.686 98.0282Z" fill="#17212B"/>
<path d="M508.787 299.959H466.973V426.795H508.787V299.959Z" fill="#D1D1D1"/>
<path d="M466.973 426.793V454.673H491.223V417.871L466.973 426.793Z" fill="#D1D1D1"/>
<path d="M321.87 269.854H232.971V284.911H321.87V269.854Z" fill="#96E3B9"/>
<path d="M321.882 274.596H295.936V280.169H321.882V274.596Z" fill="white"/>
<path d="M310.745 284.9H221.846V299.958H310.745V284.9Z" fill="#17212B"/>
<path d="M310.745 289.643H271.977V295.216H310.745V289.643Z" fill="white"/>
<path d="M64.8936 171.373C63.2193 164.892 62.0203 158.411 60.9509 151.844C59.8815 145.276 58.9957 138.719 58.5312 132.076C60.1839 138.557 61.383 145.038 62.474 151.595C63.5649 158.152 64.4399 164.719 64.8936 171.373Z" fill="#636363"/>
<path d="M130.883 158.043C128.723 155.267 126.562 152.448 124.488 149.607C122.414 146.766 120.34 143.904 118.266 141.052C117.713 140.348 117.218 139.601 116.787 138.816C116.379 138.017 116.018 137.195 115.706 136.353C115.06 134.68 114.636 132.93 114.443 131.147C114.272 129.361 114.363 127.559 114.713 125.8C115.106 124.062 115.769 122.396 116.679 120.863C115.947 122.458 115.435 124.144 115.156 125.875C114.907 127.595 114.907 129.341 115.156 131.06C115.384 132.776 115.827 134.456 116.473 136.062C116.79 136.862 117.15 137.645 117.554 138.406C117.99 139.151 118.466 139.872 118.979 140.566C120.999 143.461 123.063 146.323 125.028 149.207C126.994 152.092 128.971 155.03 130.883 158.043Z" fill="#636363"/>
<path d="M81.6699 267.834C83.8303 267.682 85.9043 267.618 88.0322 267.564C90.1602 267.51 92.2666 267.51 94.3838 267.477C96.5009 267.445 98.6181 267.477 100.735 267.564C102.852 267.65 104.98 267.682 107.098 267.834C104.937 267.974 102.863 268.039 100.735 268.093C98.6073 268.147 96.5009 268.147 94.3838 268.179C92.2666 268.212 90.1494 268.179 88.0322 268.104C85.9151 268.028 83.7871 267.974 81.6699 267.834Z" fill="#636363"/>
<path d="M122.609 221.342L125.159 235.147L127.632 248.973L132.428 276.626L141.729 331.953V332.04L137.721 384.137C136.414 401.507 134.945 418.865 133.562 436.224C134.783 418.854 135.917 401.474 137.224 384.105L141.016 331.986V332.072L131.543 276.734L126.952 249.038L124.727 235.179L122.609 221.342Z" fill="#636363"/>
<path d="M137.201 225.998C137.133 227.788 136.568 229.523 135.57 231.01C134.604 232.513 133.409 233.854 132.027 234.985C130.658 236.138 129.17 237.141 127.587 237.977C126.799 238.355 126.01 238.766 125.211 239.122C124.412 239.479 123.58 239.76 122.748 240.051C123.504 239.598 124.282 239.187 125.038 238.766L127.274 237.426C128.723 236.497 130.109 235.472 131.422 234.359C132.741 233.267 133.924 232.019 134.943 230.643C135.452 229.965 135.897 229.242 136.272 228.482C136.71 227.708 137.024 226.87 137.201 225.998Z" fill="#636363"/>
<path d="M391.629 363.376C391.791 360.049 391.877 356.733 391.899 353.406C391.948 350.099 391.819 346.793 391.51 343.5V343.392V343.306C395.744 328.961 399.788 314.558 403.64 300.098C405.552 292.861 407.41 285.613 409.128 278.332C410.845 271.052 412.509 263.718 413.729 256.34C412.563 263.739 410.996 271.063 409.409 278.365C407.821 285.667 406.006 292.947 404.18 300.206C400.529 314.724 396.659 329.188 392.568 343.598V343.392C392.706 346.737 392.659 350.087 392.428 353.427C392.244 356.797 391.963 360.038 391.629 363.376Z" fill="#636363"/>
<path d="M412.628 214.376C414.221 214.376 415.512 213.69 415.512 212.842C415.512 211.995 414.221 211.309 412.628 211.309C411.035 211.309 409.744 211.995 409.744 212.842C409.744 213.69 411.035 214.376 412.628 214.376Z" fill="#F5F5F5"/>
</g>
<defs>
<filter id="filter0_d_185_9909" x="0" y="-5" width="540.129" height="484.674" filterUnits="userSpaceOnUse" color-interpolation-filters="sRGB">
<feFlood flood-opacity="0" result="BackgroundImageFix"/>
<feColorMatrix in="SourceAlpha" type="matrix" values="0 0 0 0 0 0 0 0 0 0 0 0 0 0 0 0 0 0 127 0" result="hardAlpha"/>
<feMorphology radius="5" operator="erode" in="SourceAlpha" result="effect1_dropShadow_185_9909"/>
<feOffset dy="10"/>
<feGaussianBlur stdDeviation="10"/>
<feComposite in2="hardAlpha" operator="out"/>
<feColorMatrix type="matrix" values="0 0 0 0 0.0249219 0 0 0 0 0.139698 0 0 0 0 0.3625 0 0 0 0.06 0"/>
<feBlend mode="normal" in2="BackgroundImageFix" result="effect1_dropShadow_185_9909"/>
<feBlend mode="normal" in="SourceGraphic" in2="effect1_dropShadow_185_9909" result="shape"/>
</filter>
</defs>
</svg>
