<svg width="20" height="20" viewBox="0 0 20 20" fill="none" xmlns="http://www.w3.org/2000/svg">
<path d="M18.2395 0H2.49368C1.52706 0 0.744141 0.782918 0.744141 1.74954V17.4954C0.744141 18.462 1.52706 19.2449 2.49368 19.2449H18.2395C19.2061 19.2449 19.989 18.462 19.989 17.4954V1.74954C19.989 0.782918 19.2061 0 18.2395 0ZM6.82728 15.7458H4.24671V7.44253H6.82728V15.7458ZM5.51075 6.25547C4.67885 6.25547 4.00615 5.58102 4.00615 4.75087C4.00615 3.92071 4.67972 3.24714 5.51075 3.24714C6.34003 3.24714 7.01448 3.92159 7.01448 4.75087C7.01448 5.58102 6.34003 6.25547 5.51075 6.25547ZM16.4935 15.7458H13.9147V11.7079C13.9147 10.7448 13.8972 9.50611 12.5736 9.50611C11.2309 9.50611 11.0244 10.555 11.0244 11.6379V15.7458H8.4456V7.44253H10.9212V8.5771H10.9562C11.3008 7.92453 12.1424 7.23608 13.3977 7.23608C16.0106 7.23608 16.4935 8.95588 16.4935 11.1918V15.7458Z" fill="#275C45"/>
</svg>
