<svg width="18" height="18" viewBox="0 0 18 18" fill="none" xmlns="http://www.w3.org/2000/svg">
<path d="M9.00016 1.83398C7.45265 1.83398 5.96853 2.44873 4.87428 3.54298C3.78003 4.63723 3.16528 6.12135 3.16528 7.66886C3.16528 11.6074 8.30726 16.0565 8.52607 16.2461C8.65818 16.3591 8.82631 16.4212 9.00016 16.4212C9.174 16.4212 9.34213 16.3591 9.47424 16.2461C9.72951 16.0565 14.835 11.6074 14.835 7.66886C14.835 6.12135 14.2203 4.63723 13.126 3.54298C12.0318 2.44873 10.5477 1.83398 9.00016 1.83398V1.83398ZM9.00016 14.7072C7.44662 13.2485 4.624 10.1049 4.624 7.66886C4.624 6.50823 5.08506 5.39514 5.90575 4.57445C6.72644 3.75376 7.83953 3.2927 9.00016 3.2927C10.1608 3.2927 11.2739 3.75376 12.0946 4.57445C12.9153 5.39514 13.3763 6.50823 13.3763 7.66886C13.3763 10.1049 10.5537 13.2557 9.00016 14.7072ZM9.00016 4.75142C8.42314 4.75142 7.85909 4.92253 7.37932 5.2431C6.89955 5.56367 6.52561 6.01931 6.3048 6.5524C6.08398 7.08549 6.02621 7.67209 6.13878 8.23802C6.25135 8.80395 6.52921 9.32379 6.93722 9.7318C7.34523 10.1398 7.86506 10.4177 8.43099 10.5302C8.99692 10.6428 9.58352 10.585 10.1166 10.3642C10.6497 10.1434 11.1053 9.76947 11.4259 9.2897C11.7465 8.80993 11.9176 8.24587 11.9176 7.66886C11.9176 6.89511 11.6102 6.15304 11.0631 5.60592C10.516 5.05879 9.77391 4.75142 9.00016 4.75142ZM9.00016 9.12758C8.71165 9.12758 8.42962 9.04202 8.18974 8.88174C7.94985 8.72145 7.76288 8.49363 7.65248 8.22708C7.54207 7.96054 7.51318 7.66724 7.56947 7.38428C7.62575 7.10131 7.76468 6.84139 7.96869 6.63739C8.17269 6.43338 8.43261 6.29445 8.71557 6.23817C8.99854 6.18188 9.29184 6.21077 9.55838 6.32118C9.82493 6.43158 10.0527 6.61855 10.213 6.85844C10.3733 7.09832 10.4589 7.38035 10.4589 7.66886C10.4589 8.05573 10.3052 8.42676 10.0316 8.70033C9.75806 8.97389 9.38703 9.12758 9.00016 9.12758Z" fill="#989DA6"/>
</svg>
