<svg width="14" height="14" viewBox="0 0 14 14" fill="none" xmlns="http://www.w3.org/2000/svg">
<path d="M6.76525 1.27808C5.59609 1.27808 4.47482 1.74252 3.6481 2.56924C2.82138 3.39596 2.35693 4.51724 2.35693 5.68639C2.35693 8.66201 6.24176 12.0234 6.40708 12.1666C6.50689 12.252 6.63391 12.2989 6.76525 12.2989C6.89659 12.2989 7.02362 12.252 7.12343 12.1666C7.31629 12.0234 11.1736 8.66201 11.1736 5.68639C11.1736 4.51724 10.7091 3.39596 9.8824 2.56924C9.05568 1.74252 7.93441 1.27808 6.76525 1.27808V1.27808ZM6.76525 11.0039C5.59154 9.90185 3.45901 7.52687 3.45901 5.68639C3.45901 4.80952 3.80735 3.96857 4.42739 3.34853C5.04743 2.72849 5.88838 2.38016 6.76525 2.38016C7.64212 2.38016 8.48308 2.72849 9.10312 3.34853C9.72315 3.96857 10.0715 4.80952 10.0715 5.68639C10.0715 7.52687 7.93897 9.90736 6.76525 11.0039ZM6.76525 3.48223C6.32931 3.48223 5.90316 3.61151 5.54069 3.8537C5.17821 4.0959 4.8957 4.44014 4.72887 4.8429C4.56205 5.24566 4.5184 5.68884 4.60344 6.1164C4.68849 6.54397 4.89842 6.93671 5.20668 7.24497C5.51493 7.55323 5.90768 7.76315 6.33524 7.8482C6.76281 7.93325 7.20599 7.8896 7.60875 7.72277C8.0115 7.55594 8.35575 7.27343 8.59794 6.91096C8.84014 6.54849 8.96941 6.12234 8.96941 5.68639C8.96941 5.10181 8.73719 4.54118 8.32383 4.12782C7.91047 3.71446 7.34983 3.48223 6.76525 3.48223ZM6.76525 6.78847C6.54728 6.78847 6.3342 6.72384 6.15297 6.60274C5.97173 6.48164 5.83048 6.30952 5.74706 6.10814C5.66365 5.90676 5.64182 5.68517 5.68435 5.47139C5.72687 5.25761 5.83183 5.06123 5.98596 4.90711C6.14009 4.75298 6.33646 4.64801 6.55025 4.60549C6.76403 4.56297 6.98562 4.58479 7.187 4.66821C7.38838 4.75162 7.5605 4.89288 7.6816 5.07411C7.80269 5.25535 7.86733 5.46842 7.86733 5.68639C7.86733 5.97868 7.75122 6.259 7.54454 6.46568C7.33786 6.67236 7.05754 6.78847 6.76525 6.78847Z" fill="#727272"/>
</svg>
