<svg width="213" height="79" viewBox="0 0 213 79" fill="none" xmlns="http://www.w3.org/2000/svg">
<path d="M55.8384 73.5193C47.7019 73.0121 39.9731 69.6658 34.1679 64.1749C31.3141 61.479 29.023 58.4028 27.3349 55.0675H17.4585L1 41.4615L17.3724 26.4277H27.3808C32.8013 15.7877 44.0557 8.3176 57.027 7.92067C66.599 7.62848 75.5796 11.0355 82.3323 17.5242L84.876 19.9665L70.9515 37.0842L32.2558 33.3354C31.6357 35.309 31.2624 37.3819 31.1591 39.5209C31.0155 42.4979 31.3887 45.4088 32.2386 48.1653L70.9515 46.1034L84.8702 61.5287L82.3265 63.9709C75.327 70.6912 65.8238 74.1423 55.8384 73.5193ZM36.8552 56.0819C37.8256 57.4821 38.9453 58.7997 40.2085 60.0236C44.8539 64.5332 51.1242 67.2732 57.7161 67.6536C64.3309 68.034 70.6701 66.154 75.7863 62.3832L69.4471 53.4853L36.8552 56.0819ZM18.6184 34.3498C16.0977 36.6983 15.6555 37.3764 11.5672 41.4615C15.2593 45.5907 16.3962 46.8201 18.8424 49.1796C20.5707 49.5104 26.0486 49.1796 26.0486 49.1796C25.3596 46.2853 25.0725 43.2808 25.2218 40.2156C25.3194 38.2088 25.6065 36.2462 26.0659 34.3443H18.6184V34.3498ZM36.8954 27.4476L69.2231 31.1026L75.7921 21.1462C70.8654 17.5132 64.8534 15.6498 58.5085 15.8428C49.5336 16.1129 41.5981 20.6721 36.8954 27.4476Z" fill="#01A84D" stroke="#01A84D" stroke-width="0.551296" stroke-miterlimit="10"/>
<g opacity="0.3">
<path d="M39.8702 59.5627C38.7058 58.4431 37.7673 57.34 36.8536 56.0778L40.5271 55.9845C38.9864 53.8552 37.6417 50.0026 36.8534 47.5715L32.8244 47.7064C31.9406 44.9624 31.9759 43.472 32.1252 40.5085C32.2327 38.3792 32.836 35.6609 33.4749 33.6962L37.152 34.126C37.9582 31.6619 38.9136 29.6368 40.4363 27.5404L36.9841 27.2027C38.7098 23.5312 47.3943 18.7652 49.3171 17.9365C39.6135 21.7067 32.6149 30.3722 32.1073 40.5085C31.749 47.6483 34.5019 54.415 39.8523 59.5627C45.2087 64.7159 52.4223 67.5531 60.1733 67.5531H60.1793C52.4402 67.5531 45.2267 64.7159 39.8702 59.5627Z" fill="#232121"/>
</g>
<path d="M88.1947 37.1534L82.9555 36.1924C83.5961 33.874 84.7476 32.2267 86.4102 31.2506C87.8439 30.4117 89.8497 29.9922 92.4274 29.9922C96.8659 29.9922 99.6724 31.0675 100.847 33.2182C101.396 34.2096 101.655 35.9408 101.625 38.4117L101.556 45.161C101.541 48.0895 101.983 50.4842 102.883 52.345H97.1633C96.9955 51.9332 96.8049 51.3612 96.5913 50.6291C96.4846 50.263 96.4159 50.0418 96.3854 49.9656C94.4178 51.8874 92.1604 52.8483 89.6132 52.8483C87.5389 52.8483 85.8382 52.2992 84.5112 51.201C83.0775 50.0113 82.3606 48.4022 82.3606 46.3736C82.3606 43.7806 83.4817 41.9351 85.7238 40.8369C86.8067 40.3183 88.3396 39.8683 90.3225 39.487C93.0527 38.9837 94.9288 38.5108 95.9507 38.0685V37.4965C95.9507 36.2611 95.5923 35.4145 94.8754 34.957C94.3111 34.5909 93.3578 34.4079 92.0155 34.4079C90.1089 34.4079 88.8354 35.323 88.1947 37.1534ZM95.9507 41.8435C95.6914 41.9351 94.517 42.2172 92.4274 42.6901C90.7801 43.0714 89.7276 43.4222 89.2701 43.7425C88.5227 44.2611 88.149 44.9398 88.149 45.7787C88.149 46.6481 88.4617 47.365 89.087 47.9294C89.7124 48.4784 90.4674 48.753 91.352 48.753C92.4045 48.753 93.3959 48.4098 94.3263 47.7234C95.0279 47.2201 95.4931 46.5871 95.7219 45.8245C95.8745 45.3059 95.9507 44.3602 95.9507 42.9875V41.8435ZM112.881 52.345H107.093V30.4727H112.469V33.5842C113.217 32.3945 113.888 31.548 114.483 31.0447C115.322 30.343 116.313 29.9922 117.457 29.9922C118.784 29.9922 120.058 30.3507 121.278 31.0675L119.47 36.1238C118.494 35.4832 117.594 35.1629 116.771 35.1629C115.078 35.1629 113.949 36.1924 113.385 38.2515C113.049 39.426 112.881 41.874 112.881 45.5957V52.345ZM136.447 45.3898L142.212 46.3507C140.687 50.6825 137.514 52.8483 132.694 52.8483C128.881 52.8483 126.067 51.6052 124.252 49.1191C122.803 47.1362 122.079 44.6195 122.079 41.569C122.079 38.2744 122.917 35.5671 124.595 33.447C126.41 31.1438 128.919 29.9922 132.122 29.9922C135.829 29.9922 138.567 31.2887 140.336 33.8817C141.861 36.1391 142.586 39.2048 142.509 43.079H128.027C128.058 44.6195 128.462 45.8855 129.24 46.8769C130.094 47.9751 131.268 48.5242 132.763 48.5242C134.609 48.5242 135.836 47.4794 136.447 45.3898ZM136.767 39.5328C136.736 38.099 136.378 36.9169 135.692 35.9865C134.929 34.9341 133.854 34.4079 132.466 34.4079C131.078 34.4079 129.987 34.9265 129.194 35.9636C128.462 36.9093 128.103 38.099 128.119 39.5328H136.767ZM159.92 45.3898L165.686 46.3507C164.161 50.6825 160.988 52.8483 156.168 52.8483C152.355 52.8483 149.541 51.6052 147.726 49.1191C146.277 47.1362 145.552 44.6195 145.552 41.569C145.552 38.2744 146.391 35.5671 148.069 33.447C149.884 31.1438 152.393 29.9922 155.596 29.9922C159.303 29.9922 162.04 31.2887 163.81 33.8817C165.335 36.1391 166.06 39.2048 165.983 43.079H151.501C151.531 44.6195 151.936 45.8855 152.713 46.8769C153.568 47.9751 154.742 48.5242 156.237 48.5242C158.082 48.5242 159.31 47.4794 159.92 45.3898ZM160.241 39.5328C160.21 38.099 159.852 36.9169 159.165 35.9865C158.403 34.9341 157.327 34.4079 155.939 34.4079C154.551 34.4079 153.461 34.9265 152.668 35.9636C151.936 36.9093 151.577 38.099 151.592 39.5328H160.241ZM176.256 52.345H170.468V30.4727H175.844V33.5842C176.592 32.3945 177.263 31.548 177.857 31.0447C178.696 30.343 179.688 29.9922 180.832 29.9922C182.159 29.9922 183.432 30.3507 184.653 31.0675L182.845 36.1238C181.869 35.4832 180.969 35.1629 180.145 35.1629C178.452 35.1629 177.324 36.1924 176.759 38.2515C176.424 39.426 176.256 41.874 176.256 45.5957V52.345ZM185.11 46.099L190.921 45.2296C191.425 47.5175 192.98 48.6615 195.589 48.6615C198.349 48.6615 199.73 47.8683 199.73 46.2821C199.73 45.3974 198.952 44.7797 197.396 44.4289C192.698 43.3917 189.739 42.4537 188.519 41.6148C186.78 40.4403 185.911 38.8006 185.911 36.6958C185.911 34.3469 186.91 32.5852 188.908 31.4107C190.525 30.4651 192.599 29.9922 195.131 29.9922C197.694 29.9922 199.699 30.3583 201.148 31.0904C202.948 31.9903 204.168 33.5537 204.809 35.7806L199.341 36.7873C198.868 35.018 197.495 34.1333 195.223 34.1333C192.599 34.1333 191.287 34.7434 191.287 35.9636C191.287 36.3755 191.478 36.7263 191.859 37.0161C192.454 37.4432 194.307 38.0075 197.419 38.7091C200.454 39.3802 202.567 40.2191 203.756 41.2258C204.946 42.2325 205.541 43.6586 205.541 45.5042C205.541 47.9904 204.45 49.8893 202.269 51.201C200.47 52.2992 198.243 52.8483 195.589 52.8483C189.762 52.8483 186.269 50.5986 185.11 46.099Z" fill="#01A84D"/>
</svg>
