<svg width="19" height="18" viewBox="0 0 19 18" fill="none" xmlns="http://www.w3.org/2000/svg">
<path d="M14.632 4.72831H12.4325V3.99514C12.4325 3.60625 12.2781 3.23328 12.0031 2.95829C11.7281 2.6833 11.3551 2.52881 10.9662 2.52881H8.03355C7.64465 2.52881 7.27168 2.6833 6.99669 2.95829C6.7217 3.23328 6.56721 3.60625 6.56721 3.99514V4.72831H4.36771C3.78437 4.72831 3.22492 4.96004 2.81243 5.37253C2.39995 5.78501 2.16821 6.34447 2.16821 6.92781V13.5263C2.16821 14.1097 2.39995 14.6691 2.81243 15.0816C3.22492 15.4941 3.78437 15.7258 4.36771 15.7258H14.632C15.2154 15.7258 15.7748 15.4941 16.1873 15.0816C16.5998 14.6691 16.8315 14.1097 16.8315 13.5263V6.92781C16.8315 6.34447 16.5998 5.78501 16.1873 5.37253C15.7748 4.96004 15.2154 4.72831 14.632 4.72831ZM8.03355 3.99514H10.9662V4.72831H8.03355V3.99514ZM15.3652 13.5263C15.3652 13.7208 15.288 13.9072 15.1505 14.0447C15.013 14.1822 14.8265 14.2595 14.632 14.2595H4.36771C4.17327 14.2595 3.98678 14.1822 3.84929 14.0447C3.71179 13.9072 3.63455 13.7208 3.63455 13.5263V9.41325L7.06577 10.5936C7.14362 10.6042 7.22253 10.6042 7.30038 10.5936H11.6994C11.7789 10.5922 11.8578 10.5798 11.934 10.557L15.3652 9.41325V13.5263ZM15.3652 7.86626L11.5821 9.12731H7.41769L3.63455 7.86626V6.92781C3.63455 6.73336 3.71179 6.54688 3.84929 6.40938C3.98678 6.27189 4.17327 6.19464 4.36771 6.19464H14.632C14.8265 6.19464 15.013 6.27189 15.1505 6.40938C15.288 6.54688 15.3652 6.73336 15.3652 6.92781V7.86626Z" fill="#727272"/>
</svg>
