<svg width="20" height="20" viewBox="0 0 20 20" fill="none" xmlns="http://www.w3.org/2000/svg">
<path d="M19.2547 2.27798C18.5463 2.66508 17.7854 2.92558 16.9868 3.04308C17.8025 2.44193 18.4279 1.49012 18.7225 0.355224C17.9601 0.91174 17.1149 1.31615 16.2148 1.53475C15.4947 0.590217 14.4688 0 13.3334 0C11.1529 0 9.38537 2.17597 9.38537 4.85836C9.38537 5.23909 9.4209 5.6107 9.48752 5.96502C6.20639 5.76281 3.29756 3.82821 1.34946 0.888058C1.01046 1.60579 0.8158 2.44011 0.8158 3.33181C0.8158 5.01684 1.51229 6.50423 2.57146 7.37498C1.92456 7.34948 1.31541 7.13088 0.783233 6.76746C0.783233 6.78841 0.783233 6.80753 0.783233 6.82848C0.783233 9.18297 2.14365 11.1467 3.95038 11.5921C3.61953 11.7032 3.27017 11.7624 2.90971 11.7624C2.65584 11.7624 2.40788 11.7315 2.16733 11.6759C2.6699 13.606 4.12802 15.0114 5.85555 15.0505C4.50476 16.3539 2.80239 17.1309 0.951989 17.1309C0.633721 17.1309 0.319153 17.1081 0.00976562 17.0626C1.75728 18.4406 3.83195 19.2449 6.06205 19.2449C13.3245 19.2449 17.2947 11.8417 17.2947 5.42125C17.2947 5.21085 17.291 5.00136 17.2836 4.79278C18.0556 4.10693 18.7255 3.25166 19.2547 2.27798Z" fill="#275C45"/>
</svg>
