<svg width="20" height="20" viewBox="0 0 20 20" fill="none" xmlns="http://www.w3.org/2000/svg">
<path d="M6.11153 0C3.01711 0 0.5 2.51944 0.5 5.61466V13.6334C0.5 16.7278 3.01944 19.2449 6.11466 19.2449H14.1334C17.2278 19.2449 19.7449 16.7255 19.7449 13.6302V5.61153C19.7449 2.51711 17.2255 0 14.1302 0H6.11153ZM15.7355 3.20748C16.1782 3.20748 16.5374 3.56672 16.5374 4.00935C16.5374 4.45199 16.1782 4.81123 15.7355 4.81123C15.2929 4.81123 14.9337 4.45199 14.9337 4.00935C14.9337 3.56672 15.2929 3.20748 15.7355 3.20748ZM10.1225 4.81123C12.7758 4.81123 14.9337 6.96906 14.9337 9.62245C14.9337 12.2758 12.7758 14.4337 10.1225 14.4337C7.46906 14.4337 5.31123 12.2758 5.31123 9.62245C5.31123 6.96906 7.46906 4.81123 10.1225 4.81123ZM10.1225 6.41497C9.27177 6.41497 8.45594 6.7529 7.85442 7.35442C7.2529 7.95594 6.91497 8.77177 6.91497 9.62245C6.91497 10.4731 7.2529 11.289 7.85442 11.8905C8.45594 12.492 9.27177 12.8299 10.1225 12.8299C10.9731 12.8299 11.789 12.492 12.3905 11.8905C12.992 11.289 13.3299 10.4731 13.3299 9.62245C13.3299 8.77177 12.992 7.95594 12.3905 7.35442C11.789 6.7529 10.9731 6.41497 10.1225 6.41497Z" fill="#275C45"/>
</svg>
