<svg width="12" height="12" viewBox="0 0 12 12" fill="none" xmlns="http://www.w3.org/2000/svg">
<path d="M6.25865 0.325333C5.13631 0.325333 4.03917 0.658146 3.10598 1.28169C2.17278 1.90523 1.44545 2.79149 1.01595 3.8284C0.586443 4.86531 0.474066 6.00629 0.693024 7.10707C0.911982 8.20785 1.45244 9.21898 2.24606 10.0126C3.03967 10.8062 4.0508 11.3467 5.15158 11.5656C6.25236 11.7846 7.39334 11.6722 8.43025 11.2427C9.46716 10.8132 10.3534 10.0859 10.977 9.15267C11.6005 8.21948 11.9333 7.12234 11.9333 6C11.9333 5.25479 11.7865 4.51688 11.5014 3.8284C11.2162 3.13992 10.7982 2.51435 10.2712 1.9874C9.74431 1.46046 9.11874 1.04247 8.43025 0.757291C7.74177 0.472112 7.00386 0.325333 6.25865 0.325333V0.325333ZM6.25865 10.5397C5.36078 10.5397 4.48307 10.2735 3.73651 9.77465C2.98996 9.27582 2.40809 8.56681 2.06449 7.73728C1.72089 6.90775 1.63098 5.99496 1.80615 5.11434C1.98132 4.23372 2.41368 3.42482 3.04858 2.78992C3.68347 2.15503 4.49237 1.72266 5.37299 1.5475C6.25362 1.37233 7.16641 1.46223 7.99593 1.80583C8.82546 2.14943 9.53447 2.7313 10.0333 3.47786C10.5321 4.22441 10.7984 5.10212 10.7984 6C10.7984 7.20401 10.3201 8.35871 9.46873 9.21007C8.61736 10.0614 7.46266 10.5397 6.25865 10.5397V10.5397ZM6.25865 2.5952C6.10815 2.5952 5.96381 2.65499 5.85739 2.76141C5.75097 2.86783 5.69119 3.01216 5.69119 3.16267V5.67087L4.49951 6.3575C4.39019 6.41945 4.30452 6.51593 4.25594 6.6318C4.20736 6.74768 4.19861 6.87641 4.23106 6.99779C4.26352 7.11918 4.33534 7.22636 4.43528 7.30253C4.53521 7.3787 4.65759 7.41954 4.78324 7.41866C4.88265 7.41935 4.98049 7.39391 5.06697 7.34489L6.54239 6.49369L6.59346 6.44262L6.68425 6.36885C6.70644 6.34076 6.72547 6.31031 6.741 6.27806C6.75949 6.24759 6.77471 6.21526 6.7864 6.18159C6.80183 6.14551 6.81141 6.10719 6.81477 6.06809C6.81477 6.06809 6.82612 6 6.82612 6V3.16267C6.82612 3.01216 6.76633 2.86783 6.65991 2.76141C6.55349 2.65499 6.40915 2.5952 6.25865 2.5952Z" fill="#989DA6"/>
</svg>
