<svg width="20" height="20" viewBox="0 0 20 20" fill="none" xmlns="http://www.w3.org/2000/svg">
<path d="M9.87733 0C4.56334 0 0.254883 4.30845 0.254883 9.62245C0.254883 11.4276 0.761939 13.1106 1.62683 14.5543L0.341021 19.2449L5.13189 17.9873C6.53301 18.7839 8.1505 19.2449 9.87733 19.2449C15.1913 19.2449 19.4998 14.9364 19.4998 9.62245C19.4998 4.30845 15.1913 0 9.87733 0ZM6.58371 5.13385C6.74008 5.13385 6.90074 5.1329 7.03946 5.14012C7.21106 5.14413 7.39784 5.15669 7.57665 5.55202C7.78915 6.02191 8.25184 7.20073 8.31118 7.3202C8.37052 7.43968 8.41257 7.58044 8.32997 7.7368C8.25139 7.89717 8.21052 7.99424 8.09505 8.13617C7.97557 8.27409 7.84465 8.44539 7.7364 8.54963C7.61692 8.66911 7.49355 8.80012 7.63147 9.03827C7.76939 9.27643 8.24838 10.0572 8.95643 10.6874C9.86656 11.5005 10.6344 11.7504 10.8734 11.8699C11.1124 11.9894 11.2508 11.9707 11.3887 11.8104C11.5306 11.654 11.9847 11.1175 12.1451 10.8785C12.3015 10.6395 12.4611 10.6809 12.6776 10.7595C12.8973 10.8381 14.069 11.4152 14.308 11.5347C14.5469 11.6542 14.7036 11.7133 14.7637 11.8104C14.8255 11.9106 14.8255 12.3878 14.6275 12.9443C14.4294 13.5 13.4568 14.0373 13.0206 14.075C12.5804 14.1159 12.1695 14.2729 10.1592 13.4815C7.73438 12.5264 6.20515 10.0428 6.08567 9.88243C5.9662 9.72607 5.11466 8.59117 5.11466 7.42044C5.11466 6.2457 5.73058 5.67038 5.94629 5.43142C6.166 5.19246 6.42334 5.13385 6.58371 5.13385Z" fill="#275C45"/>
</svg>
