<?xml version="1.0" encoding="utf-8"?>
<!-- Generator: Adobe Illustrator 24.2.1, SVG Export Plug-In . SVG Version: 6.00 Build 0)  -->
<svg version="1.1" xmlns="http://www.w3.org/2000/svg" xmlns:xlink="http://www.w3.org/1999/xlink" x="0px" y="0px"
	 viewBox="0 0 500 500" style="enable-background:new 0 0 500 500;" xml:space="preserve">
<style type="text/css">
	.st0{fill:#F5F5F5;}
	.st1{fill:#E0E0E0;}
	.st2{display:none;}
	.st3{display:inline;}
	.st4{fill:#263238;}
	.st5{fill:#01A84D;}
	.st6{opacity:0.3;}
	.st7{fill:#EBEBEB;}
	.st8{fill:#FFFFFF;}
	.st9{fill:#455A64;}
	.st10{fill:#FF9A6C;}
	.st11{fill:#FFBF9D;}
</style>
<g id="Background_Complete">
	<g>
		<g>
			<g>
				<polygon class="st0" points="424.6,312.42 109.54,60.67 129.05,36.41 444.11,288.16 				"/>
			</g>
		</g>
		<g>
			<g>
				<polygon class="st0" points="430.13,296.89 447.01,275.9 450.13,295.69 453.25,315.49 433.25,316.68 413.24,317.88 				"/>
			</g>
		</g>
	</g>
	<g>
		<g>
			<g>
				
					<rect x="206.39" y="73.85" transform="matrix(0.7792 0.6268 -0.6268 0.7792 110.9799 -139.7326)" class="st0" width="94.83" height="27.58"/>
			</g>
		</g>
		<g>
			<g>
				<polygon class="st0" points="287,114.35 301.97,95.75 304.73,113.29 307.49,130.83 289.77,131.89 272.04,132.95 				"/>
			</g>
		</g>
	</g>
	<g>
		<g>
			<path class="st1" d="M120.73,277.19c12.55-12.93,26.6-20,44.55-21.56c-4.24-6.6-11.77-19.48-16.01-26.08
				c-22.56,0.12-40.08,12.84-51.94,31.8C105.67,267.36,112.39,271.18,120.73,277.19z"/>
		</g>
	</g>
	<g>
		<g>
			<path class="st1" d="M44.23,152.34c12.55-12.93,26.6-20,44.55-21.56c-4.24-6.6-11.77-19.48-16.01-26.08
				c-22.56,0.12-40.08,12.84-51.94,31.8C29.17,142.5,35.89,146.33,44.23,152.34z"/>
		</g>
	</g>
	<g>
		<g>
			<path class="st1" d="M299.53,383.76c12.55-12.93,26.6-20,44.55-21.56c-4.24-6.6-11.77-19.48-16.01-26.08
				c-22.56,0.12-40.08,12.84-51.94,31.8C284.47,373.93,291.19,377.76,299.53,383.76z"/>
		</g>
	</g>
	<g>
		<g>
			<path class="st1" d="M24.74,310.06c0.98,7.84,7,14.3,13.98,17.98c6.99,3.68,14.92,5.05,22.69,6.47
				c7.77,1.43,15.69,3.02,22.47,7.07l13.45-37.43c0,0-16.6-7.68-33.77-7c-13.9,0.55-24.93-17.86-24.93-17.86L24.74,310.06z"/>
		</g>
	</g>
</g>
<g id="Background_Simple" class="st2">
	<g class="st3">
		<path class="st0" d="M401.63,123.44l-1.99-3.28c-16.78-27.65-47.12-44.32-79.11-42.3c-4.11,0.26-8.21,0.82-12.25,1.68
			c-29.08,6.23-54.39,28.22-64.88,56.39c-6.17,16.57-7.89,35.64-19.6,48.79c-15.24,17.11-41.1,17.65-63.84,16.94
			s-48.63-0.1-63.79,17.08c-9.5,10.76-12.51,26.06-11.75,40.47c2.03,38.15,28.61,72.26,62.42,89.22
			c33.81,16.95,73.61,18.47,110.61,11.02c51.83-10.45,101.12-39.14,130.75-83.46C417.84,231.65,425.34,171.27,401.63,123.44z"/>
	</g>
</g>
<g id="Floor">
	<g>
		<g>
			<path class="st4" d="M479.17,470.27c0,0.14-102.61,0.26-229.15,0.26c-126.59,0-229.18-0.12-229.18-0.26
				c0-0.14,102.59-0.26,229.18-0.26C376.56,470.01,479.17,470.13,479.17,470.27z"/>
		</g>
	</g>
</g>
<g id="Bars">
	<g>
		<g>
			<rect x="250.68" y="274.66" class="st5" width="61.43" height="195.61"/>
		</g>
		<g class="st6">
			<rect x="293.06" y="274.66" width="19.04" height="195.61"/>
		</g>
		<g>
			<g>
				<path class="st4" d="M293.06,470.27c-0.14,0-0.26-43.3-0.26-96.7c0-53.42,0.12-96.71,0.26-96.71c0.14,0,0.26,43.29,0.26,96.71
					C293.33,426.98,293.21,470.27,293.06,470.27z"/>
			</g>
		</g>
	</g>
	<g>
		<g>
			<rect x="160.84" y="180.26" class="st5" width="61.43" height="290.22"/>
		</g>
		<g class="st6">
			<rect x="203.23" y="180.26" width="19.04" height="290.22"/>
		</g>
		<g>
			<g>
				<path class="st4" d="M203.23,470.48c-0.14,0-0.26-64.24-0.26-143.47c0-79.25,0.12-143.48,0.26-143.48
					c0.14,0,0.26,64.23,0.26,143.48C203.49,406.24,203.37,470.48,203.23,470.48z"/>
			</g>
		</g>
	</g>
	<g>
		<g>
			<rect x="349.66" y="387.85" class="st5" width="61.43" height="82.39"/>
		</g>
		<g class="st6">
			<rect x="392.05" y="387.85" width="19.04" height="82.39"/>
		</g>
		<g>
			<g>
				<path class="st4" d="M392.05,470.24c-0.14,0-0.26-18.24-0.26-40.73c0-22.5,0.12-40.73,0.26-40.73c0.14,0,0.26,18.23,0.26,40.73
					C392.31,452,392.19,470.24,392.05,470.24z"/>
			</g>
		</g>
	</g>
	<g>
		<g>
			<rect x="64.2" y="95.75" class="st5" width="61.43" height="374.29"/>
		</g>
		<g class="st6">
			<rect x="106.59" y="95.75" width="19.04" height="374.29"/>
		</g>
		<g>
			<g>
				<path class="st4" d="M106.59,471.56c-0.14,0-0.26-83.19-0.26-185.79c0-102.63,0.12-185.8,0.26-185.8s0.26,83.17,0.26,185.8
					C106.85,388.37,106.74,471.56,106.59,471.56z"/>
			</g>
		</g>
	</g>
</g>
<g id="Sheets">
	<g>
		<g>
			<g>
				<g>
					<path class="st1" d="M148.81,407.58c12.55-12.93,26.6-20,44.55-21.56c-4.24-6.6-11.77-19.48-16.01-26.08
						c-22.56,0.12-40.08,12.84-51.94,31.8C133.75,397.75,140.47,401.58,148.81,407.58z"/>
				</g>
			</g>
			<g>
				<g>
					<g>
						<path class="st4" d="M148.81,407.58c0,0.01-0.14-0.08-0.41-0.26c-0.3-0.21-0.71-0.48-1.23-0.83c-1.1-0.74-2.67-1.79-4.67-3.13
							c-4.06-2.71-10.11-6.38-17.22-11.44l-0.18-0.13l0.12-0.18c2.05-3.22,4.42-6.63,7.28-10.04c2.89-3.37,6.24-6.72,10.14-9.77
							c3.9-3.05,8.36-5.78,13.31-7.85c4.95-2.08,10.38-3.48,16.02-4.02c0.9-0.12,1.8-0.17,2.7-0.19c0.9-0.04,1.79-0.07,2.68-0.11
							l0.17-0.01l0.1,0.15c5.83,9.23,10.98,18.21,15.99,26.1l0.25,0.4l-0.47,0.04c-7.43,0.66-14.2,2.25-19.88,4.54
							c-5.72,2.22-10.34,5.06-13.97,7.63c-3.62,2.59-6.25,4.94-8.03,6.57c-0.86,0.82-1.53,1.45-2.01,1.91
							c-0.21,0.2-0.38,0.35-0.51,0.48C148.86,407.54,148.81,407.59,148.81,407.58s0.06-0.07,0.17-0.19
							c0.13-0.14,0.29-0.31,0.49-0.52c0.44-0.45,1.06-1.12,1.91-1.95c1.74-1.67,4.34-4.07,7.95-6.71c3.61-2.62,8.24-5.52,13.99-7.79
							c5.71-2.35,12.53-3.98,20.01-4.67l-0.22,0.44c-5.04-7.89-10.21-16.86-16.03-26.07l0.27,0.14c-0.88,0.04-1.76,0.07-2.65,0.11
							c-0.89,0.03-1.78,0.07-2.67,0.19c-5.58,0.54-10.95,1.92-15.84,3.97c-4.9,2.04-9.32,4.74-13.19,7.75
							c-3.88,3.01-7.22,6.33-10.1,9.66c-2.85,3.37-5.23,6.74-7.29,9.94l-0.06-0.31c7.06,5.1,13.08,8.82,17.09,11.6
							c2.02,1.38,3.56,2.48,4.61,3.24c0.49,0.37,0.87,0.66,1.16,0.87C148.67,407.46,148.8,407.57,148.81,407.58z"/>
					</g>
				</g>
			</g>
		</g>
		<g>
			<g>
				<g>
					<path class="st4" d="M135.77,386.84c0.11-0.14,3.75,2.46,8.13,5.8c4.39,3.34,7.86,6.16,7.75,6.3c-0.11,0.14-3.75-2.46-8.14-5.8
						C139.14,389.8,135.67,386.98,135.77,386.84z"/>
				</g>
			</g>
		</g>
		<g>
			<g>
				<g>
					<path class="st4" d="M140.39,380.99c0.12-0.13,3.51,2.78,7.59,6.5c4.07,3.72,7.28,6.83,7.17,6.96
						c-0.12,0.13-3.51-2.78-7.59-6.5C143.48,384.23,140.27,381.12,140.39,380.99z"/>
				</g>
			</g>
		</g>
		<g>
			<g>
				<g>
					<path class="st4" d="M147.28,375.51c0.07-0.06,0.83,0.75,2.04,2.07c1.21,1.32,2.9,3.11,4.78,5.09c1.88,1.97,3.56,3.8,4.7,5.19
						c1.15,1.38,1.78,2.3,1.72,2.35c-0.07,0.06-0.82-0.75-2.05-2.05c-1.4-1.46-3.03-3.17-4.83-5.05c-1.89-1.98-3.53-3.84-4.66-5.23
						C147.85,376.47,147.22,375.56,147.28,375.51z"/>
				</g>
			</g>
		</g>
		<g>
			<g>
				<g>
					<path class="st4" d="M166.36,388.08c-0.06,0.05-0.84-0.74-1.98-2.11c-1.14-1.37-2.63-3.35-4.14-5.61
						c-1.52-2.26-2.78-4.38-3.68-5.92c-0.89-1.54-1.42-2.51-1.35-2.56c0.17-0.11,2.56,3.6,5.55,8.12c1.5,2.25,2.92,4.25,3.97,5.69
						C165.77,387.14,166.43,388.03,166.36,388.08z"/>
				</g>
			</g>
		</g>
		<g>
			<g>
				<g>
					<path class="st4" d="M171.78,385.81c-0.07,0.05-0.71-0.74-1.64-2.09c-0.93-1.35-2.15-3.26-3.37-5.44
						c-1.22-2.18-2.21-4.22-2.87-5.72c-0.66-1.5-1-2.46-0.92-2.49c0.17-0.07,1.91,3.57,4.34,7.9
						C169.74,382.32,171.93,385.71,171.78,385.81z"/>
				</g>
			</g>
		</g>
		<g>
			<g>
				<g>
					<path class="st4" d="M179.04,383.46c-0.07,0.05-0.72-0.76-1.68-2.13c-0.96-1.36-2.24-3.29-3.56-5.46
						c-1.33-2.18-2.45-4.19-3.22-5.67c-0.77-1.48-1.2-2.42-1.12-2.47c0.08-0.04,0.64,0.83,1.51,2.25c0.99,1.63,2.12,3.5,3.37,5.56
						c1.26,2.05,2.4,3.92,3.4,5.55C178.59,382.51,179.11,383.41,179.04,383.46z"/>
				</g>
			</g>
		</g>
	</g>
	<g>
		<g>
			<g>
				<g>
					<path class="st7" d="M204.23,239.05c-10.66,14.82-23.69,23.99-41.45,28.21c5.23,5.99,14.69,17.78,19.91,23.77
						c22.59-3.47,38.26-18.82,47.33-39.57C220.78,246.68,213.48,243.84,204.23,239.05z"/>
				</g>
			</g>
			<g>
				<g>
					<g>
						<path class="st4" d="M204.23,239.05c0-0.01,0.15,0.06,0.45,0.2c0.33,0.16,0.78,0.38,1.35,0.65c1.21,0.58,2.94,1.4,5.15,2.45
							c4.47,2.12,11.07,4.89,18.96,8.91l0.19,0.1l-0.09,0.2c-1.57,3.53-3.45,7.3-5.8,11.14c-2.39,3.8-5.26,7.66-8.72,11.3
							c-3.46,3.63-7.52,7.03-12.18,9.85c-4.65,2.82-9.88,5.03-15.46,6.41c-0.88,0.26-1.78,0.44-2.67,0.59
							c-0.89,0.17-1.78,0.34-2.67,0.51l-0.17,0.03l-0.12-0.14c-7.22-8.39-13.71-16.62-19.89-23.78l-0.31-0.36l0.46-0.11
							c7.35-1.77,13.89-4.36,19.25-7.5c5.4-3.08,9.61-6.61,12.87-9.72c3.25-3.13,5.53-5.88,7.07-7.77c0.74-0.95,1.32-1.68,1.73-2.21
							c0.18-0.23,0.33-0.41,0.44-0.56C204.18,239.1,204.23,239.05,204.23,239.05c0,0.01-0.05,0.08-0.14,0.22
							c-0.11,0.16-0.25,0.35-0.42,0.6c-0.37,0.52-0.89,1.28-1.63,2.24c-1.5,1.93-3.75,4.72-6.97,7.91
							c-3.23,3.16-7.44,6.75-12.87,9.88c-5.38,3.2-11.97,5.85-19.36,7.65l0.15-0.47c6.22,7.16,12.73,15.38,19.93,23.75l-0.28-0.1
							c0.88-0.17,1.76-0.33,2.64-0.5c0.89-0.16,1.77-0.33,2.64-0.59c5.52-1.37,10.69-3.55,15.29-6.33
							c4.61-2.77,8.64-6.13,12.07-9.72c3.44-3.59,6.29-7.41,8.69-11.18c2.35-3.8,4.24-7.54,5.83-11.04l0.11,0.3
							c-7.84-4.06-14.41-6.9-18.85-9.09c-2.23-1.08-3.94-1.96-5.1-2.56c-0.54-0.3-0.97-0.53-1.29-0.7
							C204.39,239.15,204.23,239.07,204.23,239.05z"/>
					</g>
				</g>
			</g>
		</g>
		<g>
			<g>
				<g>
					<path class="st4" d="M220.37,257.91c-0.08,0.15-4.12-1.91-9.01-4.61c-4.89-2.7-8.79-5.01-8.71-5.16
						c0.08-0.15,4.12,1.91,9.01,4.61C216.55,255.45,220.45,257.76,220.37,257.91z"/>
				</g>
			</g>
		</g>
		<g>
			<g>
				<g>
					<path class="st4" d="M216.61,264.46c-0.1,0.14-3.93-2.27-8.57-5.39c-4.64-3.12-8.31-5.77-8.22-5.91
						c0.1-0.14,3.93,2.27,8.57,5.39C213.02,261.67,216.7,264.32,216.61,264.46z"/>
				</g>
			</g>
		</g>
		<g>
			<g>
				<g>
					<path class="st4" d="M210.51,270.98c-0.06,0.07-0.94-0.63-2.35-1.77c-1.41-1.14-3.36-2.69-5.54-4.39
						c-2.18-1.7-4.14-3.28-5.48-4.5c-1.35-1.22-2.12-2.04-2.07-2.1c0.06-0.07,0.94,0.64,2.36,1.76c1.61,1.25,3.5,2.72,5.59,4.35
						c2.18,1.7,4.11,3.32,5.45,4.55C209.8,270.1,210.57,270.92,210.51,270.98z"/>
				</g>
			</g>
		</g>
		<g>
			<g>
				<g>
					<path class="st4" d="M189.53,261.2c0.05-0.06,0.95,0.62,2.3,1.82c1.35,1.21,3.13,2.96,4.98,5.01c1.85,2.04,3.44,3.98,4.57,5.38
						c1.13,1.41,1.8,2.3,1.73,2.36c-0.15,0.14-3.1-3.23-6.76-7.32c-1.84-2.04-3.56-3.83-4.82-5.11
						C190.26,262.06,189.47,261.27,189.53,261.2z"/>
				</g>
			</g>
		</g>
		<g>
			<g>
				<g>
					<path class="st4" d="M184.43,264.28c0.06-0.06,0.82,0.64,1.95,1.85c1.13,1.21,2.64,2.95,4.18,4.95c1.55,2.01,2.85,3.9,3.73,5.3
						c0.88,1.4,1.37,2.31,1.3,2.36c-0.15,0.1-2.44-3.29-5.52-7.28C187,267.48,184.3,264.41,184.43,264.28z"/>
				</g>
			</g>
		</g>
		<g>
			<g>
				<g>
					<path class="st4" d="M177.51,267.72c0.06-0.06,0.83,0.66,1.99,1.88c1.17,1.23,2.73,2.96,4.38,4.95
						c1.65,1.98,3.08,3.83,4.07,5.2c0.99,1.37,1.56,2.25,1.49,2.3c-0.07,0.05-0.76-0.73-1.84-2.03c-1.23-1.49-2.65-3.19-4.21-5.07
						c-1.57-1.87-2.99-3.57-4.23-5.05C178.09,268.6,177.45,267.77,177.51,267.72z"/>
				</g>
			</g>
		</g>
	</g>
</g>
<g id="Speech_Bubble">
	<g>
		<g>
			<g>
				<g>
					<g>
						<g>
							<g>
								<path class="st8" d="M372.61,140.89c1.46,6.49,0.98,11.11-1.14,17.7c-0.35,1.1,5.16,9.69,5.16,9.69l-10.86-1.25
									c-3.81,4.43-8.34,6.17-14.49,7.55c-15.19,3.42-30.28-6.13-33.7-21.33c-3.42-15.19,6.13-30.28,21.33-33.7
									S369.19,125.7,372.61,140.89z"/>
							</g>
						</g>
					</g>
				</g>
			</g>
			<g>
				<g>
					<g>
						<g>
							<g>
								<g>
									<g>
										<g>
											<g>
												<g>
													<path class="st4" d="M338.91,119.56c0-0.01-0.17,0.02-0.48,0.1c-0.35,0.09-0.81,0.21-1.4,0.36
														c-0.31,0.08-0.65,0.16-1.03,0.28c-0.37,0.14-0.77,0.29-1.2,0.45c-0.44,0.17-0.9,0.34-1.4,0.53
														c-0.48,0.24-0.99,0.5-1.53,0.77c-2.14,1.1-4.68,2.72-7.08,5.19c-2.41,2.44-4.76,5.69-6.34,9.74
														c-1.54,4.04-2.34,8.88-1.7,13.96c0.23,1.26,0.37,2.55,0.78,3.81c0.19,0.63,0.32,1.29,0.56,1.91
														c0.24,0.63,0.49,1.26,0.73,1.89c1.11,2.48,2.48,4.96,4.38,7.13c1.86,2.19,4.08,4.17,6.61,5.81
														c2.56,1.59,5.41,2.83,8.45,3.59c3.03,0.78,6.26,1.06,9.48,0.73c0.81-0.02,1.61-0.2,2.41-0.33
														c0.8-0.13,1.61-0.28,2.4-0.49c1.58-0.42,3.14-0.99,4.65-1.68c3.28-1.51,6.2-3.64,8.63-6.15l-0.28,0.09
														c3.6,0.58,7.13,1.16,10.58,1.71l0.63,0.1l-0.3-0.56c-1.78-3.34-3.51-6.59-5.19-9.74l0.01,0.27
														c1.91-4.23,2.72-8.76,2.51-13.02c-0.1-2.13-0.41-4.21-0.99-6.16c-0.26-0.98-0.53-1.95-0.93-2.86
														c-0.18-0.46-0.36-0.92-0.54-1.37c-0.19-0.45-0.44-0.87-0.65-1.3c-3.52-6.88-9.23-11.27-14.38-13.35
														c-2.58-1.07-5.04-1.7-7.21-1.95c-0.54-0.07-1.07-0.13-1.57-0.19c-0.51-0.01-0.99-0.03-1.46-0.04
														c-0.46-0.01-0.91-0.02-1.33-0.03c-0.42,0.01-0.82,0.06-1.2,0.09c-0.75,0.07-1.43,0.09-2,0.19
														c-0.56,0.11-1.04,0.2-1.44,0.27c-0.36,0.07-0.65,0.13-0.88,0.18C339.01,119.53,338.91,119.55,338.91,119.56
														c0,0.01,0.1,0,0.3-0.03c0.23-0.03,0.52-0.07,0.88-0.13c0.4-0.06,0.88-0.14,1.44-0.22c0.57-0.08,1.24-0.08,1.99-0.14
														c2.97-0.12,7.51,0.06,12.61,2.27c5.06,2.11,10.65,6.47,14.07,13.24c0.21,0.42,0.44,0.84,0.63,1.28
														c0.17,0.45,0.35,0.9,0.52,1.35c0.39,0.89,0.65,1.84,0.9,2.81c0.56,1.91,0.85,3.96,0.95,6.04
														c0.18,4.18-0.62,8.61-2.5,12.75l-0.06,0.14l0.07,0.13c1.67,3.15,3.39,6.4,5.17,9.75l0.33-0.46
														c-3.45-0.56-6.98-1.14-10.58-1.73l-0.17-0.03l-0.12,0.12c-2.37,2.46-5.23,4.54-8.44,6.01c-1.47,0.68-3,1.23-4.55,1.64
														c-0.77,0.21-1.56,0.36-2.35,0.48c-0.79,0.13-1.56,0.3-2.36,0.32c-3.15,0.33-6.3,0.05-9.26-0.7
														c-2.97-0.74-5.76-1.95-8.27-3.5c-2.48-1.6-4.65-3.54-6.48-5.67c-1.86-2.12-3.21-4.55-4.31-6.98
														c-0.24-0.62-0.49-1.24-0.73-1.85c-0.24-0.61-0.37-1.26-0.56-1.88c-0.41-1.23-0.54-2.51-0.78-3.74
														c-0.65-4.98,0.11-9.73,1.6-13.72c1.53-4,3.82-7.21,6.18-9.65c2.35-2.46,4.84-4.1,6.94-5.22
														c0.53-0.28,1.03-0.54,1.5-0.79c0.49-0.2,0.95-0.38,1.38-0.56c0.43-0.17,0.82-0.33,1.19-0.48
														c0.37-0.13,0.71-0.21,1.01-0.31c0.58-0.18,1.04-0.31,1.38-0.42C338.76,119.63,338.91,119.57,338.91,119.56z"/>
												</g>
											</g>
										</g>
									</g>
								</g>
							</g>
						</g>
					</g>
				</g>
			</g>
		</g>
	</g>
	<g>
		<g>
			<path class="st4" d="M340.9,157.24l1.7-0.85l-0.42-5.8c-1.88-1.81-1.93-4.8-0.12-6.68c0.97-1,2.27-1.48,3.56-1.44l-0.17-0.42
				l3.09-5.07c-0.21-0.06-0.42-0.12-0.63-0.18l-0.63-2.58l-4.4,0.08l-0.54,2.61c-0.91,0.26-1.8,0.64-2.63,1.14l-2.27-1.38
				l-3.06,3.17l1.46,2.22c-0.47,0.85-0.82,1.75-1.05,2.67l-2.58,0.63l0.08,4.4l2.61,0.54c0.26,0.91,0.64,1.8,1.14,2.63l-1.38,2.27
				l3.17,3.06l2.23-1.46C340.32,156.97,340.61,157.11,340.9,157.24z"/>
		</g>
		<g>
			<path class="st4" d="M356.56,149.98l2.58-0.63l-0.08-4.4l-2.61-0.54c-0.26-0.91-0.64-1.8-1.14-2.63l1.38-2.27l-3.17-3.06
				l-2.23,1.46c-0.36-0.2-0.5-0.27-0.87-0.42l-3.02,4.73l0.21,0.39c0.94,0.14,1.09,0.53,1.83,1.24c1.88,1.81,1.93,4.8,0.12,6.68
				c-1.63,1.69-3.69,2.21-5.55,0.92l0,0l0.49,5.48l-1.08,0.99c0.26,0.09-0.27-0.07,0,0l0.63,2.58l4.4-0.08l0.54-2.61
				c0.91-0.26,1.8-0.64,2.63-1.14l2.27,1.38l3.06-3.17l-1.46-2.23C355.99,151.8,356.34,150.9,356.56,149.98z"/>
		</g>
	</g>
</g>
<g id="Character_1_">
	<g>
		<g>
			<path class="st4" d="M391.26,329.88c-2.82,0.53,23.55,52.92,23.55,52.92s4.72,23.3,5.62,34.57
				c0.91,11.27,10.86,39.16,10.86,39.16l23.69-2.17c0,0-7.88-74.46-11.5-89c-3.62-14.55-16.91-41.52-16.91-41.52l-12.74-27.27
				l-17.02,0.37L391.26,329.88z"/>
		</g>
		<g>
			<path class="st4" d="M364.1,295.06c-0.6,0.48-4.83,23.15-2.85,28.44l-5.27,50.7c0,0-10.41,19.32-13.12,22.95
				c-2.72,3.64-20.34,39.11-20.34,39.11l23.31,17.07c0,0,31.15-49.74,36.71-59.09c8.72-14.67,19.01-69.66,19.01-69.66l1.34-27.3
				L364.1,295.06z"/>
		</g>
		<g>
			<g>
				<g>
					<path class="st9" d="M406.59,304.3c0.01,0-0.03,0.27-0.14,0.78c-0.11,0.55-0.27,1.28-0.46,2.21c-0.43,1.96-1.03,4.72-1.77,8.12
						c-1.52,6.85-3.61,16.32-6.06,26.73c-2.45,10.42-4.82,19.8-6.64,26.55c-0.91,3.38-1.66,6.1-2.2,7.98
						c-0.26,0.91-0.47,1.63-0.63,2.16c-0.15,0.49-0.23,0.75-0.24,0.74c-0.01-0.01,0.04-0.27,0.17-0.77
						c0.14-0.54,0.32-1.27,0.56-2.18c0.5-1.94,1.21-4.67,2.08-8.02c1.74-6.78,4.08-16.16,6.52-26.58c2.4-10.4,4.58-19.82,6.17-26.69
						c0.79-3.38,1.44-6.13,1.9-8.08c0.23-0.92,0.4-1.65,0.54-2.19C406.5,304.56,406.57,304.3,406.59,304.3z"/>
				</g>
			</g>
		</g>
		<g>
			<g>
				<g>
					<g>
						<g>
							<g>
								<g>
									<g>
										<g>
											<g>
												<g>
													<g>
														<g>
															<g>
																<g>
																	<path class="st4" d="M450.08,439.04l0.18,19.57c0,0,19.95,6.39,20.33,10.01l-37.92,1.7l-1.52-30.47L450.08,439.04z
																		"/>
																</g>
															</g>
														</g>
													</g>
												</g>
											</g>
										</g>
									</g>
								</g>
							</g>
						</g>
					</g>
				</g>
				<g>
					<g>
						<g>
							<g>
								<g>
									<g>
										<g>
											<g>
												<g>
													<g>
														<g>
															<g>
																<g>
																	<g>
																		<path class="st1" d="M438.45,457.48c-0.73,0.23-1.2,1.08-0.99,1.82c0.2,0.73,1.06,1.22,1.79,1
																			c0.73-0.22,1.32-1.22,1.04-1.93c-0.28-0.71-1.32-1.22-1.98-0.83"/>
																	</g>
																</g>
															</g>
														</g>
													</g>
												</g>
											</g>
										</g>
									</g>
								</g>
							</g>
						</g>
					</g>
				</g>
				<g>
					<g>
						<g>
							<g>
								<g>
									<g>
										<g>
											<g>
												<g>
													<g>
														<g>
															<g>
																<g>
																	<path class="st9" d="M432.66,470.31l-0.03-3.08l36.37-0.48c0,0,1.72,0.66,1.58,1.86L432.66,470.31z"/>
																</g>
															</g>
														</g>
													</g>
												</g>
											</g>
										</g>
									</g>
								</g>
							</g>
						</g>
					</g>
				</g>
				<g>
					<g>
						<g>
							<g>
								<g>
									<g>
										<g>
											<g>
												<g>
													<g>
														<g>
															<g>
																<g>
																	<g>
																		<path class="st8" d="M450.86,458.38c0,0.19-0.92,0.31-1.8,0.95c-0.9,0.61-1.33,1.44-1.51,1.37
																			c-0.17-0.03,0.05-1.15,1.14-1.9C449.76,458.04,450.89,458.21,450.86,458.38z"/>
																	</g>
																</g>
															</g>
														</g>
													</g>
												</g>
											</g>
										</g>
									</g>
								</g>
							</g>
						</g>
					</g>
				</g>
				<g>
					<g>
						<g>
							<g>
								<g>
									<g>
										<g>
											<g>
												<g>
													<g>
														<g>
															<g>
																<g>
																	<g>
																		<path class="st8" d="M454.91,459.85c0.05,0.18-0.74,0.53-1.33,1.34c-0.62,0.79-0.74,1.65-0.92,1.65
																			c-0.17,0.04-0.35-1.04,0.41-2.04C453.81,459.8,454.9,459.67,454.91,459.85z"/>
																	</g>
																</g>
															</g>
														</g>
													</g>
												</g>
											</g>
										</g>
									</g>
								</g>
							</g>
						</g>
					</g>
				</g>
				<g>
					<g>
						<g>
							<g>
								<g>
									<g>
										<g>
											<g>
												<g>
													<g>
														<g>
															<g>
																<g>
																	<g>
																		<path class="st8" d="M457.38,464.51c-0.17,0.05-0.47-0.87-0.04-1.9c0.42-1.04,1.28-1.48,1.36-1.33
																			c0.11,0.15-0.43,0.72-0.77,1.57C457.58,463.7,457.57,464.48,457.38,464.51z"/>
																	</g>
																</g>
															</g>
														</g>
													</g>
												</g>
											</g>
										</g>
									</g>
								</g>
							</g>
						</g>
					</g>
				</g>
			</g>
		</g>
		<g>
			<g>
				<g>
					<g>
						<g>
							<g>
								<g>
									<g>
										<g>
											<g>
												<g>
													<g>
														<g>
															<g>
																<g>
																	<path class="st4" d="M346.95,439.41l-10.15,16.37c0,0,13.56,15.35,11.99,18.55l-33.08-17.66l14.75-26.13
																		L346.95,439.41z"/>
																</g>
															</g>
														</g>
													</g>
												</g>
											</g>
										</g>
									</g>
								</g>
							</g>
						</g>
					</g>
				</g>
				<g>
					<g>
						<g>
							<g>
								<g>
									<g>
										<g>
											<g>
												<g>
													<g>
														<g>
															<g>
																<g>
																	<g>
																		<path class="st1" d="M327.37,448.92c-0.74-0.17-1.58,0.3-1.8,1.01c-0.21,0.71,0.26,1.55,0.99,1.73
																			c0.73,0.18,1.77-0.35,1.9-1.08c0.13-0.73-0.48-1.68-1.24-1.69"/>
																	</g>
																</g>
															</g>
														</g>
													</g>
												</g>
											</g>
										</g>
									</g>
								</g>
							</g>
						</g>
					</g>
				</g>
				<g>
					<g>
						<g>
							<g>
								<g>
									<g>
										<g>
											<g>
												<g>
													<g>
														<g>
															<g>
																<g>
																	<path class="st9" d="M315.7,456.68l1.59-2.58L348.42,472c0,0,1.11,1.41,0.37,2.34L315.7,456.68z"/>
																</g>
															</g>
														</g>
													</g>
												</g>
											</g>
										</g>
									</g>
								</g>
							</g>
						</g>
					</g>
				</g>
				<g>
					<g>
						<g>
							<g>
								<g>
									<g>
										<g>
											<g>
												<g>
													<g>
														<g>
															<g>
																<g>
																	<g>
																		<path class="st8" d="M337.43,455.9c-0.1,0.16-0.94-0.2-2.03-0.12c-1.09,0.06-1.89,0.52-2,0.38
																			c-0.13-0.11,0.65-0.93,1.97-1.01C336.68,455.07,337.55,455.78,337.43,455.9z"/>
																	</g>
																</g>
															</g>
														</g>
													</g>
												</g>
											</g>
										</g>
									</g>
								</g>
							</g>
						</g>
					</g>
				</g>
				<g>
					<g>
						<g>
							<g>
								<g>
									<g>
										<g>
											<g>
												<g>
													<g>
														<g>
															<g>
																<g>
																	<g>
																		<path class="st8" d="M340.1,459.16c-0.05,0.17-0.9,0.07-1.84,0.45c-0.94,0.35-1.49,1-1.65,0.91
																			c-0.17-0.06,0.25-1.04,1.42-1.49C339.19,458.57,340.18,459.01,340.1,459.16z"/>
																	</g>
																</g>
															</g>
														</g>
													</g>
												</g>
											</g>
										</g>
									</g>
								</g>
							</g>
						</g>
					</g>
				</g>
				<g>
					<g>
						<g>
							<g>
								<g>
									<g>
										<g>
											<g>
												<g>
													<g>
														<g>
															<g>
																<g>
																	<g>
																		<path class="st8" d="M339.74,464.29c-0.17-0.04,0.06-0.96,0.97-1.6c0.91-0.65,1.86-0.59,1.86-0.42
																			c0.02,0.18-0.74,0.38-1.48,0.92C340.34,463.71,339.91,464.36,339.74,464.29z"/>
																	</g>
																</g>
															</g>
														</g>
													</g>
												</g>
											</g>
										</g>
									</g>
								</g>
							</g>
						</g>
					</g>
				</g>
				<g>
					<g>
						<g>
							<g>
								<g>
									<g>
										<g>
											<g>
												<g>
													<g>
														<g>
															<g>
																<g>
																	<g>
																		<path class="st8" d="M339.32,451.93c-0.15,0.11-0.77-0.51-1.71-0.93c-0.94-0.45-1.82-0.52-1.83-0.71
																			c-0.03-0.16,1-0.38,2.11,0.14C339,450.94,339.47,451.85,339.32,451.93z"/>
																	</g>
																</g>
															</g>
														</g>
													</g>
												</g>
											</g>
										</g>
									</g>
								</g>
							</g>
						</g>
					</g>
				</g>
			</g>
		</g>
		<g>
			<path class="st1" d="M447.67,193.4c0,0,5.15,22.23,6.11,33.8c0.27,3.2-0.92,7.47-4.7,8.02c-12.43,1.82-40.49-3.65-40.49-3.65
				l-0.88-26.62l28.21,10.69l-1.66-22.24H447.67z"/>
		</g>
		<g>
			<path class="st10" d="M433.99,186.48c0,0-2.26-3.13-3.08-4.96c-0.82-1.83-0.58-4.75-0.58-4.75s-2.3-2.48-3.52-4.73
				c-1.22-2.25,1-2.73,2.06-1.76c1.13,1.04,5.86,6.75,5.86,6.75l3.09,9.29L433.99,186.48z"/>
		</g>
		<g>
			<g>
				<g>
					<g>
						<g>
							<g>
								<g>
									<g>
										<g>
											<g>
												<g>
													<g>
														<g>
															<g>
																<g>
																	<g>
																		<g>
																			<g>
																				<path class="st4" d="M393.71,177.15c0.05-4.03,0.13-8.07,0.87-12.03c0.74-3.96,2.19-7.85,4.73-10.98
																					c0.39-0.47,3.33-3.53,3.89-3.27c0.4,0.18-1.81,3.21-1.72,3.64c0.83,4.08-0.02,8.36-1.67,12.18
																					C398.16,170.51,396.15,173.77,393.71,177.15"/>
																			</g>
																		</g>
																	</g>
																</g>
															</g>
														</g>
													</g>
												</g>
											</g>
										</g>
									</g>
									<g>
										<g>
											<g>
												<g>
													<g>
														<g>
															<g>
																<g>
																	<g>
																		<path class="st11" d="M407.94,205.53c0.94-2.68,1.69-4.8,1.71-4.79c0,0,9.56,2.2,13.27-6.75
																			c1.79-4.32,4.76-13.52,7.34-21.88c2.78-8.99-1.81-18.61-10.54-22.1l-0.87-0.35c-9.58-3.2-17.65,3.15-20.58,12.82
																			l-11.33,33.48l3.87,9.94C393.89,213.8,405.18,213.57,407.94,205.53L407.94,205.53z"/>
																	</g>
																</g>
															</g>
														</g>
													</g>
												</g>
											</g>
										</g>
									</g>
									<g>
										<g>
											<g>
												<g>
													<g>
														<g>
															<g>
																<g>
																	<g>
																		<g>
																			<g>
																				<g>
																					<g>
																						<path class="st10" d="M409.65,200.74c0,0-5.8-1.94-10.33-8.15c0,0,0.24,7.69,9.54,10.47L409.65,200.74z"/>
																					</g>
																				</g>
																			</g>
																		</g>
																	</g>
																</g>
															</g>
														</g>
													</g>
												</g>
											</g>
										</g>
									</g>
									<g>
										<g>
											<g>
												<g>
													<g>
														<g>
															<g>
																<g>
																	<g>
																		<g>
																			<g>
																				<g>
																					<g>
																						<g>
																							<g>
																								<g>
																									<g>
																										<g>
																											<g>
																												<path class="st4" d="M424.34,179.05c-0.25,0.69-1.03,1.05-1.76,0.8c-0.72-0.24-1.11-1-0.86-1.69
																													c0.25-0.69,1.03-1.05,1.76-0.8C424.2,177.6,424.58,178.36,424.34,179.05z"/>
																											</g>
																										</g>
																									</g>
																								</g>
																							</g>
																						</g>
																					</g>
																				</g>
																			</g>
																		</g>
																	</g>
																</g>
															</g>
														</g>
													</g>
												</g>
											</g>
										</g>
									</g>
									<g>
										<g>
											<g>
												<g>
													<g>
														<g>
															<g>
																<g>
																	<g>
																		<g>
																			<g>
																				<g>
																					<g>
																						<g>
																							<g>
																								<g>
																									<g>
																										<g>
																											<g>
																												<g>
																													<path class="st4" d="M426.85,175.06c-0.23,0.1-0.91-1.01-2.3-1.56c-1.37-0.57-2.67-0.26-2.76-0.49
																														c-0.04-0.1,0.24-0.34,0.81-0.49c0.56-0.15,1.43-0.16,2.29,0.19c0.86,0.35,1.46,0.96,1.74,1.45
																														C426.93,174.66,426.95,175.02,426.85,175.06z"/>
																												</g>
																											</g>
																										</g>
																									</g>
																								</g>
																							</g>
																						</g>
																					</g>
																				</g>
																			</g>
																		</g>
																	</g>
																</g>
															</g>
														</g>
													</g>
												</g>
											</g>
										</g>
									</g>
									<g>
										<g>
											<g>
												<g>
													<g>
														<g>
															<g>
																<g>
																	<g>
																		<g>
																			<g>
																				<g>
																					<g>
																						<g>
																							<g>
																								<g>
																									<g>
																										<g>
																											<g>
																												<path class="st4" d="M412.39,174.86c-0.25,0.69-1.03,1.05-1.76,0.8c-0.72-0.24-1.11-1-0.86-1.69
																													c0.25-0.69,1.03-1.05,1.76-0.8C412.26,173.42,412.64,174.18,412.39,174.86z"/>
																											</g>
																										</g>
																									</g>
																								</g>
																							</g>
																						</g>
																					</g>
																				</g>
																			</g>
																		</g>
																	</g>
																</g>
															</g>
														</g>
													</g>
												</g>
											</g>
										</g>
									</g>
									<g>
										<g>
											<g>
												<g>
													<g>
														<g>
															<g>
																<g>
																	<g>
																		<g>
																			<g>
																				<g>
																					<g>
																						<g>
																							<g>
																								<g>
																									<g>
																										<g>
																											<g>
																												<g>
																													<path class="st4" d="M413.78,170.4c-0.23,0.1-0.91-1.01-2.3-1.56c-1.37-0.57-2.67-0.26-2.76-0.49
																														c-0.04-0.1,0.24-0.34,0.81-0.49c0.56-0.15,1.43-0.16,2.29,0.19c0.86,0.35,1.46,0.96,1.74,1.45
																														C413.86,170,413.89,170.36,413.78,170.4z"/>
																												</g>
																											</g>
																										</g>
																									</g>
																								</g>
																							</g>
																						</g>
																					</g>
																				</g>
																			</g>
																		</g>
																	</g>
																</g>
															</g>
														</g>
													</g>
												</g>
											</g>
										</g>
									</g>
									<g>
										<g>
											<g>
												<g>
													<g>
														<g>
															<g>
																<g>
																	<g>
																		<g>
																			<g>
																				<g>
																					<g>
																						<g>
																							<g>
																								<g>
																									<g>
																										<g>
																											<g>
																												<path class="st4" d="M413.79,182.81c0.02-0.08,0.94,0.11,2.41,0.49c0.37,0.1,0.73,0.17,0.89-0.05
																													c0.19-0.22,0.19-0.66,0.18-1.14c0.01-0.99,0.02-2.02,0.03-3.11c0.08-4.41,0.29-7.97,0.47-7.97
																													c0.18,0.01,0.26,3.58,0.17,7.99c-0.03,1.08-0.05,2.12-0.08,3.1c-0.03,0.45,0.02,1-0.37,1.46
																													c-0.2,0.23-0.54,0.31-0.79,0.28c-0.25-0.02-0.45-0.1-0.63-0.16
																													C414.64,183.23,413.76,182.89,413.79,182.81z"/>
																											</g>
																										</g>
																									</g>
																								</g>
																							</g>
																						</g>
																					</g>
																				</g>
																			</g>
																		</g>
																	</g>
																</g>
															</g>
														</g>
													</g>
												</g>
											</g>
										</g>
									</g>
									<g>
										<g>
											<g>
												<g>
													<g>
														<g>
															<g>
																<g>
																	<g>
																		<g>
																			<g>
																				<g>
																					<g>
																						<g>
																							<g>
																								<path class="st4" d="M409.58,164.05c0.2-0.38,1.65-0.01,3.41,0c1.76,0.05,3.22-0.28,3.41,0.1
																									c0.08,0.19-0.21,0.53-0.83,0.85c-0.61,0.32-1.55,0.57-2.6,0.56c-1.05-0.02-1.99-0.3-2.59-0.64
																									C409.78,164.59,409.5,164.23,409.58,164.05z"/>
																							</g>
																						</g>
																					</g>
																				</g>
																			</g>
																		</g>
																	</g>
																</g>
															</g>
														</g>
													</g>
												</g>
											</g>
										</g>
									</g>
									<g>
										<g>
											<g>
												<g>
													<g>
														<g>
															<g>
																<g>
																	<g>
																		<g>
																			<g>
																				<g>
																					<g>
																						<g>
																							<g>
																								<path class="st4" d="M425.32,165.95c0.42-0.07,0.94,0.88,1.83,1.73c0.86,0.88,1.83,1.38,1.76,1.8
																									c-0.04,0.2-0.39,0.33-0.94,0.26c-0.55-0.07-1.28-0.39-1.88-0.98c-0.6-0.6-0.94-1.32-1.02-1.86
																									C424.99,166.35,425.12,165.99,425.32,165.95z"/>
																							</g>
																						</g>
																					</g>
																				</g>
																			</g>
																		</g>
																	</g>
																</g>
															</g>
														</g>
													</g>
												</g>
											</g>
										</g>
									</g>
									<g>
										<g>
											<g>
												<g>
													<g>
														<g>
															<g>
																<g>
																	<g>
																		<g>
																			<g>
																				<path class="st11" d="M396.34,169.43c-0.13-0.13-5.45-4.3-7.71,1.93c-2.26,6.23,4.46,7.22,4.53,7.04
																					C393.24,178.22,396.34,169.43,396.34,169.43z"/>
																			</g>
																		</g>
																	</g>
																</g>
															</g>
														</g>
													</g>
												</g>
											</g>
										</g>
									</g>
									<g>
										<g>
											<g>
												<g>
													<g>
														<g>
															<g>
																<g>
																	<g>
																		<g>
																			<g>
																				<g>
																					<path class="st10" d="M392.12,175.34c-0.02-0.03-0.14,0.04-0.35,0.05c-0.21,0.02-0.54-0.04-0.82-0.28
																						c-0.57-0.48-0.74-1.73-0.37-2.86c0.19-0.57,0.51-1.07,0.87-1.44c0.36-0.39,0.77-0.6,1.12-0.54
																						c0.36,0.04,0.52,0.33,0.53,0.53c0.02,0.2-0.06,0.31-0.04,0.34c0.01,0.02,0.17-0.06,0.21-0.33
																						c0.02-0.13,0-0.31-0.1-0.48c-0.11-0.18-0.3-0.32-0.54-0.38c-0.49-0.14-1.09,0.14-1.48,0.55
																						c-0.43,0.4-0.79,0.96-1.01,1.6c-0.42,1.27-0.2,2.68,0.61,3.27c0.4,0.27,0.81,0.27,1.05,0.2
																						C392.05,175.49,392.13,175.36,392.12,175.34z"/>
																				</g>
																			</g>
																		</g>
																	</g>
																</g>
															</g>
														</g>
													</g>
												</g>
											</g>
										</g>
									</g>
									<g>
										<g>
											<g>
												<g>
													<g>
														<g>
															<g>
																<g>
																	<g>
																		<g>
																			<g>
																				<path class="st4" d="M429.88,160.31c1.21-0.2-0.67-4.55-2.76-6.55c-3.15-3.03-8.52-6.11-12.33-6.35
																					c-4.59-0.29-8.79,0.56-12.22,3.61c-3.43,3.06-5.78,7.2-7.19,11.57c-0.43,1.33-0.78,2.76-0.47,4.13
																					c0.38,1.69,1.75,3.15,1,5.03c-0.27,0.69-0.32,1.46-0.03,2.14c0.71,1.62,2.52,0.97,3.56,0.05
																					c2.24-1.96,3.42-4.83,4.54-7.59c0.79-1.96,1.59-3.97,1.71-6.08c0.06-1.15-0.08-2.31,0.05-3.45
																					c0.13-1.14,0.58-2.33,1.55-2.96c0.16-0.1,0.4-0.22,0.69-0.33c2.32-0.93,4.96-0.51,6.9,1.05
																					c3.08,2.49,8.43,6.47,10.42,5.83c2.87-0.92,3.8-1.85,3.8-1.85L429.88,160.31z"/>
																			</g>
																		</g>
																	</g>
																</g>
															</g>
														</g>
													</g>
												</g>
											</g>
										</g>
									</g>
								</g>
							</g>
						</g>
					</g>
				</g>
			</g>
		</g>
		<g>
			<path class="st1" d="M412.84,245.84l-1.85-36.47l-3.48-5.54c-3.17-3.17-19.16-13.76-19.16-13.76l-3.63,5.67
				c0,0-9.07,4.99-13.38,13.6c-4.31,8.62-5.21,27.66-5.89,33.1s3.4,46.71,3.17,48.52c-0.23,1.81-1.27,10.24-1.27,10.24l21.22,2.3
				l27.4-1.54l2.43-4.69L412.84,245.84z"/>
		</g>
		<g>
			<g>
				<path class="st4" d="M411.09,211.22c0.02,0,0.04,0.16,0.07,0.48c0.03,0.37,0.06,0.82,0.1,1.37c0.08,1.27,0.18,2.97,0.31,5.03
					c0.27,4.33,0.63,10.16,1.04,16.6c0.39,6.49,0.72,12.36,0.88,16.62c0.08,2.13,0.13,3.85,0.15,5.04c0,0.55,0,1,0,1.37
					c-0.01,0.31-0.02,0.48-0.04,0.48c-0.02,0-0.04-0.16-0.07-0.48c-0.03-0.37-0.06-0.82-0.1-1.37c-0.08-1.27-0.18-2.97-0.31-5.03
					c-0.27-4.33-0.63-10.16-1.04-16.61c-0.39-6.49-0.72-12.36-0.88-16.62c-0.08-2.13-0.13-3.85-0.15-5.04c0-0.55,0-1,0-1.37
					C411.06,211.38,411.07,211.22,411.09,211.22z"/>
			</g>
		</g>
		<g class="st6">
			<path d="M369.98,262.4c0,0,1.54,18.53,11.04,19.17c13.24,0.89,32.58-20.79,32.58-20.79l-0.62-9.22l-29.7,17.53L369.98,262.4z"/>
		</g>
		<g>
			<g>
				<path class="st1" d="M373.85,214.5c-3.85,6.88-4.66,32.23-5.39,41.33c-0.79,9.74,3.93,20.98,11.57,21.59
					c13.36,1.07,40.69-33.23,40.69-33.23l-12.12-12.61l-16.89,12.96c0,0,6.83-23.16,4.62-30.32"/>
			</g>
			<g>
				<g>
					<path class="st4" d="M396.32,214.22c0,0,0.06,0.18,0.14,0.53c0.06,0.35,0.25,0.87,0.27,1.58c0.18,1.41,0.1,3.5-0.15,6.16
						c-0.56,5.33-2.11,12.92-4.69,22.1l-0.3-0.21c5.04-3.88,10.7-8.25,16.86-12.99l0.16-0.13l0.14,0.15
						c3.79,3.93,7.87,8.17,12.13,12.6l0.15,0.16l-0.14,0.17c-5.2,6.39-11.12,13.04-17.77,19.4c-4.83,4.54-9.77,8.84-15.34,11.8
						c-1.4,0.73-2.84,1.36-4.35,1.74c-1.5,0.38-3.11,0.58-4.62,0.18c-1.5-0.37-2.88-1.11-4.03-2.07c-1.11-1-2.1-2.12-2.86-3.37
						c-1.59-2.45-2.5-5.17-3.1-7.83c-0.58-2.68-0.78-5.36-0.62-7.92c0.34-5.09,0.66-9.84,0.96-14.17
						c0.63-8.66,1.41-15.66,2.39-20.43c0.45-2.39,1.02-4.2,1.46-5.4c0.49-1.18,0.83-1.77,0.83-1.77s-0.05,0.16-0.18,0.46
						c-0.11,0.31-0.35,0.73-0.55,1.34c-0.4,1.21-0.94,3.02-1.35,5.41c-0.92,4.76-1.64,11.76-2.22,20.42
						c-0.27,4.33-0.57,9.08-0.89,14.17c-0.15,2.53,0.05,5.16,0.63,7.8c0.6,2.62,1.51,5.3,3.06,7.67c0.74,1.21,1.7,2.29,2.77,3.25
						c1.11,0.92,2.41,1.62,3.82,1.96c1.42,0.38,2.93,0.18,4.38-0.19c1.46-0.37,2.87-0.99,4.24-1.71
						c5.48-2.93,10.41-7.21,15.22-11.73c6.62-6.34,12.54-12.97,17.73-19.33l0.02,0.33c-4.25-4.43-8.33-8.69-12.1-12.62l0.31,0.02
						c-6.18,4.72-11.86,9.07-16.91,12.93l-0.46,0.35l0.16-0.56c2.62-9.14,4.23-16.71,4.84-22.01c0.29-2.65,0.4-4.73,0.25-6.13
						c0-0.71-0.17-1.22-0.22-1.58C396.34,214.4,396.32,214.22,396.32,214.22z"/>
				</g>
			</g>
		</g>
		<g>
			<g>
				<path class="st11" d="M446.37,193.4l-5.65-20.06l-2.92-8.62l-5.36-6.27c0,0-0.89,1.29-0.54,2.6c0.35,1.31,1.73,3.67,1.73,3.67
					l-4.91-4.21c0,0-1.55,1.12-0.32,2.91c1.23,1.79,4.16,4.64,4.37,4.78c0.2,0.14-7.17-2.83-7.17-2.83s-0.89,1.71,2.2,3.44
					l3.91,2.31l0.69,1.52l-5.39-2.63c0,0-1.23,1.67,0.36,2.91c1.59,1.24,4.85,3.03,4.85,3.03l0.75,2.02c0,0,0.37,5.78,1.09,8.9
					l1.93,2.8l-0.07,3.74H446.37z"/>
			</g>
			<g>
				<g>
					<path class="st10" d="M446.37,193.4c0.01,0-0.05,0.01-0.16,0.01c-0.14,0-0.3,0.01-0.51,0.01c-0.49,0.01-1.16,0.02-2.01,0.03
						c-1.83,0.02-4.45,0.05-7.76,0.09l-0.15,0l0-0.15c0.01-1.14,0.03-2.4,0.05-3.74l0.03,0.1c-0.61-0.88-1.26-1.81-1.94-2.79
						l-0.02-0.03l-0.01-0.03c-0.58-2.64-0.87-5.66-1.13-8.92l0.01,0.06c-0.23-0.62-0.49-1.31-0.76-2.02l0.1,0.12
						c-1.24-0.69-2.5-1.42-3.76-2.25c-0.32-0.21-0.63-0.42-0.94-0.66c-0.31-0.22-0.65-0.52-0.85-0.91c-0.44-0.8-0.22-1.76,0.26-2.47
						l0.11-0.16l0.19,0.09c1.7,0.83,3.53,1.71,5.39,2.62l-0.34,0.33c-0.22-0.47-0.45-0.99-0.69-1.52l0.1,0.11
						c-1.24-0.73-2.51-1.47-3.8-2.24c-0.66-0.38-1.33-0.81-1.86-1.44c-0.51-0.61-0.92-1.5-0.55-2.41l0.09-0.22l0.24,0.1
						c2.16,0.86,4.44,1.77,6.76,2.69l0.3,0.11l0.06,0.02l-0.05-0.01c-0.07,0-0.17,0.05-0.2,0.11c-0.04,0.03-0.08,0.22,0,0.31
						c0.1,0.09,0.03,0.03,0.05,0.05l-0.01,0l-0.04-0.03l-0.13-0.12l-0.47-0.45l-0.92-0.92c-0.6-0.62-1.19-1.25-1.74-1.9
						c-0.54-0.67-1.13-1.27-1.49-2.15c-0.16-0.44-0.18-0.94-0.04-1.4c0.15-0.45,0.42-0.83,0.8-1.13l0.16-0.12l0.16,0.14
						c1.67,1.43,3.3,2.84,4.9,4.21l-0.38,0.32c-0.58-1.03-1.13-2.04-1.55-3.12c-0.22-0.52-0.36-1.18-0.25-1.77
						c0.09-0.6,0.31-1.14,0.63-1.64l0.17-0.27l0.21,0.25c1.87,2.19,3.65,4.29,5.35,6.28l0.03,0.03l0.01,0.04
						c0.72,2.13,1.4,4.18,2.05,6.12c0.32,0.98,0.66,1.91,0.93,2.85c0.26,0.94,0.51,1.86,0.76,2.74c0.97,3.53,1.81,6.61,2.51,9.16
						c0.67,2.49,1.21,4.47,1.58,5.85c0.17,0.64,0.3,1.15,0.4,1.52C446.34,193.24,446.38,193.41,446.37,193.4
						c-0.01-0.01-0.07-0.19-0.18-0.55c-0.11-0.38-0.27-0.9-0.46-1.56c-0.41-1.38-0.98-3.35-1.71-5.85
						c-0.73-2.51-1.61-5.55-2.62-9.03c-0.25-0.87-0.51-1.77-0.77-2.69c-0.28-0.92-0.63-1.86-0.95-2.83
						c-0.66-1.94-1.36-3.98-2.09-6.1l0.04,0.07c-1.7-1.98-3.5-4.07-5.38-6.26l0.38-0.02c-0.54,0.87-0.8,1.97-0.32,2.96
						c0.41,1.03,0.95,2.04,1.52,3.04l0.72,1.26l-1.1-0.94c-1.6-1.37-3.24-2.77-4.91-4.2l0.32,0.01c-0.57,0.44-0.86,1.24-0.58,1.94
						c0.27,0.69,0.87,1.34,1.4,1.98c0.55,0.64,1.13,1.26,1.72,1.88l0.91,0.91l0.46,0.44l0.11,0.1l0.02,0.02l0,0l-0.04,0.06
						c-0.05,0.05,0.11-0.13,0.1-0.01c0.15,0.28-0.04,0.42-0.2,0.43c-0.11-0.01-0.06-0.01-0.09-0.01l-0.09-0.03l-0.31-0.12
						c-2.32-0.92-4.6-1.84-6.77-2.7l0.33-0.12c-0.23,0.56,0.02,1.33,0.48,1.85c0.46,0.55,1.08,0.95,1.72,1.32
						c1.29,0.76,2.56,1.51,3.8,2.25l0.07,0.04l0.03,0.07c0.24,0.53,0.48,1.05,0.69,1.52l0.29,0.63l-0.62-0.31
						c-1.86-0.91-3.68-1.81-5.38-2.64l0.3-0.07c-0.39,0.58-0.57,1.37-0.23,1.96c0.16,0.3,0.41,0.53,0.71,0.76
						c0.3,0.23,0.61,0.44,0.92,0.65c1.24,0.82,2.5,1.56,3.72,2.25l0.07,0.04l0.03,0.08c0.26,0.7,0.52,1.4,0.75,2.02l0.01,0.03
						l0,0.03c0.23,3.24,0.51,6.27,1.06,8.87l-0.03-0.06c0.67,0.99,1.32,1.93,1.92,2.81l0.03,0.04l0,0.05
						c-0.03,1.34-0.06,2.59-0.09,3.74l-0.14-0.15c3.27,0.04,5.86,0.07,7.66,0.09c0.87,0.01,1.55,0.03,2.05,0.03
						c0.22,0.01,0.39,0.01,0.54,0.01C446.3,193.4,446.37,193.4,446.37,193.4z"/>
				</g>
			</g>
		</g>
		<g>
			<g>
				<path class="st10" d="M431.88,172.38c0-0.07,0.42-0.1,1.02,0.15c0.29,0.13,0.64,0.34,0.94,0.65c0.3,0.29,0.59,0.63,0.89,0.99
					c1.19,1.45,2.01,2.72,1.93,2.79c-0.14,0.12-1.15-1.02-2.33-2.46c-0.6-0.72-1.09-1.36-1.6-1.64
					C432.24,172.55,431.87,172.45,431.88,172.38z"/>
			</g>
		</g>
		<g>
			<g>
				<path class="st10" d="M432.41,168.08c0.02-0.07,0.52,0.01,1.29,0.27c0.19,0.07,0.4,0.14,0.63,0.25
					c0.22,0.07,0.51,0.34,0.65,0.55c0.33,0.44,0.64,0.94,0.95,1.47c1.25,2.13,2.09,3.94,1.96,4.01c-0.13,0.07-1.17-1.63-2.41-3.74
					c-0.31-0.52-0.61-1.03-0.89-1.46c-0.16-0.23-0.23-0.33-0.46-0.45c-0.2-0.11-0.39-0.21-0.57-0.29
					C432.84,168.35,432.38,168.15,432.41,168.08z"/>
			</g>
		</g>
		<g>
			<g>
				<path class="st10" d="M433.63,164.72c0.04-0.05,0.51,0.21,1.18,0.77c0.32,0.28,0.73,0.66,1.03,1.18c0.3,0.49,0.6,1.04,0.9,1.63
					c1.21,2.33,2.03,4.3,1.91,4.36c-0.13,0.06-1.16-1.8-2.37-4.12c-0.29-0.56-0.58-1.09-0.86-1.62c-0.25-0.49-0.57-0.84-0.86-1.16
					C433.98,165.14,433.59,164.78,433.63,164.72z"/>
			</g>
		</g>
		<g>
			<path class="st11" d="M401.9,211.79c0.42,0.13,0.76,0.43,1,0.8c1.08,1.64,4.77,7.21,5.13,7.01c0.41-0.24,4.1-5.91,5.29-5.91
				c1.19,0,2.52,0.95,2.66,1.8c0.14,0.86,0.84,3.66,0,4.22c-0.84,0.56-1.4-0.63-1.4-0.63l-0.46,2.34c0,0,2.29-1.5,3.27-1.08
				c0.98,0.42,1.05,1.82,0.91,2.24c-0.14,0.42,0.56,7.35,0.42,10.64c-0.14,3.29-1.96,6.85-1.96,6.85l-11.62-5.6l-1.07-2.9
				c0,0-1.32-2.83-1.46-3.32c-0.14-0.49-5.99-12.88-6.29-14.03c-0.24-0.92,1.03-2.13,2.15-1.01c1.12,1.12,5.14,7.2,5.14,7.2
				l-3.52-7.22C400.09,213.19,400.41,211.32,401.9,211.79z"/>
			<path class="st10" d="M416.77,240.11l-0.02-0.01l-11.63-5.6l0-0.01l-1.07-2.9c-0.05-0.11-1.33-2.83-1.46-3.32
				c-0.05-0.18-0.91-2.03-1.98-4.38c-1.74-3.77-4.12-8.94-4.31-9.66c-0.12-0.48,0.15-1.05,0.63-1.33c0.51-0.29,1.07-0.18,1.55,0.3
				c0.96,0.96,4.1,5.64,4.94,6.89l-3.36-6.89l0-0.01c0-0.01,0.17-0.96,0.8-1.34c0.3-0.18,0.65-0.21,1.04-0.08l0,0
				c0.5,0.16,0.83,0.53,1.02,0.81c2.82,4.28,4.79,7,5.08,7c0.01,0,0.01,0,0.02,0c0.12-0.07,0.57-0.67,1.14-1.44
				c1.33-1.78,3.33-4.48,4.17-4.48c1.16,0,2.54,0.94,2.69,1.82c0.02,0.12,0.05,0.28,0.09,0.47c0.22,1.15,0.64,3.28-0.1,3.77
				c-0.22,0.14-0.43,0.19-0.65,0.13c-0.4-0.11-0.66-0.54-0.75-0.7l-0.44,2.21c0.3-0.19,1.82-1.13,2.81-1.13
				c0.16,0,0.3,0.02,0.43,0.08c0.96,0.41,1.08,1.8,0.92,2.27c-0.05,0.17,0.03,1.44,0.13,3.05c0.16,2.38,0.37,5.63,0.29,7.59
				c-0.14,3.26-1.94,6.83-1.96,6.86L416.77,240.11z M405.16,234.46l11.59,5.59c0.15-0.3,1.81-3.71,1.94-6.82
				c0.08-1.95-0.13-5.21-0.29-7.58c-0.11-1.68-0.19-2.89-0.13-3.07c0.12-0.37,0.09-1.79-0.9-2.21c-0.12-0.05-0.25-0.07-0.4-0.07
				c-1.07,0-2.82,1.14-2.84,1.15l-0.05,0.03l0.49-2.47l0.03,0.07c0,0.01,0.29,0.61,0.76,0.74c0.2,0.05,0.4,0.01,0.61-0.12
				c0.71-0.47,0.3-2.58,0.08-3.72c-0.04-0.19-0.07-0.35-0.09-0.48c-0.14-0.87-1.5-1.78-2.64-1.78c-0.81,0-2.89,2.79-4.13,4.46
				c-0.59,0.8-1.02,1.37-1.15,1.45c-0.01,0.01-0.02,0.01-0.04,0.01c-0.11,0-0.49-0.27-2.29-2.83c-1.07-1.53-2.24-3.28-2.83-4.19
				c-0.18-0.28-0.5-0.64-0.99-0.79l0,0c-0.38-0.12-0.72-0.09-1,0.08c-0.58,0.35-0.76,1.21-0.77,1.3l3.52,7.21l-0.04,0.02
				c-0.04-0.06-4.04-6.09-5.14-7.2c-0.46-0.46-1.01-0.57-1.49-0.29c-0.47,0.27-0.73,0.82-0.61,1.28c0.18,0.71,2.56,5.88,4.3,9.65
				c1.08,2.34,1.93,4.2,1.99,4.38c0.14,0.48,1.45,3.29,1.46,3.32L405.16,234.46z"/>
		</g>
		<g>
			<path class="st5" d="M402.41,205.86c-2.61-1.63-25.05-10.86-25.71-11.45c-0.65-0.59-9.53,6.88-16.22,16.18
				c-6.69,9.3-32.2,59.17-34.87,74.13l4.4,3.47l-7.22,22.56l22.18,9.61l23.68,10.05l-0.07-38.41c-0.58-10-4.08-60.69-0.27-66.69
				c0,0,7.32-8.03,15.81-10.15c8.48-2.12,15.95-1.97,15.95-1.97l5.05,0.01C405.14,213.21,405.02,207.5,402.41,205.86z"/>
		</g>
		<g>
			<g>
				<path class="st4" d="M381.01,255.83c-0.05-0.01,0.09-0.96,0.67-2.39c0.57-1.43,1.67-3.3,3.32-4.99
					c1.66-1.68,3.52-2.81,4.93-3.41c1.42-0.6,2.37-0.76,2.38-0.71c0.03,0.09-0.88,0.37-2.22,1.04c-1.35,0.67-3.11,1.81-4.72,3.44
					c-1.6,1.64-2.71,3.42-3.36,4.78C381.36,254.94,381.1,255.85,381.01,255.83z"/>
			</g>
		</g>
		<g>
			<g>
				<path class="st4" d="M329.79,288.92c-0.01,0,0.01-0.09,0.06-0.25c0.06-0.19,0.13-0.43,0.23-0.72c0.22-0.67,0.53-1.59,0.92-2.75
					c0.81-2.38,2-5.83,3.53-10.06c3.05-8.47,7.43-20.12,13.11-32.63c2.87-6.24,5.82-12.1,8.7-17.31c2.95-5.17,5.73-9.77,8.36-13.43
					c0.65-0.92,1.26-1.8,1.85-2.63c0.62-0.8,1.21-1.55,1.76-2.26c0.55-0.7,1.06-1.36,1.54-1.96c0.47-0.6,0.96-1.11,1.37-1.59
					c0.82-0.91,1.46-1.64,1.93-2.16c0.21-0.22,0.38-0.41,0.51-0.55c0.12-0.12,0.18-0.18,0.19-0.18c0.01,0.01-0.04,0.08-0.15,0.21
					c-0.13,0.16-0.28,0.35-0.47,0.59c-0.45,0.54-1.07,1.28-1.86,2.22c-0.4,0.49-0.87,1-1.33,1.61c-0.46,0.61-0.96,1.28-1.5,1.99
					c-0.54,0.71-1.12,1.47-1.72,2.28c-0.57,0.84-1.18,1.72-1.81,2.64c-2.58,3.68-5.33,8.28-8.25,13.45
					c-2.85,5.21-5.78,11.06-8.65,17.29c-5.68,12.49-10.11,24.11-13.24,32.54c-1.54,4.19-2.8,7.6-3.68,10
					c-0.43,1.15-0.76,2.06-1.01,2.72c-0.11,0.28-0.2,0.52-0.28,0.7C329.84,288.84,329.8,288.92,329.79,288.92z"/>
			</g>
		</g>
		<g>
			<g>
				<path class="st4" d="M365.38,266.53c-0.01,0-0.02-0.08-0.04-0.23c-0.01-0.19-0.03-0.41-0.05-0.69
					c-0.04-0.65-0.09-1.53-0.15-2.64c-0.12-2.29-0.27-5.62-0.43-9.72c-0.15-4.11-0.32-8.99-0.42-14.43
					c-0.04-2.72-0.09-5.57-0.05-8.53c0.02-1.48,0.03-2.98,0.15-4.52c0.05-0.76,0.11-1.56,0.35-2.33c0.14-0.38,0.28-0.77,0.49-1.1
					c0.19-0.35,0.37-0.71,0.6-1.03c0.95-1.49,2.03-2.85,3.12-4.15c1.08-1.31,2.2-2.55,3.3-3.76c2.21-2.41,4.39-4.64,6.49-6.71
					l0.1-0.1l0.14,0.05c1.15,0.4,2.25,0.77,3.32,1.27c0.07,0.03,0.14,0.07,0.21,0.12c0.02,0.01,0.11,0.07,0.15,0.16l0.02,0.03
					c0.01,0-0.03-0.06-0.06-0.08c-0.02-0.01-0.07-0.07-0.2-0.04c-0.12,0.06-0.09,0.06-0.1,0.06c-0.03,0.04-0.01,0.01-0.01,0.01
					c0.04-0.1,0.07-0.25,0.1-0.38c0.06-0.27,0.11-0.54,0.17-0.81c0.1-0.54,0.2-1.07,0.29-1.6l0.04-0.2l0.19,0.02
					c5.72,0.59,10.45,1.08,13.8,1.42c1.62,0.18,2.9,0.32,3.82,0.43c0.41,0.05,0.74,0.09,1,0.13c0.23,0.03,0.34,0.05,0.34,0.07
					c0,0.01-0.12,0.01-0.34,0c-0.26-0.02-0.59-0.04-1-0.07c-0.93-0.08-2.21-0.18-3.83-0.31c-3.36-0.3-8.1-0.73-13.83-1.24l0.23-0.18
					c-0.09,0.53-0.19,1.07-0.28,1.61c-0.05,0.27-0.11,0.55-0.16,0.83c-0.03,0.14-0.06,0.27-0.12,0.44
					c-0.01,0.03-0.01,0.04-0.06,0.11c-0.02,0.01,0.01,0.02-0.12,0.08c-0.14,0.03-0.19-0.03-0.22-0.05
					c-0.02-0.02-0.04-0.04-0.05-0.06l-0.02-0.03c0.08-0.03-0.18,0.05,0.17-0.07l-0.01,0c-0.03,0.01-0.05,0.01-0.07,0.02
					c-0.13,0.06-0.08,0.07-0.08,0.08c0.02,0.01-0.02-0.01-0.02-0.01c-0.04-0.03-0.1-0.06-0.16-0.09c-1-0.46-2.14-0.83-3.27-1.22
					l0.24-0.05c-2.08,2.06-4.25,4.31-6.45,6.71c-1.09,1.21-2.2,2.45-3.28,3.75c-1.08,1.3-2.15,2.64-3.08,4.1
					c-0.22,0.32-0.4,0.66-0.58,0.99c-0.2,0.33-0.33,0.68-0.46,1.02c-0.22,0.7-0.28,1.45-0.33,2.21c-0.11,1.51-0.13,3.01-0.15,4.49
					c-0.04,2.95,0,5.8,0.02,8.51c0.07,5.43,0.2,10.32,0.31,14.42c0.11,4.07,0.2,7.38,0.26,9.72c0.02,1.11,0.04,2,0.06,2.64
					c0,0.28,0,0.5,0,0.69C365.39,266.45,365.39,266.53,365.38,266.53z"/>
			</g>
		</g>
		<g>
			<g>
				<path class="st4" d="M363.98,298.45c-0.14,0.04-3.2-9.65-6.85-21.64c-3.65-12-6.49-21.75-6.35-21.79
					c0.14-0.04,3.2,9.65,6.85,21.64C361.27,288.65,364.12,298.4,363.98,298.45z"/>
			</g>
		</g>
		<g>
			<g>
				<path class="st4" d="M336.1,293.46c0.03,0,0.5,0.2,1.34,0.56c0.9,0.4,2.09,0.92,3.55,1.57c3.01,1.33,7.17,3.18,11.94,5.38
					l-0.31,0.08c1.24-1.68,2.58-3.49,3.96-5.35c0.2-0.27,0.4-0.53,0.59-0.79l0.12,0.4c-6.31-2.42-11.96-4.62-15.98-6.21l0.18-0.03
					c-1.62,1.36-2.95,2.44-3.88,3.21c-0.44,0.35-0.8,0.65-1.09,0.88C336.26,293.35,336.12,293.46,336.1,293.46
					c-0.02,0,0.09-0.1,0.31-0.31c0.27-0.25,0.6-0.55,1-0.91c0.88-0.8,2.18-1.99,3.85-3.46l0.08-0.07l0.1,0.04
					c4.05,1.5,9.72,3.65,16.03,6.06l0.32,0.12l-0.2,0.28c-0.19,0.26-0.39,0.52-0.59,0.79c-1.39,1.86-2.73,3.66-3.98,5.34l-0.12,0.16
					l-0.18-0.09c-4.88-2.27-9.08-4.29-12.02-5.71c-1.41-0.68-2.56-1.24-3.42-1.66C336.49,293.68,336.07,293.47,336.1,293.46z"/>
			</g>
		</g>
		<g class="st6">
			<g>
				<path d="M347.51,250.25c-0.28,9.15-0.24,18.5,2.95,27.08c3.19,8.58,8.65,16.45,16.16,21.7L347.51,250.25z"/>
			</g>
		</g>
		<g class="st6">
			<g>
				<path d="M364.67,245.08c-2.21-6.3-4.45-13.02-2.91-19.51c1.55-6.54,6.63-11.57,11.49-16.22c1.07-1.02,2.17-2.07,3.52-2.65
					c1.36-0.59,3.05-0.63,4.22,0.27c-0.01-0.97-0.02-1.94-0.03-2.91c5.68,0.09,11.34,1.06,16.72,2.87l-14.6-1.51l-0.61,2.87
					l-3.57-1.43c0,0-14.46,13.92-14.22,18.05C364.92,229.04,364.67,245.08,364.67,245.08z"/>
			</g>
		</g>
		<g class="st6">
			<polygon points="338.05,294.36 337.18,296.98 353.3,304.74 356.69,295.99 352.83,301.2 			"/>
		</g>
		<g>
			<g>
				<path class="st1" d="M385.02,195.27c0.39,0.55,20.86,15.03,20.86,15.03l1.63-3.7l3.06,3.7"/>
			</g>
			<g>
				<g>
					<path class="st4" d="M410.57,210.3c-0.03,0.02-0.34-0.31-0.89-0.92c-0.61-0.7-1.38-1.59-2.3-2.66l0.3-0.04
						c-0.46,1.09-1,2.35-1.58,3.72l-0.11,0.26l-0.23-0.16c-2.04-1.43-4.39-3.09-6.9-4.86c-3.89-2.77-7.39-5.31-9.89-7.18
						c-2.51-1.87-4.02-3.09-3.94-3.18c0.03-0.02,0.4,0.26,1.12,0.76c0.8,0.56,1.82,1.27,3.03,2.12c2.64,1.86,6.12,4.33,9.98,7.05
						c2.49,1.79,4.84,3.46,6.86,4.91l-0.34,0.09c0.62-1.36,1.18-2.6,1.67-3.68l0.12-0.27l0.18,0.23c0.88,1.11,1.61,2.04,2.18,2.77
						C410.33,209.91,410.6,210.28,410.57,210.3z"/>
				</g>
			</g>
		</g>
		<g>
			<g>
				<path class="st4" d="M443.63,225.85c-0.16,0.06-0.93-2.85-3.14-5.73c-2.17-2.91-4.77-4.44-4.67-4.58
					c0.03-0.05,0.72,0.26,1.71,0.96c0.99,0.7,2.25,1.83,3.38,3.31c1.12,1.48,1.86,3.01,2.27,4.15
					C443.58,225.09,443.69,225.84,443.63,225.85z"/>
			</g>
		</g>
		<g class="st6">
			<g>
				<path d="M391.41,244.31c-6.04,0.5-11.61,4.78-13.65,10.49c-0.25,0.69-0.44,1.45-0.22,2.15c0.22,0.7,1.02,1.26,1.69,0.97
					c0.57-0.24,0.79-0.92,0.97-1.51c1.66-5.36,5.94-9.84,11.23-11.73"/>
			</g>
		</g>
		<g>
			<g>
				<path class="st4" d="M414.53,188.69c-0.14,0.04-0.36-1.24-1.55-2.05c-1.19-0.81-2.46-0.54-2.47-0.69
					c-0.02-0.06,0.27-0.23,0.8-0.27c0.52-0.05,1.28,0.07,1.97,0.53c0.68,0.47,1.07,1.14,1.22,1.64
					C414.65,188.35,414.6,188.68,414.53,188.69z"/>
			</g>
		</g>
	</g>
</g>
</svg>
