<svg width="431" height="431" viewBox="0 0 431 431" fill="none" xmlns="http://www.w3.org/2000/svg">
<g filter="url(#filter0_d_185_12493)">
<path d="M215.5 411.975C327.658 411.975 418.579 359.481 418.579 294.726C418.579 229.971 327.658 177.477 215.5 177.477C103.343 177.477 12.4219 229.971 12.4219 294.726C12.4219 359.481 103.343 411.975 215.5 411.975Z" fill="#F0F0F0"/>
<path d="M173.478 383.572C212.154 383.572 243.507 365.472 243.507 343.145C243.507 320.817 212.154 302.717 173.478 302.717C134.802 302.717 103.449 320.817 103.449 343.145C103.449 365.472 134.802 383.572 173.478 383.572Z" fill="#E0E0E0"/>
<path d="M372.625 292.563L364.41 287.822C364.41 287.822 362.402 270.237 363.738 256.617C365.617 237.481 377.978 214.448 392.718 219.862C407.459 225.275 385.96 244.756 381.176 260.988C376.392 277.219 372.625 292.563 372.625 292.563Z" fill="#01A84D"/>
<path opacity="0.15" d="M372.625 292.563L364.41 287.822C364.41 287.822 362.402 270.237 363.738 256.617C365.617 237.481 377.978 214.448 392.718 219.862C407.459 225.275 385.96 244.756 381.176 260.988C376.392 277.219 372.625 292.563 372.625 292.563Z" fill="black"/>
<path d="M368.306 290.572C368.437 290.565 368.56 290.507 368.649 290.41C368.737 290.314 368.785 290.186 368.78 290.055C367.34 247.532 388.511 226.137 388.718 225.931C388.812 225.837 388.864 225.71 388.864 225.577C388.864 225.445 388.812 225.317 388.718 225.224C388.672 225.178 388.618 225.141 388.558 225.116C388.498 225.091 388.434 225.078 388.369 225.078C388.304 225.078 388.24 225.091 388.18 225.116C388.12 225.141 388.065 225.178 388.02 225.224C387.796 225.431 366.323 247.136 367.78 290.089C367.782 290.156 367.797 290.221 367.825 290.281C367.853 290.342 367.892 290.396 367.941 290.441C367.99 290.486 368.048 290.521 368.11 290.543C368.173 290.566 368.239 290.575 368.306 290.572Z" fill="white"/>
<path d="M377.789 295.519L371.945 292.148C371.945 292.148 370.945 280.08 376.867 265.426C382.039 252.669 394.796 242.075 401.227 244.299C407.657 246.523 407.493 251.083 404.356 255.867C401.218 260.651 382.159 272.038 377.789 295.519Z" fill="#01A84D"/>
<path d="M374.703 294.244C374.835 294.242 374.961 294.189 375.055 294.095C375.148 294.002 375.201 293.876 375.203 293.744C375.083 266.85 400.331 248.679 400.589 248.498C400.643 248.461 400.689 248.413 400.724 248.358C400.759 248.303 400.783 248.242 400.793 248.177C400.803 248.113 400.801 248.047 400.785 247.983C400.769 247.92 400.741 247.86 400.701 247.808C400.625 247.702 400.51 247.63 400.381 247.607C400.252 247.585 400.12 247.613 400.012 247.688C399.753 247.869 374.091 266.35 374.203 293.744C374.203 293.877 374.256 294.004 374.35 294.098C374.444 294.192 374.571 294.244 374.703 294.244Z" fill="white"/>
<path d="M68.6674 282.003L76.253 276.882C76.253 276.882 79.5889 257.056 76.4857 239.566C72.124 215.034 55.1685 206.879 49.1345 209.465C43.1005 212.051 41.8075 219.353 53.0738 233.351C59.7543 241.584 68.4347 259.16 68.6674 282.003Z" fill="#01A84D"/>
<g opacity="0.15">
<path d="M68.6674 282.003L76.253 276.882C76.253 276.882 79.5889 257.056 76.4857 239.566C72.124 215.034 55.1685 206.879 49.1345 209.465C43.1005 212.051 41.8075 219.353 53.0738 233.351C59.7543 241.584 68.4347 259.16 68.6674 282.003Z" fill="black"/>
</g>
<path d="M71.2691 272.176H71.1916C71.1141 272.171 71.0385 272.15 70.9697 272.113C70.901 272.077 70.8407 272.027 70.7927 271.966C70.7447 271.905 70.7101 271.835 70.6912 271.759C70.6723 271.684 70.6695 271.606 70.683 271.529C73.4241 248.436 63.6749 223.369 53.0637 213.396C52.9616 213.293 52.9043 213.153 52.9043 213.008C52.9043 212.863 52.9616 212.723 53.0637 212.62C53.1143 212.568 53.1746 212.527 53.2412 212.499C53.3078 212.471 53.3793 212.457 53.4516 212.457C53.5238 212.457 53.5954 212.471 53.662 212.499C53.7286 212.527 53.7889 212.568 53.8395 212.62C64.649 222.774 74.5792 248.255 71.8036 271.684C71.7873 271.816 71.7246 271.938 71.6267 272.028C71.5288 272.118 71.402 272.17 71.2691 272.176Z" fill="white"/>
<path d="M48.8062 295.398C47.5994 296.122 44.0824 293.51 43.1084 292.881C41.439 291.791 40.0792 290.289 39.1604 288.519C38.1297 286.513 37.7472 284.236 38.0657 282.002C38.2422 280.837 38.4986 279.685 38.8329 278.554C39.1346 277.425 39.4363 276.296 39.6949 275.158C40.0771 274.051 40.224 272.877 40.1259 271.71C39.7897 269.409 37.7123 267.831 35.8159 266.478C33.7298 264.969 31.5059 262.978 31.5059 260.202C31.6122 258.022 32.4469 255.94 33.8764 254.289C35.1694 252.565 36.721 251.065 37.8847 249.264C38.7946 248.015 39.2591 246.498 39.2035 244.954C39.0537 244.002 38.7136 243.09 38.2036 242.273C37.1864 240.48 35.8676 238.825 35.1521 236.92C34.4367 235.015 34.4884 232.567 36.0141 231.144C37.2295 229.981 39.0828 229.791 40.7637 229.869C42.3477 230.026 43.8777 230.53 45.2461 231.343C49.7027 233.713 52.3232 238.885 57.0383 240.687C58.8571 241.376 60.8397 241.497 62.7275 241.963C64.6153 242.428 66.5634 243.35 67.4685 245.066C69.2528 248.471 66.141 252.763 67.4168 256.375C68.5546 259.582 71.7268 260.754 73.5197 263.625C74.2474 264.899 74.5494 266.373 74.3817 267.831C74.2806 270.293 73.7284 272.715 72.7526 274.977C71.6302 277.323 70.3635 279.598 68.9598 281.787C68.9598 281.787 48.9872 295.286 48.8062 295.398Z" fill="#01A84D"/>
<path d="M60.4608 288.253C60.3884 288.252 60.3169 288.236 60.2504 288.208C60.1839 288.179 60.1237 288.137 60.0733 288.085C60.0228 288.033 59.9831 287.972 59.9565 287.904C59.9298 287.837 59.9166 287.765 59.9178 287.693C60.4005 265.867 49.66 242.007 42.0571 235.111C41.9491 235.013 41.8839 234.877 41.8759 234.732C41.8678 234.586 41.9174 234.444 42.014 234.335C42.0646 234.283 42.125 234.242 42.1916 234.214C42.2582 234.186 42.3297 234.172 42.4019 234.172C42.4742 234.172 42.5457 234.186 42.6123 234.214C42.6789 234.242 42.7393 234.283 42.7898 234.335C50.5478 241.317 61.5039 265.591 61.0125 287.719C61.0114 287.79 60.9962 287.86 60.9679 287.926C60.9396 287.991 60.8986 288.05 60.8474 288.1C60.7962 288.15 60.7357 288.189 60.6693 288.215C60.603 288.241 60.5322 288.254 60.4608 288.253Z" fill="white"/>
<path d="M56.4351 261.66C56.3842 261.673 56.3309 261.673 56.2799 261.66C49.2288 259.626 40.4881 259.419 40.4019 259.41C40.3298 259.409 40.2587 259.394 40.1927 259.365C40.1267 259.336 40.067 259.294 40.0173 259.242C39.9675 259.19 39.9287 259.128 39.903 259.061C39.8772 258.994 39.8652 258.922 39.8675 258.85C39.8661 258.777 39.8799 258.705 39.9079 258.638C39.9359 258.571 39.9776 258.51 40.0303 258.46C40.0829 258.41 40.1455 258.371 40.2139 258.346C40.2823 258.321 40.3551 258.311 40.4278 258.316C40.514 258.316 49.3926 258.531 56.5816 260.6C56.7206 260.642 56.8374 260.737 56.9068 260.864C56.9761 260.992 56.9925 261.141 56.9523 261.281C56.9187 261.392 56.8502 261.488 56.7569 261.557C56.6637 261.625 56.5507 261.661 56.4351 261.66Z" fill="white"/>
<path d="M259.6 266.996L256.333 265.108C255.789 264.755 255.336 264.278 255.011 263.716C254.686 263.154 254.498 262.524 254.463 261.876V126.093C254.498 125.446 254.685 124.817 255.009 124.255C255.332 123.694 255.783 123.216 256.325 122.861L347.136 70.4341C347.715 70.141 348.354 69.9883 349.003 69.9883C349.651 69.9883 350.291 70.141 350.869 70.4341L354.136 72.3219C354.68 72.6753 355.133 73.1523 355.458 73.714C355.784 74.2758 355.971 74.9063 356.006 75.5544V211.337C355.971 211.984 355.784 212.613 355.46 213.175C355.137 213.736 354.686 214.214 354.145 214.569L263.333 267.005C262.754 267.298 262.114 267.451 261.466 267.449C260.817 267.448 260.178 267.292 259.6 266.996Z" fill="#455A64"/>
<path d="M356.006 75.2527C355.877 74.2872 355.093 73.9338 354.153 74.4769L263.333 126.912C262.784 127.257 262.33 127.734 262.014 128.3L255.006 124.257C255.319 123.687 255.773 123.206 256.325 122.861L347.136 70.4341C347.715 70.141 348.354 69.9883 349.003 69.9883C349.651 69.9883 350.29 70.141 350.869 70.4341L354.136 72.3219C354.64 72.6467 355.069 73.0768 355.392 73.5827C355.715 74.0885 355.924 74.6582 356.006 75.2527Z" fill="#455A64"/>
<path d="M263.013 267.152C262.461 267.375 261.868 267.478 261.273 267.452C260.679 267.427 260.096 267.275 259.565 267.005L256.29 265.109C255.748 264.753 255.297 264.276 254.974 263.714C254.65 263.153 254.463 262.523 254.428 261.876V126.094C254.45 125.446 254.637 124.814 254.971 124.258L261.979 128.301C261.638 128.857 261.448 129.493 261.427 130.145V265.928C261.462 266.996 262.134 267.488 263.013 267.152Z" fill="#263238"/>
<path d="M261.461 130.162V265.928C261.461 267.117 262.323 267.6 263.331 267.005L354.143 214.57C354.685 214.214 355.136 213.736 355.459 213.175C355.782 212.614 355.97 211.984 356.005 211.337V75.5548C356.005 74.3652 355.143 73.8825 354.143 74.4773L263.331 126.913C262.785 127.268 262.33 127.748 262.005 128.313C261.68 128.877 261.493 129.511 261.461 130.162Z" fill="#37474F"/>
<path d="M240.256 181.881C239.084 181.183 233.645 178.089 233.36 177.925C233.139 177.792 232.949 177.612 232.807 177.397C232.664 177.182 232.572 176.938 232.536 176.682C232.5 176.426 232.523 176.166 232.601 175.92C232.68 175.674 232.812 175.449 232.99 175.261L254.462 152.229L261.461 156.245L239.998 179.295C239.829 179.475 239.701 179.688 239.622 179.922C239.543 180.155 239.514 180.402 239.539 180.647C239.563 180.892 239.64 181.129 239.764 181.342C239.887 181.555 240.055 181.739 240.256 181.881Z" fill="#455A64"/>
<path d="M261.461 156.271L239.997 179.296C239.759 179.55 239.603 179.871 239.551 180.216C239.498 180.56 239.552 180.913 239.704 181.227C239.856 181.54 240.1 181.801 240.403 181.973C240.706 182.145 241.055 182.222 241.402 182.192L261.461 180.537V156.271Z" fill="#37474F"/>
<path d="M308.733 114.818C319.318 108.707 327.895 113.663 327.895 125.887C327.895 138.11 319.318 152.962 308.733 159.074C298.147 165.185 289.57 160.229 289.57 148.014C289.57 135.8 298.147 120.93 308.733 114.818Z" fill="#01A84D"/>
<path d="M308.595 124.438C312.043 122.455 314.81 124.059 314.81 128.024C314.692 130.179 314.068 132.277 312.988 134.146C311.909 136.015 310.403 137.603 308.595 138.782C305.147 140.764 302.371 139.161 302.371 135.196C302.49 133.039 303.115 130.942 304.196 129.072C305.278 127.203 306.785 125.615 308.595 124.438Z" fill="white"/>
<path d="M320.853 145.574C320.853 139.066 316.276 136.42 310.639 139.678L307.113 141.712C301.476 144.971 296.898 152.918 296.898 159.409V161.194C297.963 161.534 299.074 161.705 300.191 161.702C303.215 161.599 306.16 160.708 308.734 159.116C313.634 156.098 317.779 152 320.853 147.134V145.574Z" fill="white"/>
<path d="M296.597 219.577L320.871 205.561C321.905 204.967 322.742 205.449 322.742 206.639V214.457C322.706 215.105 322.519 215.736 322.194 216.297C321.868 216.859 321.415 217.336 320.871 217.69L296.597 231.706C295.563 232.301 294.727 231.818 294.727 230.628V222.81C294.762 222.162 294.95 221.531 295.275 220.97C295.6 220.408 296.053 219.931 296.597 219.577Z" fill="#01A84D"/>
<path d="M284.71 202.113L332.732 174.373C333.964 173.658 334.973 174.235 334.973 175.666V178.571C334.931 179.349 334.706 180.105 334.316 180.779C333.927 181.453 333.384 182.026 332.732 182.45L284.684 210.189C283.451 210.905 282.451 210.327 282.451 208.896V206.017C282.49 205.234 282.716 204.471 283.109 203.792C283.501 203.113 284.05 202.537 284.71 202.113Z" fill="#FAFAFA"/>
<path d="M290.331 182.038C290.986 181.658 291.494 181.598 291.856 181.865C292.218 182.132 292.399 182.727 292.399 183.641C292.418 184.475 292.231 185.301 291.856 186.046C291.518 186.72 290.987 187.278 290.331 187.649L289.038 188.399V191.183C289.035 191.279 289.012 191.374 288.969 191.459C288.938 191.537 288.884 191.604 288.814 191.649L288.158 192.028C288.136 192.045 288.109 192.054 288.081 192.054C288.053 192.054 288.026 192.045 288.003 192.028C287.957 191.97 287.935 191.896 287.943 191.821V183.762C287.942 183.666 287.963 183.572 288.003 183.486C288.036 183.409 288.09 183.343 288.158 183.296L290.331 182.038ZM289.038 186.839L290.288 186.115C290.59 185.945 290.844 185.702 291.029 185.408C291.225 185.062 291.32 184.668 291.305 184.27C291.305 183.805 291.21 183.538 291.029 183.46C290.901 183.429 290.768 183.427 290.639 183.456C290.511 183.484 290.39 183.542 290.288 183.624L289.038 184.348V186.839Z" fill="#FAFAFA"/>
<path d="M296.011 178.754C296.097 178.702 296.166 178.702 296.209 178.754C296.264 178.831 296.302 178.919 296.321 179.012L298.312 185.753C298.312 185.753 298.312 185.805 298.312 185.831C298.311 185.927 298.287 186.021 298.243 186.106C298.213 186.185 298.158 186.251 298.088 186.296L297.502 186.632C297.398 186.693 297.321 186.701 297.278 186.632C297.236 186.589 297.206 186.536 297.192 186.477L296.838 185.296L294.252 186.779L293.907 188.365C293.883 188.451 293.851 188.534 293.813 188.615C293.77 188.72 293.69 188.806 293.588 188.856L293.002 189.192C292.981 189.211 292.953 189.221 292.925 189.221C292.896 189.221 292.869 189.211 292.847 189.192C292.802 189.137 292.78 189.066 292.787 188.994C292.782 188.963 292.782 188.931 292.787 188.899L294.769 179.866C294.793 179.733 294.831 179.603 294.881 179.478C294.924 179.387 294.993 179.312 295.08 179.262L296.011 178.754ZM296.459 183.977L295.597 180.934L294.735 185.003L296.459 183.977Z" fill="#FAFAFA"/>
<path d="M301.33 175.554C301.618 175.372 301.946 175.263 302.286 175.235C302.527 175.213 302.768 175.268 302.976 175.39C303.165 175.513 303.312 175.69 303.398 175.899C303.493 176.111 303.545 176.339 303.554 176.571C303.559 176.667 303.539 176.762 303.493 176.847C303.463 176.925 303.408 176.991 303.338 177.037L302.769 177.364C302.674 177.416 302.605 177.425 302.562 177.364C302.509 177.329 302.465 177.282 302.433 177.226C302.398 177.149 302.349 177.079 302.286 177.021C302.224 176.963 302.151 176.919 302.071 176.89C301.808 176.853 301.542 176.921 301.33 177.08C301.19 177.17 301.057 177.271 300.933 177.381C300.805 177.499 300.692 177.632 300.597 177.778C300.505 177.918 300.43 178.069 300.373 178.226C300.322 178.376 300.296 178.533 300.295 178.692C300.285 178.837 300.312 178.982 300.373 179.114C300.399 179.16 300.437 179.2 300.482 179.228C300.527 179.257 300.578 179.274 300.631 179.278C300.791 179.306 300.954 179.306 301.114 179.278L301.864 179.114C302.143 179.031 302.435 178.996 302.726 179.011C302.934 179.01 303.136 179.077 303.304 179.2C303.461 179.333 303.576 179.51 303.631 179.709C303.716 179.988 303.753 180.279 303.743 180.571C303.743 180.956 303.687 181.339 303.579 181.709C303.474 182.089 303.321 182.454 303.123 182.795C302.914 183.144 302.665 183.468 302.381 183.76C302.091 184.061 301.761 184.319 301.399 184.527C301.133 184.689 300.841 184.803 300.537 184.864C300.289 184.911 300.032 184.891 299.795 184.803C299.58 184.703 299.402 184.537 299.287 184.329C299.146 184.063 299.069 183.768 299.063 183.467C299.062 183.369 299.082 183.272 299.123 183.183C299.161 183.109 299.217 183.047 299.287 183.002L299.856 182.674C299.942 182.622 300.011 182.605 300.062 182.631C300.114 182.657 300.149 182.7 300.183 182.778C300.219 182.866 300.265 182.95 300.321 183.028C300.375 183.103 300.45 183.16 300.537 183.191C300.65 183.218 300.768 183.218 300.881 183.191C301.064 183.148 301.239 183.075 301.399 182.976C301.566 182.881 301.724 182.771 301.873 182.648C302.163 182.419 302.393 182.123 302.545 181.786C302.614 181.614 302.649 181.429 302.648 181.243C302.657 181.176 302.651 181.107 302.632 181.042C302.612 180.977 302.58 180.916 302.536 180.864C302.49 180.823 302.435 180.792 302.375 180.775C302.316 180.757 302.253 180.752 302.192 180.761C301.996 180.769 301.802 180.8 301.614 180.855C301.39 180.907 301.131 180.967 300.83 181.019C300.599 181.077 300.36 181.094 300.123 181.071C299.936 181.059 299.76 180.983 299.623 180.855C299.474 180.709 299.369 180.524 299.321 180.321C299.252 180.021 299.22 179.715 299.226 179.407C299.226 179.028 299.281 178.65 299.39 178.287C299.493 177.913 299.644 177.553 299.838 177.218C300.025 176.884 300.25 176.575 300.511 176.295C300.747 176.011 301.023 175.761 301.33 175.554Z" fill="#FAFAFA"/>
<path d="M306.991 172.297C307.278 172.109 307.607 171.996 307.948 171.969C308.189 171.949 308.429 172.003 308.638 172.124C308.822 172.25 308.966 172.427 309.052 172.633C309.146 172.845 309.198 173.073 309.207 173.305C309.217 173.401 309.196 173.498 309.146 173.581C309.116 173.659 309.062 173.725 308.991 173.771L308.422 174.098C308.336 174.15 308.267 174.167 308.215 174.098C308.16 174.064 308.118 174.012 308.095 173.952C308.016 173.8 307.884 173.684 307.724 173.624C307.595 173.605 307.464 173.612 307.339 173.645C307.213 173.677 307.095 173.735 306.991 173.814C306.847 173.902 306.712 174.003 306.586 174.115C306.461 174.233 306.351 174.367 306.259 174.512C306.164 174.65 306.088 174.801 306.035 174.96C305.981 175.11 305.952 175.267 305.948 175.426C305.938 175.571 305.965 175.716 306.026 175.848C306.052 175.894 306.09 175.933 306.135 175.962C306.18 175.991 306.231 176.008 306.285 176.012C306.444 176.04 306.608 176.04 306.767 176.012L307.517 175.848C307.798 175.77 308.088 175.735 308.379 175.745C308.587 175.743 308.79 175.809 308.957 175.934C309.114 176.069 309.231 176.245 309.293 176.443C309.369 176.724 309.404 177.014 309.396 177.305C309.396 177.69 309.341 178.073 309.233 178.443C309.127 178.823 308.974 179.188 308.776 179.529C308.568 179.882 308.319 180.209 308.034 180.503C307.743 180.796 307.416 181.051 307.06 181.261C306.795 181.422 306.503 181.536 306.198 181.598C305.953 181.645 305.7 181.624 305.466 181.537C305.246 181.44 305.064 181.274 304.948 181.063C304.807 180.798 304.733 180.502 304.733 180.201C304.723 180.105 304.744 180.008 304.793 179.925C304.824 179.847 304.878 179.781 304.948 179.736L305.517 179.408C305.604 179.356 305.681 179.339 305.724 179.365C305.754 179.379 305.781 179.399 305.802 179.424C305.823 179.45 305.837 179.48 305.845 179.512C305.884 179.599 305.93 179.682 305.983 179.762C306.04 179.837 306.118 179.894 306.207 179.925C306.32 179.951 306.438 179.951 306.552 179.925C306.735 179.882 306.909 179.809 307.069 179.71C307.232 179.612 307.388 179.503 307.534 179.382C307.686 179.264 307.819 179.125 307.931 178.969C308.043 178.82 308.135 178.657 308.207 178.486C308.276 178.313 308.311 178.129 308.31 177.943C308.318 177.875 308.313 177.807 308.293 177.742C308.274 177.676 308.242 177.616 308.198 177.563C308.152 177.522 308.097 177.492 308.037 177.474C307.978 177.456 307.915 177.451 307.853 177.46C307.661 177.472 307.47 177.504 307.284 177.555C307.06 177.607 306.793 177.667 306.5 177.719C306.266 177.776 306.024 177.794 305.785 177.77C305.598 177.76 305.42 177.684 305.285 177.555C305.138 177.408 305.037 177.223 304.992 177.02C304.915 176.725 304.88 176.42 304.888 176.115C304.891 175.733 304.946 175.353 305.052 174.986C305.159 174.613 305.309 174.255 305.5 173.917C305.687 173.582 305.916 173.272 306.181 172.995C306.413 172.721 306.687 172.486 306.991 172.297Z" fill="#FAFAFA"/>
<path d="M313.277 173.374L312.579 177.503C312.558 177.627 312.523 177.748 312.475 177.865C312.442 177.957 312.378 178.036 312.294 178.089L311.639 178.468C311.553 178.52 311.493 178.52 311.45 178.468C311.392 178.397 311.358 178.309 311.355 178.218L310.32 170.934C310.32 170.934 310.32 170.865 310.32 170.839C310.323 170.743 310.346 170.649 310.389 170.563C310.422 170.487 310.476 170.421 310.544 170.374L311.139 170.029C311.189 170.009 311.245 170.009 311.294 170.029C311.346 170.029 311.381 170.098 311.398 170.236L312.079 175.141L312.674 171.46C312.689 171.368 312.715 171.278 312.751 171.193C312.785 171.084 312.859 170.991 312.958 170.934L313.622 170.546C313.717 170.494 313.786 170.503 313.829 170.546C313.866 170.601 313.892 170.662 313.906 170.727L314.51 173.718L315.191 168.029C315.199 167.917 315.231 167.808 315.285 167.71C315.326 167.646 315.378 167.59 315.441 167.546L316.035 167.202C316.058 167.185 316.085 167.176 316.113 167.176C316.141 167.176 316.168 167.185 316.191 167.202C316.215 167.23 316.234 167.263 316.246 167.298C316.257 167.334 316.262 167.371 316.26 167.409C316.263 167.443 316.263 167.478 316.26 167.512L315.225 175.985C315.208 176.109 315.176 176.231 315.13 176.347C315.091 176.439 315.025 176.518 314.941 176.572L314.277 176.951C314.199 176.994 314.139 176.994 314.096 176.951C314.052 176.872 314.018 176.788 313.992 176.701L313.277 173.374Z" fill="#FAFAFA"/>
<path d="M317.31 169.719C317.33 169.241 317.387 168.766 317.483 168.297C317.581 167.839 317.732 167.394 317.931 166.97C318.121 166.557 318.365 166.172 318.655 165.823C318.95 165.477 319.303 165.185 319.698 164.961C320.002 164.755 320.357 164.639 320.724 164.625C320.998 164.628 321.26 164.736 321.457 164.927C321.666 165.161 321.816 165.442 321.896 165.746C322.008 166.142 322.068 166.55 322.077 166.961C322.077 167.116 322.077 167.289 322.077 167.478C322.077 167.668 322.077 167.866 322.077 168.073C322.077 168.28 322.077 168.478 322.077 168.668C322.077 168.857 322.077 169.038 322.077 169.202C322.059 169.677 322.001 170.15 321.905 170.616C321.805 171.073 321.658 171.518 321.465 171.943C321.269 172.354 321.023 172.739 320.733 173.09C320.438 173.433 320.088 173.724 319.698 173.952C319.387 174.156 319.027 174.273 318.655 174.288C318.521 174.291 318.388 174.266 318.263 174.216C318.139 174.165 318.026 174.09 317.931 173.995C317.706 173.754 317.551 173.456 317.483 173.133C317.38 172.736 317.322 172.328 317.31 171.918C317.31 171.762 317.31 171.59 317.31 171.4C317.31 171.211 317.31 171.012 317.31 170.806C317.31 170.599 317.31 170.409 317.31 170.211C317.31 170.013 317.302 169.875 317.31 169.719ZM320.983 167.659C321.002 167.448 320.978 167.236 320.913 167.034C320.848 166.833 320.742 166.647 320.603 166.487C320.379 166.289 320.069 166.297 319.698 166.487C319.296 166.723 318.977 167.079 318.785 167.504C318.54 168.007 318.411 168.557 318.405 169.116C318.405 169.435 318.405 169.788 318.405 170.176C318.405 170.564 318.405 170.909 318.405 171.219C318.386 171.43 318.41 171.643 318.475 171.844C318.54 172.046 318.645 172.232 318.785 172.392C319.009 172.581 319.319 172.564 319.698 172.349C320.094 172.11 320.409 171.759 320.603 171.34C320.848 170.841 320.977 170.293 320.983 169.737C320.983 169.409 320.983 169.056 320.983 168.668C320.983 168.28 320.991 167.97 320.983 167.659Z" fill="#FAFAFA"/>
<path d="M325.836 161.521C326.517 161.133 327.026 161.072 327.379 161.357C327.589 161.588 327.744 161.862 327.835 162.16C327.926 162.458 327.95 162.773 327.905 163.081C327.912 163.666 327.822 164.249 327.638 164.805C327.463 165.323 327.19 165.802 326.836 166.219L327.957 168.658C327.96 168.698 327.96 168.739 327.957 168.779C327.957 168.856 327.939 168.933 327.905 169.003C327.881 169.065 327.839 169.119 327.784 169.158L327.095 169.555C326.983 169.615 326.905 169.624 326.853 169.555C326.808 169.509 326.77 169.457 326.741 169.399L325.681 167.098L324.603 167.718V170.632C324.604 170.727 324.584 170.822 324.543 170.908C324.508 170.983 324.454 171.048 324.388 171.098L323.733 171.477C323.711 171.495 323.684 171.505 323.655 171.505C323.627 171.505 323.599 171.495 323.578 171.477C323.553 171.45 323.534 171.419 323.522 171.385C323.51 171.351 323.506 171.315 323.509 171.279V163.219C323.511 163.123 323.535 163.029 323.578 162.943C323.608 162.865 323.662 162.799 323.733 162.753L325.836 161.521ZM324.621 166.158L325.836 165.503C326.133 165.337 326.387 165.104 326.577 164.822C326.777 164.49 326.873 164.106 326.853 163.719C326.853 163.253 326.758 162.995 326.577 162.943C326.315 162.907 326.049 162.975 325.836 163.133L324.664 163.805L324.621 166.158Z" fill="#FAFAFA"/>
<path d="M331.612 158.203C331.925 157.998 332.283 157.874 332.655 157.841C332.925 157.831 333.188 157.927 333.388 158.108C333.616 158.348 333.774 158.646 333.844 158.97C333.96 159.397 334.024 159.837 334.034 160.28C334.034 160.883 334.034 161.504 334.034 162.133C334.016 162.647 333.953 163.157 333.844 163.659C333.746 164.125 333.596 164.579 333.396 165.012C333.204 165.41 332.96 165.781 332.672 166.116C332.384 166.458 332.04 166.75 331.655 166.978L329.612 168.09C329.59 168.108 329.563 168.118 329.534 168.118C329.506 168.118 329.479 168.108 329.457 168.09C329.432 168.064 329.412 168.032 329.401 167.998C329.389 167.964 329.384 167.928 329.388 167.891V159.832C329.39 159.736 329.414 159.642 329.457 159.556C329.487 159.478 329.542 159.412 329.612 159.366L331.612 158.203ZM332.939 160.883C332.936 160.65 332.901 160.418 332.836 160.194C332.796 160.024 332.709 159.869 332.586 159.746C332.532 159.691 332.467 159.649 332.396 159.621C332.325 159.593 332.249 159.579 332.172 159.582C331.956 159.596 331.748 159.668 331.569 159.789L330.483 160.409V166.03L331.612 165.383C331.83 165.256 332.026 165.093 332.189 164.9C332.35 164.711 332.486 164.503 332.595 164.28C332.702 164.042 332.783 163.794 332.836 163.538C332.896 163.272 332.931 163.001 332.939 162.728C332.965 162.099 332.965 161.487 332.939 160.883Z" fill="#FAFAFA"/>
<path d="M213.242 33.0921C214.73 33.4232 216.164 33.963 217.5 34.6954C218.78 35.3835 219.928 36.2943 220.888 37.3849C221.807 38.434 222.489 39.6688 222.888 41.0053C223.295 42.4359 223.324 43.9474 222.974 45.3928C222.743 46.5389 222.289 47.6284 221.638 48.5995C221.044 49.4299 220.336 50.1727 219.535 50.8062C218.748 51.417 217.909 51.9564 217.026 52.4181L214.544 53.737C213.796 54.1271 213.086 54.5859 212.423 55.1076C211.824 55.5675 211.364 56.1854 211.096 56.8919C210.964 57.2147 210.747 57.4951 210.466 57.7022C210.334 57.8052 210.18 57.8766 210.015 57.911C209.851 57.9453 209.681 57.9417 209.518 57.9005L205.863 57.0902C205.687 57.0533 205.521 56.9817 205.373 56.8796C205.225 56.7774 205.098 56.6468 205.001 56.4954C204.898 56.3546 204.83 56.1915 204.801 56.0193C204.773 55.8471 204.785 55.6706 204.838 55.5041C205.132 54.3722 205.651 53.311 206.363 52.3837C207.014 51.5634 207.767 50.8304 208.605 50.2028C209.421 49.6054 210.286 49.0777 211.191 48.6253C212.053 48.1857 212.915 47.7633 213.664 47.341C214.362 46.966 215.018 46.5181 215.621 46.0049C216.15 45.5618 216.517 44.9553 216.664 44.2809C216.801 43.6952 216.795 43.0851 216.644 42.5026C216.494 41.9202 216.205 41.3827 215.802 40.9363C214.794 39.8358 213.447 39.1044 211.975 38.8589C209.251 38.2555 206.952 39.1721 205.079 41.6087C204.898 41.8746 204.67 42.1054 204.407 42.2897C204.109 42.4371 203.765 42.4619 203.45 42.3586L199.562 41.4966C199.285 41.443 199.04 41.2819 198.881 41.0484C198.796 40.9236 198.739 40.7821 198.714 40.6333C198.689 40.4846 198.696 40.3322 198.735 40.1864C199.065 38.9886 199.68 37.8884 200.528 36.9797C201.483 35.9259 202.619 35.0503 203.881 34.3937C205.261 33.6717 206.748 33.1769 208.286 32.9283C209.933 32.6604 211.616 32.716 213.242 33.0921ZM209.113 60.8313C209.455 60.9116 209.752 61.1224 209.941 61.4188C210.129 61.7152 210.194 62.0736 210.122 62.4174L209.191 66.6411C209.159 66.818 209.091 66.9862 208.99 67.1348C208.889 67.2833 208.757 67.4088 208.605 67.5031C208.46 67.6026 208.297 67.6709 208.125 67.7036C207.952 67.7362 207.775 67.7325 207.605 67.6928L203.433 66.736C203.255 66.7061 203.086 66.6382 202.938 66.537C202.789 66.4359 202.664 66.3038 202.571 66.1498C202.474 66.0042 202.408 65.8404 202.377 65.6685C202.346 65.4966 202.35 65.3201 202.39 65.1499L203.329 60.9261C203.409 60.5837 203.62 60.286 203.916 60.0961C204.212 59.9063 204.57 59.8391 204.915 59.9089L209.113 60.8313Z" fill="#01A84D"/>
<path d="M217.845 73.5288C218.882 73.3623 219.939 73.342 220.982 73.4685C221.979 73.587 222.948 73.8787 223.844 74.3305C224.698 74.7734 225.449 75.39 226.051 76.1407C226.591 76.8754 226.972 77.7152 227.168 78.6061C227.364 79.4969 227.371 80.419 227.189 81.3127C227.024 81.9998 226.76 82.6591 226.404 83.2694C226.061 83.8631 225.663 84.423 225.215 84.9417C224.775 85.4589 224.353 85.9503 223.965 86.4244C223.585 86.8661 223.247 87.3422 222.956 87.8467C222.683 88.2888 222.545 88.8012 222.56 89.3207C222.552 89.5635 222.484 89.8005 222.361 90.0103C222.299 90.1069 222.217 90.1892 222.12 90.2516C222.024 90.3141 221.915 90.3552 221.801 90.3723L219.215 90.7861C219.094 90.808 218.97 90.8056 218.85 90.7789C218.73 90.7523 218.617 90.702 218.517 90.6309C218.415 90.5669 218.33 90.4796 218.268 90.3762C218.207 90.2728 218.171 90.1562 218.163 90.0361C218.055 89.234 218.114 88.4181 218.336 87.6398C218.539 86.9507 218.828 86.2903 219.198 85.6744C219.56 85.0834 219.976 84.5265 220.439 84.0108C220.896 83.4936 221.301 83.0108 221.698 82.5454C222.052 82.1297 222.358 81.6757 222.611 81.192C222.836 80.7757 222.917 80.2973 222.844 79.8301C222.779 79.4188 222.616 79.0293 222.369 78.6947C222.121 78.36 221.796 78.0901 221.422 77.9078C220.495 77.4601 219.446 77.3328 218.439 77.5458C217.528 77.6791 216.68 78.0911 216.011 78.7254C215.343 79.3597 214.887 80.1851 214.707 81.0886C214.656 81.3059 214.569 81.5129 214.448 81.7006C214.294 81.8642 214.086 81.9655 213.862 81.9851L211.138 82.4247C210.947 82.4613 210.749 82.4211 210.586 82.3126C210.503 82.2556 210.434 82.1815 210.382 82.0952C210.33 82.009 210.297 81.9127 210.285 81.8127C210.204 80.9573 210.337 80.0952 210.673 79.3042C211.014 78.3839 211.516 77.5315 212.155 76.7872C212.856 75.9721 213.683 75.2738 214.603 74.7184C215.597 74.116 216.697 73.712 217.845 73.5288ZM222.292 92.3635C222.411 92.3447 222.532 92.3495 222.649 92.3776C222.766 92.4057 222.876 92.4566 222.973 92.5273C223.075 92.5941 223.161 92.6816 223.227 92.7841C223.292 92.8866 223.335 93.0018 223.353 93.1221L223.835 96.0788C223.873 96.3186 223.814 96.5635 223.672 96.7604C223.53 96.9572 223.316 97.0902 223.077 97.1304L220.189 97.6045C219.949 97.6416 219.705 97.5827 219.508 97.4407C219.408 97.3731 219.324 97.2852 219.26 97.1827C219.196 97.0802 219.154 96.9655 219.138 96.8459L218.655 93.8893C218.633 93.7706 218.636 93.6487 218.664 93.5314C218.693 93.4141 218.745 93.304 218.819 93.2083C218.886 93.1083 218.974 93.0236 219.077 92.9598C219.179 92.8959 219.294 92.8543 219.413 92.8376L222.292 92.3635Z" fill="#01A84D"/>
<g opacity="0.2">
<path d="M217.845 73.5288C218.882 73.3623 219.939 73.342 220.982 73.4685C221.979 73.587 222.948 73.8787 223.844 74.3305C224.698 74.7734 225.449 75.39 226.051 76.1407C226.591 76.8754 226.972 77.7152 227.168 78.6061C227.364 79.4969 227.371 80.419 227.189 81.3127C227.024 81.9998 226.76 82.6591 226.404 83.2694C226.061 83.8631 225.663 84.423 225.215 84.9417C224.775 85.4589 224.353 85.9503 223.965 86.4244C223.585 86.8661 223.247 87.3422 222.956 87.8467C222.683 88.2888 222.545 88.8012 222.56 89.3207C222.552 89.5635 222.484 89.8005 222.361 90.0103C222.299 90.1069 222.217 90.1892 222.12 90.2516C222.024 90.3141 221.915 90.3552 221.801 90.3723L219.215 90.7861C219.094 90.808 218.97 90.8056 218.85 90.7789C218.73 90.7523 218.617 90.702 218.517 90.6309C218.415 90.5669 218.33 90.4796 218.268 90.3762C218.207 90.2728 218.171 90.1562 218.163 90.0361C218.055 89.234 218.114 88.4181 218.336 87.6398C218.539 86.9507 218.828 86.2903 219.198 85.6744C219.56 85.0834 219.976 84.5265 220.439 84.0108C220.896 83.4936 221.301 83.0108 221.698 82.5454C222.052 82.1297 222.358 81.6757 222.611 81.192C222.836 80.7757 222.917 80.2973 222.844 79.8301C222.779 79.4188 222.616 79.0293 222.369 78.6947C222.121 78.36 221.796 78.0901 221.422 77.9078C220.495 77.4601 219.446 77.3328 218.439 77.5458C217.528 77.6791 216.68 78.0911 216.011 78.7254C215.343 79.3597 214.887 80.1851 214.707 81.0886C214.656 81.3059 214.569 81.5129 214.448 81.7006C214.294 81.8642 214.086 81.9655 213.862 81.9851L211.138 82.4247C210.947 82.4613 210.749 82.4211 210.586 82.3126C210.503 82.2556 210.434 82.1815 210.382 82.0952C210.33 82.009 210.297 81.9127 210.285 81.8127C210.204 80.9573 210.337 80.0952 210.673 79.3042C211.014 78.3839 211.516 77.5315 212.155 76.7872C212.856 75.9721 213.683 75.2738 214.603 74.7184C215.597 74.116 216.697 73.712 217.845 73.5288ZM222.292 92.3635C222.411 92.3447 222.532 92.3495 222.649 92.3776C222.766 92.4057 222.876 92.4566 222.973 92.5273C223.075 92.5941 223.161 92.6816 223.227 92.7841C223.292 92.8866 223.335 93.0018 223.353 93.1221L223.835 96.0788C223.873 96.3186 223.814 96.5635 223.672 96.7604C223.53 96.9572 223.316 97.0902 223.077 97.1304L220.189 97.6045C219.949 97.6416 219.705 97.5827 219.508 97.4407C219.408 97.3731 219.324 97.2852 219.26 97.1827C219.196 97.0802 219.154 96.9655 219.138 96.8459L218.655 93.8893C218.633 93.7706 218.636 93.6487 218.664 93.5314C218.693 93.4141 218.745 93.304 218.819 93.2083C218.886 93.1083 218.974 93.0236 219.077 92.9598C219.179 92.8959 219.294 92.8543 219.413 92.8376L222.292 92.3635Z" fill="black"/>
</g>
<path d="M242.222 78.1741C242.34 78.2558 242.44 78.3606 242.515 78.4822C242.591 78.6037 242.641 78.7394 242.662 78.8809C242.689 79.0212 242.688 79.1656 242.656 79.305C242.625 79.4445 242.566 79.576 242.481 79.6912L240.429 82.5789C240.348 82.6964 240.243 82.796 240.121 82.8716C240 82.9472 239.864 82.9972 239.723 83.0185C239.582 83.046 239.438 83.044 239.299 83.0129C239.159 82.9817 239.028 82.922 238.912 82.8375L236.085 80.829C235.967 80.7484 235.868 80.6437 235.794 80.5219C235.719 80.4 235.672 80.2638 235.654 80.1222C235.627 79.982 235.629 79.8376 235.66 79.6981C235.691 79.5587 235.751 79.4272 235.835 79.3119L237.912 76.4242C238.08 76.1902 238.334 76.0318 238.618 75.9834C238.902 75.9349 239.194 76.0004 239.43 76.1656L242.222 78.1741ZM254.153 58.6153C255.183 59.3378 256.101 60.2093 256.876 61.2013C257.632 62.1241 258.216 63.1752 258.6 64.3045C258.958 65.3867 259.079 66.5333 258.954 67.6663C258.808 68.8745 258.35 70.024 257.626 71.0023C257.088 71.7932 256.397 72.4675 255.592 72.9848C254.884 73.4288 254.114 73.7657 253.308 73.9848C252.522 74.1901 251.72 74.3285 250.911 74.3985L248.618 74.6054C247.931 74.6604 247.25 74.7787 246.584 74.9588C245.97 75.0983 245.408 75.4091 244.964 75.8553C244.763 76.0592 244.509 76.2026 244.231 76.2691C244.099 76.307 243.959 76.3127 243.824 76.2858C243.689 76.2588 243.563 76.1998 243.455 76.1139L240.955 74.3382C240.716 74.1676 240.553 73.9112 240.498 73.6227C240.466 73.4829 240.467 73.3375 240.502 73.1982C240.536 73.059 240.603 72.9298 240.697 72.8211C241.281 72.0633 242.01 71.4302 242.843 70.9592C243.593 70.5498 244.393 70.2397 245.222 70.0368C246.023 69.8425 246.839 69.7185 247.662 69.6662C248.472 69.6144 249.231 69.5541 249.937 69.4851C250.584 69.428 251.223 69.3008 251.842 69.1058C252.384 68.9254 252.851 68.5708 253.17 68.0973C253.458 67.6975 253.645 67.234 253.716 66.7462C253.786 66.2585 253.738 65.7609 253.575 65.2958C253.167 64.1469 252.388 63.167 251.36 62.5115C249.498 61.1841 247.466 61.141 245.265 62.3823C245.044 62.5232 244.798 62.6226 244.541 62.6753C244.407 62.6847 244.273 62.6674 244.146 62.6245C244.018 62.5816 243.901 62.5139 243.8 62.4254L241.145 60.5376C241.049 60.4737 240.966 60.3913 240.903 60.295C240.839 60.1988 240.795 60.0907 240.774 59.9773C240.754 59.86 240.758 59.7397 240.786 59.6239C240.814 59.5082 240.866 59.3996 240.938 59.3049C241.565 58.5023 242.379 57.8659 243.309 57.4516C244.365 56.973 245.497 56.6813 246.653 56.5896C247.925 56.4833 249.206 56.5852 250.446 56.8913C251.784 57.2137 253.044 57.7998 254.153 58.6153Z" fill="#01A84D"/>
<g opacity="0.6">
<path d="M242.222 78.1741C242.34 78.2558 242.44 78.3606 242.515 78.4822C242.591 78.6037 242.641 78.7394 242.662 78.8809C242.689 79.0212 242.688 79.1656 242.656 79.305C242.625 79.4445 242.566 79.576 242.481 79.6912L240.429 82.5789C240.348 82.6964 240.243 82.796 240.121 82.8716C240 82.9472 239.864 82.9972 239.723 83.0185C239.582 83.046 239.438 83.044 239.299 83.0129C239.159 82.9817 239.028 82.922 238.912 82.8375L236.085 80.829C235.967 80.7484 235.868 80.6437 235.794 80.5219C235.719 80.4 235.672 80.2638 235.654 80.1222C235.627 79.982 235.629 79.8376 235.66 79.6981C235.691 79.5587 235.751 79.4272 235.835 79.3119L237.912 76.4242C238.08 76.1902 238.334 76.0318 238.618 75.9834C238.902 75.9349 239.194 76.0004 239.43 76.1656L242.222 78.1741ZM254.153 58.6153C255.183 59.3378 256.101 60.2093 256.876 61.2013C257.632 62.1241 258.216 63.1752 258.6 64.3045C258.958 65.3867 259.079 66.5333 258.954 67.6663C258.808 68.8745 258.35 70.024 257.626 71.0023C257.088 71.7932 256.397 72.4675 255.592 72.9848C254.884 73.4288 254.114 73.7657 253.308 73.9848C252.522 74.1901 251.72 74.3285 250.911 74.3985L248.618 74.6054C247.931 74.6604 247.25 74.7787 246.584 74.9588C245.97 75.0983 245.408 75.4091 244.964 75.8553C244.763 76.0592 244.509 76.2026 244.231 76.2691C244.099 76.307 243.959 76.3127 243.824 76.2858C243.689 76.2588 243.563 76.1998 243.455 76.1139L240.955 74.3382C240.716 74.1676 240.553 73.9112 240.498 73.6227C240.466 73.4829 240.467 73.3375 240.502 73.1982C240.536 73.059 240.603 72.9298 240.697 72.8211C241.281 72.0633 242.01 71.4302 242.843 70.9592C243.593 70.5498 244.393 70.2397 245.222 70.0368C246.023 69.8425 246.839 69.7185 247.662 69.6662C248.472 69.6144 249.231 69.5541 249.937 69.4851C250.584 69.428 251.223 69.3008 251.842 69.1058C252.384 68.9254 252.851 68.5708 253.17 68.0973C253.458 67.6975 253.645 67.234 253.716 66.7462C253.786 66.2585 253.738 65.7609 253.575 65.2958C253.167 64.1469 252.388 63.167 251.36 62.5115C249.498 61.1841 247.466 61.141 245.265 62.3823C245.044 62.5232 244.798 62.6226 244.541 62.6753C244.407 62.6847 244.273 62.6674 244.146 62.6245C244.018 62.5816 243.901 62.5139 243.8 62.4254L241.145 60.5376C241.049 60.4737 240.966 60.3913 240.903 60.295C240.839 60.1988 240.795 60.0907 240.774 59.9773C240.754 59.86 240.758 59.7397 240.786 59.6239C240.814 59.5082 240.866 59.3996 240.938 59.3049C241.565 58.5023 242.379 57.8659 243.309 57.4516C244.365 56.973 245.497 56.6813 246.653 56.5896C247.925 56.4833 249.206 56.5852 250.446 56.8913C251.784 57.2137 253.044 57.7998 254.153 58.6153Z" fill="white"/>
</g>
<path d="M178.027 154.479H147.4V80.2783C147.4 73.8336 149.961 67.6528 154.518 63.0958C159.075 58.5387 165.255 55.9785 171.7 55.9785H174.528C180.972 55.9785 187.153 58.5387 191.71 63.0958C196.267 67.6528 198.827 73.8336 198.827 80.2783V133.722C198.816 139.231 196.619 144.511 192.72 148.402C188.82 152.294 183.536 154.479 178.027 154.479Z" fill="#263238"/>
<path d="M144.419 333.111C143.877 336.186 143.589 339.299 143.557 342.421C143.445 348.076 142.41 350.084 142.272 354.722C142.109 360.023 143.031 362.006 145.177 364.988C147.324 367.971 152.935 370.669 155.366 365.635C157.797 360.601 157.444 357.299 156.676 352.101C155.892 346.722 155.814 343.748 155.332 339.654C154.935 336.042 154.47 333.292 154.47 333.292L144.419 333.111Z" fill="#263238"/>
<path d="M160.469 295.555L141.85 295.219C142.125 307.649 144.099 321.449 144.436 333.147C144.505 335.345 144.384 350.206 145.211 354.697C146.461 361.489 154.512 360.567 154.943 356.507C155.374 352.447 154.426 335.095 154.452 333.302C154.374 325.82 157.9 313.191 159.719 299.761C159.796 299.115 160.383 296.201 160.469 295.555Z" fill="#FFA8A7"/>
<path d="M184.389 323.44C184.389 323.44 183.656 323.044 183.527 323.828C183.346 324.759 183.07 326.681 182.665 328.216C182.13 330.345 181.682 333.853 182.001 335.594C182.32 337.336 186.371 339.559 189.001 340.37C192.241 341.37 195.196 343.128 197.621 345.499C200.207 347.947 205.835 350.257 209.689 350.231C214.214 350.231 217.369 348.723 218.86 346.3C220.352 343.878 217.498 343.585 212.326 340.266L208.318 337.68C200.12 332.327 197.112 329.465 194.81 324.112L184.389 323.44Z" fill="#263238"/>
<path d="M194.879 320.121C194.741 316.276 197.396 283.598 197.396 283.598L179.717 291.657C183.501 314.259 184.311 319.595 184.372 323.293C184.294 323.603 184.262 323.922 184.277 324.241C184.277 328.629 189.251 330.999 193.112 333.93C196.395 336.502 199.893 338.786 203.568 340.757C206.378 342.162 212.085 342.291 212.792 340.49C208.085 336.895 201.241 331.516 197.5 327.413C195.672 325.482 195.017 323.974 194.879 320.121Z" fill="#FFA8A7"/>
<path d="M149.478 174.262C142.686 189.166 142.686 200.699 143.815 219.724C144.815 237.179 146.479 252.566 146.479 252.566C146.22 255.66 141.919 261.703 141.358 275.392C140.841 288.184 142.22 304.45 142.22 304.45C142.22 304.45 151.883 309.803 159.029 304.398C159.029 304.398 165.925 271.478 167.942 255.462C169.666 241.489 172.77 223.637 172.77 223.637L179.295 255.367C177.886 259.869 176.866 264.483 176.243 269.159C175.33 278.581 180.605 297.079 180.605 297.079C180.605 297.079 190.587 300.053 196.681 294.649C196.681 294.649 198.957 264.573 199.81 253.23C200.948 238.032 198.552 196.898 196.681 175.115L149.478 174.262Z" fill="#455A64"/>
<path d="M172.787 223.612L175.468 199.7C175.468 199.7 187.484 198.097 192.932 192.977C191.373 195.416 189.296 197.482 186.848 199.029C184.4 200.575 181.642 201.564 178.769 201.924L174.89 224.172L179.295 255.368L172.787 223.612Z" fill="#263238"/>
<path d="M221.447 168.384C221.943 164.02 222.162 159.629 222.102 155.238C221.835 151.445 221.154 150.825 215.853 144.11C208.698 135.033 202.586 126.87 196.121 118.758C191.501 112.966 186.639 112.078 181.916 112.336C178.606 112.517 185.071 128.438 188.32 137.86L206.879 157.841C207.454 158.63 207.718 159.603 207.621 160.574L206.5 177.572L212.06 185.02C212.06 185.02 220.482 177.762 221.447 168.384Z" fill="#FFA8A7"/>
<path d="M164.021 112.853C160.426 113.103 153.892 113.715 153.892 113.715C150.125 115.818 149.168 117.551 148.47 122.55C148.168 124.688 149.91 130.369 151.401 138.446L154.228 153.418L153.918 160.849C152.453 165.383 149.134 171.012 146.203 179.313C160.599 187.347 172.667 187.648 183.614 186.209C191.958 185.131 196.38 183.114 197.854 181.115C197.544 172.917 196.992 167.848 196.82 159.28C196.759 155.686 196.975 152.048 197.121 147.91C202.716 143.307 202.785 135.653 199.707 130.67C192.613 119.18 185.709 111.948 181.14 112.318L164.021 112.853Z" fill="#01A84D"/>
<path opacity="0.6" d="M164.021 112.853C160.426 113.103 153.892 113.715 153.892 113.715C150.125 115.818 149.168 117.551 148.47 122.55C148.168 124.688 149.91 130.369 151.401 138.446L154.228 153.418L153.918 160.849C152.453 165.383 149.134 171.012 146.203 179.313C160.599 187.347 172.667 187.648 183.614 186.209C191.958 185.131 196.38 183.114 197.854 181.115C197.544 172.917 196.992 167.848 196.82 159.28C196.759 155.686 196.975 152.048 197.121 147.91C202.716 143.307 202.785 135.653 199.707 130.67C192.613 119.18 185.709 111.948 181.14 112.318L164.021 112.853Z" fill="white"/>
<path opacity="0.1" d="M185.976 148.023C185.976 148.023 179.408 153.126 171.9 150.463C169.792 149.798 167.891 148.601 166.38 146.987C164.87 145.373 163.802 143.396 163.28 141.248C163.28 141.248 162.487 149.825 171.943 152.747C181.106 155.566 185.976 148.023 185.976 148.023Z" fill="black"/>
<path d="M194.889 89.3121C194.604 101.759 190.579 104.828 188.545 105.69C186.51 106.552 182.614 106.035 178.821 105.406V112.922C178.821 112.922 183.2 117.508 182.873 120.93C182.545 124.352 175.977 124.74 171.081 121.387C168.379 119.531 165.935 117.326 163.814 114.827C163.406 114.345 163.183 113.734 163.185 113.103V95.5185C163.185 95.5185 161.107 97.7166 157.435 95.1996C156.643 94.6939 155.964 94.0289 155.443 93.2469C154.921 92.4648 154.568 91.5829 154.406 90.657C154.244 89.7312 154.276 88.7817 154.501 87.869C154.726 86.9563 155.138 86.1003 155.711 85.3555C157.314 83.4677 161.383 83.3384 163.331 86.2175C164.434 88.3639 164.581 90.5275 165.814 89.6655C169.089 87.3036 167.331 81.9075 171.287 79.3215C172.586 78.6439 173.934 78.0675 175.322 77.5975C182.381 75.1581 188.502 73.1065 189.976 68.2793C192.751 69.8654 195.234 74.6322 194.889 89.3121Z" fill="#FFA8A7"/>
<path d="M180.968 100.432C181.872 100.432 182.606 99.6986 182.606 98.7941C182.606 97.8895 181.872 97.1562 180.968 97.1562C180.063 97.1562 179.33 97.8895 179.33 98.7941C179.33 99.6986 180.063 100.432 180.968 100.432Z" fill="#B16668"/>
<path d="M179.882 87.4234C179.881 87.7606 179.782 88.0903 179.596 88.3717C179.41 88.653 179.146 88.8737 178.836 89.0063C178.526 89.1389 178.184 89.1777 177.852 89.1179C177.52 89.0581 177.213 88.9022 176.969 88.6697C176.724 88.4371 176.554 88.1381 176.478 87.8095C176.402 87.481 176.424 87.1373 176.541 86.8212C176.659 86.5051 176.866 86.2303 177.138 86.0309C177.41 85.8315 177.735 85.7163 178.071 85.6994C178.305 85.6877 178.538 85.7237 178.758 85.8051C178.977 85.8864 179.177 86.0116 179.347 86.1729C179.516 86.3341 179.651 86.5281 179.743 86.7431C179.835 86.9581 179.882 87.1896 179.882 87.4234Z" fill="#263238"/>
<path d="M192.94 87.5969C192.958 87.8078 192.933 88.0201 192.868 88.2215C192.803 88.4228 192.698 88.6091 192.56 88.7696C192.422 88.9301 192.254 89.0614 192.064 89.1561C191.875 89.2508 191.669 89.3068 191.458 89.3209C191.245 89.3406 191.03 89.3147 190.828 89.245C190.625 89.1753 190.44 89.0634 190.284 88.9166C190.129 88.7699 190.006 88.5917 189.924 88.3939C189.843 88.1961 189.804 87.9832 189.811 87.7693C189.789 87.5569 189.81 87.3421 189.874 87.1382C189.938 86.9343 190.042 86.7455 190.182 86.5835C190.321 86.4215 190.492 86.2896 190.684 86.196C190.876 86.1023 191.085 86.0488 191.298 86.0388C191.512 86.0288 191.725 86.0625 191.925 86.1378C192.125 86.2131 192.307 86.3285 192.461 86.4768C192.614 86.6251 192.736 86.8032 192.819 87.0003C192.901 87.1973 192.943 87.4092 192.94 87.6228V87.5969Z" fill="#263238"/>
<path d="M177.666 91.8544C176.18 91.8544 174.753 91.2644 173.701 90.2139C172.649 89.1634 172.057 87.7382 172.055 86.2514C172.055 82.4414 175.985 82.4414 177.666 82.4414C179.347 82.4414 183.269 82.4414 183.269 86.2514C183.267 87.7368 182.676 89.1606 181.626 90.2108C180.575 91.2611 179.152 91.8522 177.666 91.8544ZM177.666 83.3206C174.218 83.3206 172.943 84.1826 172.943 86.2514C172.943 87.5088 173.442 88.7147 174.331 89.6038C175.22 90.493 176.426 90.9924 177.684 90.9924C178.941 90.9924 180.147 90.493 181.036 89.6038C181.925 88.7147 182.425 87.5088 182.425 86.2514C182.39 84.1395 181.063 83.3206 177.666 83.3206Z" fill="#455A64"/>
<path d="M191.897 91.8544C190.41 91.8544 188.984 91.2644 187.932 90.2139C186.88 89.1634 186.287 87.7382 186.285 86.2514C186.285 82.4414 190.216 82.4414 191.897 82.4414C193.578 82.4414 197.5 82.4414 197.5 86.2514C197.497 87.7368 196.906 89.1606 195.856 90.2108C194.806 91.2611 193.382 91.8522 191.897 91.8544ZM191.897 83.3206C188.5 83.3206 187.173 84.1826 187.173 86.2514C187.173 87.5088 187.673 88.7147 188.562 89.6038C189.451 90.493 190.657 90.9924 191.914 90.9924C193.171 90.9924 194.377 90.493 195.266 89.6038C196.156 88.7147 196.655 87.5088 196.655 86.2514C196.621 84.1395 195.293 83.3206 191.897 83.3206Z" fill="#455A64"/>
<path d="M184.139 84.4414L184.415 94.9147L189.923 93.2079L184.139 84.4414Z" fill="#F28F8F"/>
<path d="M178.813 105.431C174.813 104.905 166.581 102.544 165.297 99.2852C165.814 100.932 166.821 102.381 168.185 103.44C170.641 105.552 178.813 107.922 178.813 107.922V105.431Z" fill="#F28F8F"/>
<path d="M179.01 79.3566L175.355 81.5892C175.067 81.0875 174.984 80.4941 175.122 79.9322C175.26 79.3704 175.609 78.8833 176.097 78.5722C176.338 78.4259 176.606 78.33 176.885 78.2903C177.164 78.2506 177.449 78.2679 177.721 78.3413C177.994 78.4146 178.248 78.5424 178.47 78.7169C178.691 78.8914 178.875 79.1091 179.01 79.3566Z" fill="#263238"/>
<path d="M193.879 81.8385L189.811 80.4162C189.889 80.1466 190.022 79.8959 190.202 79.6795C190.381 79.4632 190.602 79.2858 190.853 79.1583C191.103 79.0307 191.377 78.9557 191.657 78.9378C191.937 78.9199 192.218 78.9595 192.483 79.0542C193.028 79.2503 193.478 79.6488 193.738 80.1671C193.998 80.6854 194.048 81.2839 193.879 81.8385Z" fill="#263238"/>
<path d="M182.828 86.6995C182.77 86.6995 182.712 86.6879 182.658 86.6652C182.604 86.6426 182.555 86.6094 182.514 86.5677C182.473 86.526 182.441 86.4765 182.42 86.4221C182.398 86.3678 182.388 86.3097 182.389 86.2512C182.389 85.5358 183.802 85.0703 185.078 85.0703C186.354 85.0703 187.173 85.5358 187.173 86.2512C187.146 86.3449 187.09 86.4273 187.012 86.486C186.934 86.5446 186.839 86.5764 186.742 86.5764C186.644 86.5764 186.55 86.5446 186.472 86.486C186.394 86.4273 186.338 86.3449 186.311 86.2512C186.311 86.165 185.871 85.9495 185.104 85.9495C184.486 85.9364 183.872 86.0417 183.294 86.2599C183.294 86.3198 183.282 86.3792 183.258 86.4343C183.234 86.4894 183.2 86.5391 183.156 86.5802C183.112 86.6214 183.061 86.6532 183.005 86.6738C182.948 86.6943 182.888 86.703 182.828 86.6995Z" fill="#455A64"/>
<path d="M172.51 86.3218H172.459L162.606 85.4598C162.146 85.0035 161.597 84.6457 160.994 84.4082L172.562 85.4771C172.678 85.4922 172.784 85.552 172.856 85.6438C172.929 85.7356 172.962 85.8521 172.95 85.9684C172.93 86.0695 172.875 86.1603 172.794 86.2249C172.714 86.2895 172.614 86.3238 172.51 86.3218Z" fill="#455A64"/>
<path d="M132.057 96.596C135.281 92.286 137.479 89.0363 140.419 85.39C142.091 83.2954 143.16 81.7955 144.729 79.6491C145.832 78.1665 146.453 76.9166 147.711 76.4597C149.071 75.9026 150.296 75.0622 151.306 73.9944C151.926 73.3079 152.502 72.5824 153.03 71.8222C154.877 69.3353 157.072 67.1263 159.547 65.2623C162.133 63.3142 165.02 61.8143 167.684 59.961C169.27 58.8491 170.968 57.0044 169.037 55.2804C168.445 54.7816 167.736 54.4406 166.977 54.2891C162.279 53.2719 158.193 54.8839 153.599 56.0562C151.603 56.5543 149.651 57.2145 147.763 58.0302C146.834 58.3975 145.963 58.8968 145.177 59.5128C144.078 60.6211 143.177 61.9098 142.514 63.3228C140.505 66.9088 136.195 70.1154 133.178 72.9514C129.652 76.2701 126.498 79.3129 122.472 82.9678C118.852 86.2693 115.309 89.3035 111.99 92.9067C109.24 95.8806 110.266 98.208 110.628 99.0183C112.869 103.621 115.378 105.276 118.386 108.13C123.558 113.069 141.445 127.283 147.367 131.981C148.639 132.98 149.638 134.285 150.272 135.774L151.409 138.403C158.167 139.644 162.676 129.499 157.081 117.284C156.155 115.309 154.74 113.603 152.97 112.328C145.901 107.181 132.057 96.596 132.057 96.596Z" fill="#FFA8A7"/>
<path d="M132.057 96.5957C129.906 99.2419 127.039 101.214 123.799 102.276C123.799 102.276 128.109 103.38 134.014 98.0783L132.057 96.5957Z" fill="#F28F8F"/>
<path d="M219.689 159.392L218.586 158.444C218.421 158.335 218.233 158.267 218.037 158.244C217.841 158.222 217.642 158.246 217.457 158.315L205.484 161.573C204.88 161.774 204.328 162.103 203.864 162.537C203.4 162.972 203.035 163.501 202.794 164.09L194.174 188.941C194.07 189.144 194.03 189.373 194.057 189.599C194.085 189.825 194.18 190.037 194.329 190.209L195.467 191.191C195.633 191.305 195.824 191.378 196.023 191.402C196.223 191.426 196.426 191.401 196.614 191.329L208.604 188.071C209.207 187.87 209.76 187.541 210.224 187.106C210.688 186.672 211.053 186.142 211.293 185.554C213.017 180.666 218.189 165.59 219.913 160.702C220.12 160.09 220.017 159.625 219.689 159.392Z" fill="#455A64"/>
<path d="M195.302 189.898L203.922 165.047C204.161 164.459 204.526 163.93 204.99 163.496C205.455 163.063 206.008 162.736 206.611 162.538L218.576 159.28C219.688 158.978 220.3 159.616 219.903 160.702C218.179 165.59 213.007 180.666 211.283 185.554C211.043 186.142 210.678 186.672 210.214 187.106C209.749 187.541 209.197 187.87 208.594 188.071L196.629 191.364C195.526 191.622 194.931 190.984 195.302 189.898Z" fill="#01A84D"/>
<path d="M205.311 163.23C204.688 163.701 204.206 164.333 203.914 165.057L195.294 189.9C195.196 190.097 195.154 190.318 195.176 190.538C195.197 190.757 195.28 190.967 195.415 191.141L194.346 190.227C194.193 190.058 194.095 189.846 194.066 189.619C194.037 189.393 194.077 189.163 194.182 188.96L202.802 164.109C203.075 163.433 203.517 162.839 204.087 162.385L205.311 163.23Z" fill="#37474F"/>
<path d="M216.404 170.719C215.542 173.244 212.551 174.934 207.603 176.106C202.655 177.279 199.923 182.528 200.707 184.123C201.492 185.718 209.491 187.209 212.689 186.752C215.887 186.295 219.094 181.675 220.068 180.244C221.042 178.813 222.162 168.831 221.137 167.46C220.111 166.09 217.947 166.305 217.947 166.305L216.404 170.719Z" fill="#F28F8F"/>
</g>
<defs>
<filter id="filter0_d_185_12493" x="-4" y="0" width="439" height="439" filterUnits="userSpaceOnUse" color-interpolation-filters="sRGB">
<feFlood flood-opacity="0" result="BackgroundImageFix"/>
<feColorMatrix in="SourceAlpha" type="matrix" values="0 0 0 0 0 0 0 0 0 0 0 0 0 0 0 0 0 0 127 0" result="hardAlpha"/>
<feOffset dy="4"/>
<feGaussianBlur stdDeviation="2"/>
<feComposite in2="hardAlpha" operator="out"/>
<feColorMatrix type="matrix" values="0 0 0 0 0 0 0 0 0 0 0 0 0 0 0 0 0 0 0.25 0"/>
<feBlend mode="normal" in2="BackgroundImageFix" result="effect1_dropShadow_185_12493"/>
<feBlend mode="normal" in="SourceGraphic" in2="effect1_dropShadow_185_12493" result="shape"/>
</filter>
</defs>
</svg>
