<?xml version="1.0" encoding="UTF-8"?>
<svg version="1.1" viewBox="0 0 860 871" width="1280" height="1280" xmlns="http://www.w3.org/2000/svg">
<path transform="translate(422,9)" d="m0 0h18l23 1 33 4 24 4 24 6 35 11 31 13 16 8 19 10 19 12 12 8 19 14 15 13 8 7 12 11 14 14 7 8 12 14 13 17 10 14 11 18 10 17 9 17 13 30 7 20 8 26 6 26 5 30 2 21v67l-3 27-6 34-7 26-12 36-15 33-15 28-15 23-10 14-11 14-11 13-8 7-5 5-4 6-4 2-18 18h-2v2l-11 9-14 11-4 2-5 5-9 6-6 3-9 6-10 6-19 11-7 3-16 8-8 3h-7l-1 3-9 3h-8v3l-10 3-10 4-14 3-9 2-3-1-1 2-3-1-1 2-13 1v2h-5-4l-4-1-1 3-4-2v3h-3l-1-2-3 1-1 2-20 1h-53l-21-1-1-3-3 2h-4v-3l-5 2-1-2-6 1-4-1h-2v-2l-10-1v-2h-3l-1 2v-3h-3l-1 2v-2l-5 1-24-6-9-4-14-4-25-9-3-4-9-2-3-2v-2l-8-1-25-14-7-4-11-7-5-4-12-8-10-8-11-9-9-8-5-3-5-6-5-5-5-3-5-5-3-5-13-12-12-14-15-20-10-15-10-16-13-24-8-17-9-21-12-36-7-28-7-44-2-25v-42l2-26 6-37 7-30 12-37 9-21 12-26 12-21 16-25 13-17 9-11 11-13 14-15 13-13 8-7 14-12 17-13 17-12 20-12 18-10 16-8 30-13 28-9 25-7 26-5 29-4 11-1z" fill="#2DB164"/>
<path transform="translate(304,553)" d="m0 0h25l11 7v2l5 2 11 7 16 8 20 7 21 4 11 1h14l18-2 21-5 18-7 15-8 14-10 9-6h24l19 2 19 3 19 5 24 9 19 10 12 8 13 10 10 9v2l4 2 12 14 10 14 12 20 11 24 11 33-8 7-5 5-4 6-4 2-18 18h-2v2l-11 9-14 11-4 2-5 5-9 6-6 3-9 6-10 6-19 11-7 3-16 8-8 3h-7l-1 3-9 3h-8v3l-10 3-10 4-14 3-9 2-3-1-1 2-3-1-1 2-13 1v2h-5-4l-4-1-1 3-4-2v3h-3l-1-2-3 1-1 2-20 1h-53l-21-1-1-3-3 2h-4v-3l-5 2-1-2-6 1-4-1h-2v-2l-10-1v-2h-3l-1 2v-3h-3l-1 2v-2l-5 1-24-6-9-4-14-4-25-9-3-4-9-2-3-2v-2l-8-1-25-14-7-4-11-7-5-4-12-8-10-8-11-9-9-8-5-3-5-6-5-5-5-3-5-5-3-5-12-11 12-36 10-21 10-17 12-17 11-12 7-8 11-9 7-6 15-10 19-10 20-8 14-4 19-4z" fill="#FFFEFE"/>
<path transform="translate(417,149)" d="m0 0h29l22 3 24 7 17 7 11 6 14 9 10 7v2l4 2 13 12v2h2l9 11 12 17 8 15 7 16 5 15 4 18 2 19v21l-2 19-4 19-8 22-8 16-9 15-10 13-14 15-12 11-17 12-18 10-21 8-13 4-24 4-14 1h-10l-22-2-19-4-21-7-21-10-16-10-11-9-8-7-12-12-13-17-9-15-8-16-6-16-6-25-2-16v-27l3-20 4-17 7-20 12-23 10-14 7-9 3-4h2l2-4 7-7 11-9 17-12 16-9 19-8 23-6 11-2z" fill="#FFFEFE"/>
</svg>
