<svg width="15" height="15" viewBox="0 0 15 15" fill="none" xmlns="http://www.w3.org/2000/svg">
<path d="M8.33472 5.62793H8.91805C9.07276 5.62793 9.22113 5.56647 9.33053 5.45708C9.43993 5.34768 9.50138 5.19931 9.50138 5.0446C9.50138 4.88989 9.43993 4.74151 9.33053 4.63212C9.22113 4.52272 9.07276 4.46126 8.91805 4.46126H8.33472C8.18001 4.46126 8.03163 4.52272 7.92224 4.63212C7.81284 4.74151 7.75138 4.88989 7.75138 5.0446C7.75138 5.19931 7.81284 5.34768 7.92224 5.45708C8.03163 5.56647 8.18001 5.62793 8.33472 5.62793ZM8.33472 7.96126H8.91805C9.07276 7.96126 9.22113 7.8998 9.33053 7.79041C9.43993 7.68101 9.50138 7.53264 9.50138 7.37793C9.50138 7.22322 9.43993 7.07485 9.33053 6.96545C9.22113 6.85605 9.07276 6.7946 8.91805 6.7946H8.33472C8.18001 6.7946 8.03163 6.85605 7.92224 6.96545C7.81284 7.07485 7.75138 7.22322 7.75138 7.37793C7.75138 7.53264 7.81284 7.68101 7.92224 7.79041C8.03163 7.8998 8.18001 7.96126 8.33472 7.96126ZM5.41805 5.62793H6.00138C6.15609 5.62793 6.30447 5.56647 6.41386 5.45708C6.52326 5.34768 6.58472 5.19931 6.58472 5.0446C6.58472 4.88989 6.52326 4.74151 6.41386 4.63212C6.30447 4.52272 6.15609 4.46126 6.00138 4.46126H5.41805C5.26334 4.46126 5.11497 4.52272 5.00557 4.63212C4.89617 4.74151 4.83472 4.88989 4.83472 5.0446C4.83472 5.19931 4.89617 5.34768 5.00557 5.45708C5.11497 5.56647 5.26334 5.62793 5.41805 5.62793ZM5.41805 7.96126H6.00138C6.15609 7.96126 6.30447 7.8998 6.41386 7.79041C6.52326 7.68101 6.58472 7.53264 6.58472 7.37793C6.58472 7.22322 6.52326 7.07485 6.41386 6.96545C6.30447 6.85605 6.15609 6.7946 6.00138 6.7946H5.41805C5.26334 6.7946 5.11497 6.85605 5.00557 6.96545C4.89617 7.07485 4.83472 7.22322 4.83472 7.37793C4.83472 7.53264 4.89617 7.68101 5.00557 7.79041C5.11497 7.8998 5.26334 7.96126 5.41805 7.96126ZM12.418 12.6279H11.8347V2.71126C11.8347 2.55655 11.7733 2.40818 11.6639 2.29878C11.5545 2.18939 11.4061 2.12793 11.2514 2.12793H3.08472C2.93001 2.12793 2.78163 2.18939 2.67224 2.29878C2.56284 2.40818 2.50138 2.55655 2.50138 2.71126V12.6279H1.91805C1.76334 12.6279 1.61497 12.6894 1.50557 12.7988C1.39617 12.9082 1.33472 13.0566 1.33472 13.2113C1.33472 13.366 1.39617 13.5143 1.50557 13.6237C1.61497 13.7331 1.76334 13.7946 1.91805 13.7946H12.418C12.5728 13.7946 12.7211 13.7331 12.8305 13.6237C12.9399 13.5143 13.0014 13.366 13.0014 13.2113C13.0014 13.0566 12.9399 12.9082 12.8305 12.7988C12.7211 12.6894 12.5728 12.6279 12.418 12.6279ZM7.75138 12.6279H6.58472V10.2946H7.75138V12.6279ZM10.668 12.6279H8.91805V9.71126C8.91805 9.55655 8.85659 9.40818 8.7472 9.29878C8.6378 9.18939 8.48943 9.12793 8.33472 9.12793H6.00138C5.84667 9.12793 5.6983 9.18939 5.5889 9.29878C5.47951 9.40818 5.41805 9.55655 5.41805 9.71126V12.6279H3.66805V3.2946H10.668V12.6279Z" fill="#989DA6"/>
</svg>
